<svg xmlns="http://www.w3.org/2000/svg" viewBox="0 0 219.9 251.12"><defs><style>.cls-1{fill:#fff;}.cls-2{fill:#fedf40;}.cls-3{fill:#f99f25;}.cls-4{fill:#dc3a36;}</style></defs><title>Asset 3</title><g id="Layer_2" data-name="Layer 2"><g id="Layer_1-2" data-name="Layer 1"><path class="cls-1" d="M199.08,62.73c-4.5-7.89-12.93-13.9-22-13.83a33.46,33.46,0,0,0-11.29,2.47C157.06,54.63,149,59.42,141,64.18c-3.9,2.33-7.86,4.7-11,8s-5.51,7.57-5.44,12.12L123,82c-2-.48-3.36,1.89-4,3.83q-2.47,7.38-5,14.75c-1.06,3.16-2.14,6.39-2.17,9.72s1.16,6.86,3.85,8.83c2.18,1.6,5,2,7.68,2.3L141,123.59c5.44.66,10.92,1.31,16.37.87,8.6-.7,16.74-4.1,24.48-7.9s15.85-8.61,19.49-16.49a32.36,32.36,0,0,0,2.53-10.91C204.61,80.1,203.58,70.63,199.08,62.73Z"/><path class="cls-1" d="M128.7,61.57c-.08-5.4-1.63-10.67-3.37-15.79A27.19,27.19,0,0,0,121.61,38c-2.14-2.81-5.22-4.73-8.22-6.59-4.45-2.75-9.08-5.57-14.28-6.15-6.46-.73-12.74,2.1-18.58,5C75.36,32.69,70,35.49,66.82,40.3S63.74,52.54,68.5,55.78l-.17.37c2.61,6.47,8.67,10.77,14.42,14.7,6.19,4.22,12.55,8.51,19.82,10.34s15.73.71,20.92-4.69C127.23,72.6,128.78,67,128.7,61.57Z"/><path class="cls-2" d="M169.59,132.74A42.91,42.91,0,0,0,158.18,123c-12-6.52-26.7-3.72-39.79.07l-2.12,2.77a30.71,30.71,0,0,0-2.49-6.42l-7.33,2.18c8.9-7.08,17.64-13.87,21.92-24.5,2.25-5.57,1.5-15,1.11-21a30.4,30.4,0,0,0-4.1-12.91C117.7,49.68,100.54,41.39,85.7,46.16l-2.59-1.23A78,78,0,0,0,55.63,55.25c-5.08,3.11-9.88,6.89-13.23,11.82C37.23,74.68,36,84.3,36.09,93.5c.12,10.27,2.14,21.33,9.59,28.4,4.39,4.17,10.22,6.49,16.1,7.93a62.56,62.56,0,0,0,11.49,1.67l-5,1.48C64.2,136.37,64.17,143,67,147.53s7.77,7.22,12.71,9.19a39.68,39.68,0,0,0,10.76,2.83L88.62,162c-.8,8.17,5.73,15,11.77,20.57,9.16,8.4,18.58,16.84,29.86,22s24.87,6.8,36,1.31c12.67-6.25,19.89-20.89,19.65-35S178.9,143.35,169.59,132.74Z"/><path class="cls-3" d="M117.54,127.94a7.52,7.52,0,0,0-.68-3.55c-1.06-1.89-3.5-2.51-5.68-2.56-8.14-.19-15.56,4.79-23.66,5.66-6.13.65-12.52-1-18.4.78-1.18.36-2.54,1.28-2.23,2.48l.22.26c-1.69,3.54-.29,7.71,1.19,11.34,1.69,4.14,3.58,8.38,7,11.32,4.68,4.07,11.32,4.85,17.52,5.19,4.69.25,9.59.31,13.81-1.74,4.94-2.42,8.2-7.47,9.68-12.77S117.69,133.45,117.54,127.94Z"/><path d="M17.1,68.24c3.22,0,3.23-5,0-5s-3.22,5,0,5Z"/><path class="cls-4" d="M1.81,124.93a8.51,8.51,0,0,0,1.07,1.3l-.56-1.44Z"/><path class="cls-4" d="M40.82,130.86c-1.84-4.27-7.13-6-11.77-5.71s-9.11,1.93-13.75,2.24c-4.07.27-8.65-.89-11-4l5.31,22.47a7.18,7.18,0,0,0,.79,2.22c1.77,2.82,6.06,1.93,9,.5a70.65,70.65,0,0,0,20.8-15.15,2.67,2.67,0,0,0,.86-1.44A2.46,2.46,0,0,0,40.82,130.86Z"/><path d="M95.39,41.53c-20-1-41.44,5.77-53.8,22.28-10.87,14.51-12.44,36.68-1.22,51.47,12.77,16.83,38.56,19.46,57.49,13.49,19.7-6.22,34.85-23.16,36.37-44.14C135.86,62.08,117.65,41,94.61,41.42c-3.22.06-3.23,5.06,0,5,18.54-.33,34.05,15.51,34.7,33.8.67,18.68-11.71,35.3-28.65,42.23-16.64,6.8-40.38,6.27-53.73-7.2-11.79-11.88-11.67-31.83-3.31-45.57C54.2,52.29,76.05,45.52,95.39,46.53c3.22.17,3.21-4.83,0-5Z"/><path d="M72.54,62.66C58.36,47.53,46.29,23.2,61.25,4.27H57.72l4.83,5.93C64,12,66.8,10.44,66.82,8.43c0-3.11-2-5.29-5.22-5l1.76,4.27A6,6,0,0,0,65,4.78a2.51,2.51,0,0,0-.65-2.43L62.71.76C60.41-1.5,56.87,2,59.17,4.29L60.8,5.88l-.64-2.43-.33.69c-1.31,1.47-.55,4.45,1.77,4.26l.22,0,4.26-1.77L61.25.73a2.5,2.5,0,0,0-3.53,0C40.92,22,52.69,48.78,69,66.19c2.21,2.36,5.74-1.18,3.54-3.53Z"/><path d="M107.75,55a85.9,85.9,0,0,1,12.78-30.22C126.48,16,135,6.44,146.56,7L145.9,2.1c-6.42.88-6.29,9.08-.39,10.7a2.48,2.48,0,0,0,2.43-.64c2-2.42,2-4.8,0-7.25S142.43,6,144.44,8.45l0,.17L146.84,8l.39-1.06c2.9-.4,2-4.78-.67-4.91-11.6-.57-20.75,7.46-27.39,16.16a89.6,89.6,0,0,0-16.24,35.51c-.68,3.14,4.14,4.48,4.82,1.33Z"/><path d="M79.86,101,94,97.47c1.13-.28,5-1.84,5.63-.87s-.56,5.29-.84,6.32c-1.11,4.11-3.59,8.16-8.11,8.86-6.28,1-10.62-4.77-9.19-10.63.76-3.13-4.06-4.46-4.83-1.33C72.9,115,92.9,123.25,101.12,110.06c2.42-3.88,5.58-13.1,2.41-17.25-2.26-3-6.19-1.33-9.15-.6L78.53,96.15c-3.12.77-1.8,5.59,1.33,4.82Z"/><path d="M73.75,88.74c3.22,0,3.23-5,0-5s-3.22,5,0,5Z"/><path d="M101.93,84.83c3.21,0,3.22-5,0-5s-3.23,5,0,5Z"/><path d="M61.51,130.35c-5.66,22.88,19.67,36.36,39.17,30.9,9-2.52,17.39-8.77,20.72-17.7s1.32-19.66-5.94-26.15c-2.39-2.14-5.94,1.39-3.54,3.54a19,19,0,0,1,4.66,21.28c-2.9,7.24-9.92,12.14-17.23,14.21-15.68,4.42-37.76-5.59-33-24.75.78-3.13-4-4.46-4.82-1.33Z"/><path d="M149.66,207.18c1.56,13.2,2.48,26.67,13,36.22a28.49,28.49,0,0,0,14.87,7.43c4.54.66,11,.58,12.79-4.49,1.08-3-3.75-4.34-4.82-1.32-.53,1.5-5.26,1.13-6.53,1a20.3,20.3,0,0,1-7.12-2.21,28,28,0,0,1-10.6-9.82c-5.17-8.1-5.5-17.55-6.59-26.81-.37-3.15-5.37-3.19-5,0Z"/><path d="M173,201.2c3.63,8.07,9.12,16.19,18.54,17.59,10.8,1.61,19.84-5.63,27.49-12.19,2.45-2.1-1.1-5.62-3.53-3.54-6.43,5.51-14.15,12.12-23.28,10.75-7.82-1.18-11.94-8.56-14.9-15.14-1.32-2.93-5.63-.39-4.32,2.53Z"/><path d="M105.79,191.72c16.95,8.93,37-7.77,45.63-21.56,4.76-7.57,6.79-16.34,7.89-25.13,1-8.14.66-16.73-5.16-23-2.19-2.37-5.72,1.17-3.54,3.54,5,5.41,4.59,13.43,3.59,20.25-1,7.11-2.63,14.25-6.27,20.51-6.83,11.74-25,28.82-39.62,21.12-2.84-1.5-5.37,2.82-2.52,4.32Z"/><path d="M130.05,205.62c16.07,2.24,31.09-11.42,39.46-23.77,8.57-12.66,15.8-32.41,7.35-46.76-1.64-2.77-6-.25-4.32,2.53,7.22,12.26.53,29.45-6.47,40.37-6.83,10.64-20.73,24.76-34.69,22.81-3.15-.44-4.51,4.38-1.33,4.82Z"/><path d="M60.17,136.59c.89,11.65-7.18,20.5-16.36,26.48-7.19,4.69-22.36,15.85-29.6,6.51-2-2.54-5.49,1-3.54,3.53,8.92,11.51,25.2.84,34.24-4.81,11.15-7,21.34-17.6,20.26-31.71-.25-3.19-5.25-3.22-5,0Z"/><path d="M.36,125.29a689.86,689.86,0,0,1,9.51,72.46c.25,3.18,5.25,3.21,5,0A701.61,701.61,0,0,0,5.18,124c-.59-3.16-5.41-1.83-4.82,1.33Z"/><path d="M1.12,122.9a26.05,26.05,0,0,0,17.38,4.34c3.21-.31,6-1.57,9.13-2.24s4.92.18,7.25,1.85c.9.64,4.56,2.7,4.66,3.52.79-.1.78,0,0,.25a10.61,10.61,0,0,0-1.77.92,22.8,22.8,0,0,0-2.66,1.93,67.57,67.57,0,0,0-6.6,6.83c-5.47,6-11.89,9.27-20,6.55-3.06-1-4.37,3.81-1.33,4.82a21.56,21.56,0,0,0,21.55-4.43c3.08-2.73,5.48-6.1,8.47-8.9,2.25-2.11,6.85-3.17,8.24-5.92,1.11-2.18-.15-3.8-1.74-5.2-3.11-2.72-7.68-6.82-11.92-7.59s-8,1.75-12,2.41a21.56,21.56,0,0,1-16-3.46c-2.67-1.82-5.17,2.51-2.53,4.32Z"/><path d="M121.16,123.7A52.2,52.2,0,0,0,168.9,77.85c.41-3.19-4.59-3.16-5,0a47.06,47.06,0,0,1-42.74,40.85c-3.18.28-3.21,5.28,0,5Z"/><path d="M132.87,75c5.65-11.12,16-18.25,27.54-22.49,5.54-2,12.38-4.47,18.35-4.27,7.74.25,12.71,7.62,17,13.22s8.13,11.84,7.72,19.08c-.39,7-4.09,13.72-8.14,19.27a56.25,56.25,0,0,1-31.57,21.1c-3.12.79-1.8,5.61,1.33,4.82a61.31,61.31,0,0,0,35.42-24.63c4.59-6.68,8.51-14.94,8-23.23-.52-7.71-4.83-14.32-9.42-20.26-4-5.14-8.31-11.17-14.71-13.42-7.28-2.56-16.14.4-23.13,2.76-13.45,4.55-26,12.55-32.61,25.52-1.46,2.87,2.85,5.4,4.31,2.53Z"/><path d="M67.37,49.26c5.49-12.71,18.56-23.88,33.16-22.77,16.74,1.27,24.39,18.7,25.34,33.34.21,3.19,5.21,3.22,5,0-1.08-16.65-9.54-35.19-27.84-38.06-17-2.67-33.5,10-40,25-1.26,2.93,3,5.48,4.32,2.53Z"/><path d="M192.53,131.06a54.22,54.22,0,0,0,11.28-10.69c2-2.51-1.55-6.07-3.54-3.54A49.69,49.69,0,0,1,190,126.74c-2.6,1.86-.1,6.19,2.52,4.32Z"/><path d="M206.7,130.9l3.52-3.53a2.5,2.5,0,0,0-3.54-3.53l-3.52,3.52a2.5,2.5,0,0,0,3.54,3.54Z"/><path d="M24.9,62.12a79.53,79.53,0,0,0-6,14.13c-1,3.08,3.85,4.39,4.82,1.33a73.33,73.33,0,0,1,5.5-12.94c1.54-2.83-2.78-5.36-4.32-2.52Z"/><path d="M121.89,125.06c26.93-10.57,57.71,9.37,63.42,36.75,3.16,15.14-3,29.84-16.49,37.6s-30.1,6.51-43.8-.29c-16.22-8.05-27.62-22.57-36.45-38-1.6-2.79-5.92-.28-4.32,2.52,9,15.61,20.56,30.43,36.74,39,14.78,7.82,32.45,9.89,47.78,2.42,14.19-6.91,23-21.05,22.36-36.9s-9.38-30.56-21.91-39.92c-13.8-10.31-32.33-14.44-48.66-8-3,1.17-1.68,6,1.33,4.82Z"/><path d="M172.42,136.52a23.91,23.91,0,0,0-13.25-9.65c-.62,2.75-.19,5.62.06,8.43a66.29,66.29,0,0,1-5,31.9,22.63,22.63,0,0,1-2.59,4.76,26.84,26.84,0,0,1-4.89,4.63c-8.14,6.52-16.64,13.21-26.78,15.64l-4.78-.3a28.92,28.92,0,0,0,23.91,6.9c11.61-2,20.93-11.08,26.66-21.37,3.33-6,5.7-12.42,8-18.84a41.09,41.09,0,0,0,1.89-6.11A21.81,21.81,0,0,0,172.42,136.52Z"/><path d="M174.58,135.26a28,28,0,0,0-14.74-10.8,2.52,2.52,0,0,0-3.08,1.75c-1.11,7.16.64,14.48-.11,21.75-.85,8.14-3,18.87-9.12,24.7a89,89,0,0,1-18.27,13.21c-4.88,2.66-8.75,3.9-14.12,3.56-2.09-.13-3.4,2.88-1.77,4.27,14.53,12.36,34.16,9.2,46.72-4.26,6.87-7.35,11-16.48,14.46-25.78,3.74-9.94,5.85-18.75,0-28.4-1.66-2.76-6-.25-4.32,2.52,5.3,8.79,2.5,16.61-.86,25.42-2.94,7.71-6.36,15.35-11.84,21.61-10.55,12-27.61,16.45-40.65,5.35l-1.77,4.27c13.18.83,25.09-8.93,34.64-17.13,6.27-5.39,8.95-13.62,10.64-21.51A69.58,69.58,0,0,0,162,142.54c.11-5-1.16-10.1-.4-15l-3.07,1.74a22.41,22.41,0,0,1,11.75,8.5C172.1,140.39,176.44,137.89,174.58,135.26Z"/></g></g></svg>