<svg xmlns="http://www.w3.org/2000/svg" viewBox="0 0 223.11 257.32"><defs><style>.cls-1{fill:#fff;}.cls-2{fill:#fedf40;}.cls-3{fill:#f99f25;}.cls-4{fill:#dc3a36;}</style></defs><title>Asset 2</title><g id="Layer_2" data-name="Layer 2"><g id="Layer_1-2" data-name="Layer 1"><path class="cls-1" d="M200,62.73c-4.51-7.89-12.93-13.9-22-13.83a33.35,33.35,0,0,0-11.28,2.47C158,54.63,149.9,59.42,141.9,64.18c-3.91,2.33-7.86,4.7-11,8s-5.52,7.57-5.45,12.12L123.94,82c-2-.48-3.37,1.89-4,3.83l-5,14.75c-1.07,3.16-2.14,6.39-2.17,9.72s1.16,6.86,3.85,8.83c2.18,1.6,5,2,7.68,2.3l17.55,2.12c5.43.66,10.91,1.31,16.37.87,8.6-.7,16.73-4.1,24.48-7.9s15.84-8.61,19.49-16.49a32.84,32.84,0,0,0,2.53-10.91C205.51,80.1,204.48,70.63,200,62.73Z"/><path class="cls-1" d="M129.6,61.57c-.08-5.4-1.63-10.67-3.38-15.79A27.19,27.19,0,0,0,122.5,38c-2.14-2.81-5.21-4.73-8.22-6.59-4.44-2.75-9.08-5.57-14.27-6.15-6.46-.73-12.74,2.1-18.59,5-5.17,2.52-10.55,5.32-13.7,10.13s-3.08,12.24,1.67,15.48l-.17.37c2.61,6.47,8.67,10.77,14.43,14.7,6.19,4.22,12.55,8.51,19.81,10.34s15.74.71,20.92-4.69C128.13,72.6,129.67,67,129.6,61.57Z"/><path class="cls-2" d="M170.49,132.74A42.79,42.79,0,0,0,159.07,123c-12-6.52-26.7-3.72-39.78.07l-2.13,2.77a29.65,29.65,0,0,0-2.49-6.42l-7.32,2.18c8.89-7.08,17.63-13.87,21.92-24.5,2.24-5.57,1.49-15,1.11-21a30.56,30.56,0,0,0-4.11-12.91C118.6,49.68,101.43,41.39,86.6,46.16L84,44.93A77.87,77.87,0,0,0,56.53,55.25c-5.08,3.11-9.88,6.89-13.23,11.82C38.12,74.68,36.88,84.3,37,93.5c.11,10.27,2.14,21.33,9.58,28.4,4.39,4.17,10.23,6.49,16.11,7.93a62.43,62.43,0,0,0,11.49,1.67l-5,1.48c-4.1,3.39-4.13,10.05-1.3,14.55s7.77,7.22,12.71,9.19a39.75,39.75,0,0,0,10.77,2.83L89.51,162c-.79,8.17,5.73,15,11.78,20.57,9.15,8.4,18.57,16.84,29.85,22s24.88,6.8,36,1.31c12.66-6.25,19.88-20.89,19.64-35S179.79,143.35,170.49,132.74Z"/><path class="cls-3" d="M118.44,127.94a7.52,7.52,0,0,0-.68-3.55c-1.07-1.89-3.51-2.51-5.68-2.56-8.15-.19-15.57,4.79-23.67,5.66-6.13.65-12.51-1-18.4.78-1.17.36-2.53,1.28-2.23,2.48L68,131c-1.69,3.54-.29,7.71,1.2,11.34,1.69,4.14,3.57,8.38,6.94,11.32,4.69,4.07,11.33,4.85,17.53,5.19,4.68.25,9.58.31,13.8-1.74,5-2.42,8.2-7.47,9.69-12.77S118.58,133.45,118.44,127.94Z"/><path class="cls-4" d="M6.43,111.5a7.58,7.58,0,0,0,.65,1.55L7,111.51Z"/><path class="cls-4" d="M42.05,128.45c-.51-4.62-5.09-7.77-9.61-8.87s-9.28-.78-13.81-1.83c-4-.91-8-3.35-9.42-7L7.8,133.77a7.13,7.13,0,0,0,.11,2.35c.88,3.2,5.24,3.6,8.53,3.09a70.46,70.46,0,0,0,24.28-8.49A2.58,2.58,0,0,0,42,129.59,2.19,2.19,0,0,0,42.05,128.45Z"/><path d="M96.29,41.53c-20-1-41.45,5.77-53.81,22.28-10.86,14.51-12.43,36.68-1.21,51.47C54,132.11,79.82,134.74,98.75,128.77c19.7-6.22,34.86-23.16,36.37-44.14C136.75,62.08,118.54,41,95.5,41.42c-3.21.06-3.22,5.06,0,5,18.55-.33,34.05,15.51,34.71,33.8.67,18.68-11.72,35.3-28.66,42.23-16.63,6.8-40.37,6.27-53.73-7.2C36,103.37,36.16,83.42,44.52,69.68,55.1,52.29,76.94,45.52,96.29,46.53c3.21.17,3.2-4.83,0-5Z"/><path d="M73.43,62.66C59.26,47.53,47.19,23.2,62.15,4.27H58.61l4.83,5.93c1.43,1.75,4.26.24,4.27-1.77,0-3.11-2-5.29-5.22-5l1.77,4.27a6.1,6.1,0,0,0,1.61-2.89,2.51,2.51,0,0,0-.64-2.43L63.6.76C61.3-1.5,57.76,2,60.07,4.29l1.62,1.59-.64-2.43-.33.69c-1.31,1.47-.54,4.45,1.77,4.26l.22,0L67,6.66,62.15.73a2.52,2.52,0,0,0-3.54,0C41.81,22,53.58,48.78,69.9,66.19c2.2,2.36,5.73-1.18,3.53-3.53Z"/><path d="M108.65,55a85.88,85.88,0,0,1,12.77-30.22c6-8.78,14.49-18.35,26-17.78l-.66-4.91c-6.42.88-6.29,9.08-.39,10.7a2.48,2.48,0,0,0,2.43-.64c2-2.42,2-4.8,0-7.25S143.32,6,145.33,8.45l0,.17L147.73,8l.39-1.06c2.91-.4,2-4.78-.67-4.91-11.59-.57-20.75,7.46-27.39,16.16a89.74,89.74,0,0,0-16.24,35.51c-.67,3.14,4.15,4.48,4.83,1.33Z"/><path d="M79.26,103.7l13.14-2.53c1.15-.22,7.28-2.12,8.08-1.49.61.48-.53,4-.78,4.74a10.42,10.42,0,0,1-8.9,7.39c-4.92.57-11.82-2.17-10-8.26.94-3.08-3.89-4.4-4.82-1.33-4.57,15.11,18.53,18.76,26,8.55,2.43-3.32,5.89-11.9,1.74-15.15-2.43-1.9-6.25-.51-8.92,0L77.93,98.88c-3.16.61-1.82,5.43,1.33,4.82Z"/><path d="M74.8,90c3.22,0,3.23-5,0-5s-3.22,5,0,5Z"/><path d="M103,86.1c3.22,0,3.22-5,0-5s-3.22,5,0,5Z"/><path d="M62.41,130.35c-5.66,22.88,19.66,36.36,39.16,30.9,9-2.52,17.39-8.77,20.73-17.7s1.32-19.66-6-26.15c-2.39-2.14-5.94,1.39-3.53,3.54a19,19,0,0,1,4.65,21.28c-2.9,7.24-9.91,12.14-17.22,14.21-15.69,4.42-37.76-5.59-33-24.75.77-3.13-4.05-4.46-4.82-1.33Z"/><path d="M136.12,205.63C133.84,219.08,131,232.72,139,245a28.11,28.11,0,0,0,11.93,10.52c4.2,1.84,10.13,3.38,13.23-.91,1.89-2.61-2.44-5.11-4.31-2.52-.86,1.18-5.2-.41-6.31-.85a20,20,0,0,1-6-3.79,27.8,27.8,0,0,1-7.46-11.54c-3.26-9.62-.8-19.24.84-28.9.54-3.14-4.28-4.5-4.82-1.33Z"/><path d="M173.94,201.2c3.62,8.07,9.11,16.19,18.54,17.59,10.79,1.61,19.83-5.63,27.49-12.19,2.45-2.1-1.1-5.62-3.54-3.54-6.42,5.51-14.15,12.12-23.28,10.75-7.82-1.18-11.94-8.56-14.9-15.14-1.31-2.93-5.62-.39-4.31,2.53Z"/><path d="M106.68,191.72c16.95,8.93,37-7.77,45.64-21.56,4.76-7.57,6.79-16.34,7.89-25.13,1-8.14.66-16.73-5.17-23-2.18-2.37-5.71,1.17-3.53,3.54,5,5.41,4.58,13.43,3.59,20.25-1,7.11-2.63,14.25-6.28,20.51C142,178,123.82,195.1,109.2,187.4c-2.84-1.5-5.37,2.82-2.52,4.32Z"/><path d="M130.94,205.62C147,207.86,162,194.2,170.4,181.85c8.57-12.66,15.8-32.41,7.35-46.76-1.63-2.77-6-.25-4.32,2.53,7.23,12.26.54,29.45-6.46,40.37-6.83,10.64-20.73,24.76-34.7,22.81-3.14-.44-4.5,4.38-1.33,4.82Z"/><path d="M61.32,136.55C60,147.79,50,154.86,40.29,158.78c-7.83,3.15-25.18,11.19-30.38.75-1.43-2.88-5.74-.35-4.31,2.52,6.74,13.55,25.77,5.63,36,1.55,12.12-4.83,23.07-13.33,24.7-27,.38-3.19-4.62-3.16-5,0Z"/><path d="M4.93,113.08A699.06,699.06,0,0,1,0,186.67c-.38,3.19,4.62,3.16,5,0a699.06,699.06,0,0,0,4.91-73.59c0-3.22-5-3.22-5,0Z"/><path d="M6,111a26,26,0,0,0,15.06,7.6,32.32,32.32,0,0,0,8.28,0c3.23-.34,5.51-.67,8,1.76,1.28,1.24,2.31,2.75,3.58,4,2,1.92,2.36,1.21.74,1.92-1.06.47-2.18.75-3.23,1.24a52.51,52.51,0,0,0-8.36,5.59c-6.63,4.88-13.63,7.36-21.35,3-2.79-1.6-5.32,2.71-2.52,4.31a21.62,21.62,0,0,0,22.2-.08c3.74-2.22,6.92-5.27,10.69-7.46,2.6-1.51,7.26-1.46,8.85-4.29,1.39-2.51-.6-4.46-2.19-6.27-2.61-3-5.5-7.3-9.48-8.61s-8.31.41-12.36.18a21.34,21.34,0,0,1-14.37-6.42C7.33,105.12,3.8,108.66,6,111Z"/><path d="M135.48,120.68A52.16,52.16,0,0,0,158.6,59.17c-1-3.05-5.83-1.74-4.82,1.33A47.14,47.14,0,0,1,133,116.36c-2.77,1.63-.26,6,2.52,4.32Z"/><path d="M133.77,75c5.64-11.12,16-18.25,27.53-22.49,5.55-2,12.39-4.47,18.35-4.27,7.74.25,12.71,7.62,16.95,13.22s8.13,11.84,7.72,19.08c-.39,7-4.09,13.72-8.14,19.27a56.25,56.25,0,0,1-31.57,21.1c-3.11.79-1.79,5.61,1.33,4.82a61.37,61.37,0,0,0,35.43-24.63c4.58-6.68,8.5-14.94,7.95-23.23-.51-7.71-4.82-14.32-9.42-20.26-4-5.14-8.31-11.17-14.71-13.42-7.28-2.56-16.14.4-23.12,2.76-13.46,4.55-26,12.55-32.62,25.52-1.45,2.87,2.86,5.4,4.32,2.53Z"/><path d="M68.27,49.26c5.49-12.71,18.55-23.88,33.15-22.77,16.74,1.27,24.4,18.7,25.35,33.34.21,3.19,5.21,3.22,5,0-1.08-16.65-9.55-35.19-27.84-38.06-17-2.67-33.51,10-40,25-1.26,2.93,3,5.48,4.32,2.53Z"/><path d="M208.22,118.34a55,55,0,0,0,6.12-14.3c.83-3.11-4-4.43-4.82-1.33a50.06,50.06,0,0,1-5.62,13.11c-1.67,2.76,2.65,5.27,4.32,2.52Z"/><path d="M221.12,112.6,223,108a2.52,2.52,0,0,0-1.75-3.08,2.56,2.56,0,0,0-3.07,1.75l-1.86,4.62a2.52,2.52,0,0,0,1.75,3.07,2.56,2.56,0,0,0,3.07-1.74Z"/><path d="M122.78,125.06c26.93-10.57,57.72,9.37,63.42,36.75,3.16,15.14-3,29.84-16.49,37.6s-30.09,6.51-43.8-.29c-16.22-8.05-27.61-22.57-36.45-38-1.6-2.79-5.92-.28-4.32,2.52,9,15.61,20.56,30.43,36.75,39,14.77,7.82,32.44,9.89,47.78,2.42,14.19-6.91,23-21.05,22.35-36.9s-9.38-30.56-21.91-39.92c-13.8-10.31-32.33-14.44-48.66-8-3,1.17-1.67,6,1.33,4.82Z"/><path d="M22.45,82.94a43.08,43.08,0,0,0-1.53,16.82c.33,3.17,5.34,3.2,5,0a39.61,39.61,0,0,1,1.35-15.5c.91-3.09-3.92-4.41-4.82-1.32Z"/><path d="M14.11,87.52a6.84,6.84,0,0,0-.65,4.57,2.52,2.52,0,0,0,3.08,1.75,2.58,2.58,0,0,0,1.75-3.08c-.11-.57,0,.53,0-.05a2.62,2.62,0,0,1,0-.28c0-.19,0-.12,0,.22-.05-.12.11-.43.13-.53.12-.49-.21.4,0-.08a2.5,2.5,0,0,0-4.32-2.52Z"/><path d="M173.53,138.59a23.89,23.89,0,0,0-13.24-9.65c-.63,2.75-.2,5.61.06,8.42a66.57,66.57,0,0,1-5,31.91,22.67,22.67,0,0,1-2.6,4.76,26.86,26.86,0,0,1-4.89,4.63c-8.14,6.52-16.64,13.21-26.78,15.64l-4.78-.3a29,29,0,0,0,23.92,6.9c11.6-2,20.92-11.08,26.66-21.37,3.33-6,5.69-12.42,8-18.84a41.42,41.42,0,0,0,1.88-6.11A21.77,21.77,0,0,0,173.53,138.59Z"/><path d="M175.69,137.33A28,28,0,0,0,161,126.53a2.5,2.5,0,0,0-3.07,1.75c-1.11,7.16.64,14.48-.12,21.75-.84,8.14-3,18.87-9.12,24.69a88.63,88.63,0,0,1-18.27,13.22c-4.88,2.66-8.75,3.9-14.12,3.56-2.09-.13-3.4,2.88-1.77,4.27,14.53,12.36,34.16,9.2,46.73-4.26,6.86-7.35,10.95-16.48,14.45-25.78,3.74-9.94,5.85-18.75,0-28.4-1.66-2.76-6-.25-4.32,2.52,5.3,8.79,2.5,16.61-.86,25.42-2.93,7.71-6.35,15.35-11.84,21.6-10.54,12-27.61,16.46-40.65,5.36l-1.77,4.27c13.18.83,25.09-8.93,34.64-17.13,6.28-5.39,9-13.62,10.65-21.51a71.23,71.23,0,0,0,1.56-13.25c.1-5-1.16-10.1-.4-15l-3.08,1.75a22.41,22.41,0,0,1,11.75,8.5C173.22,142.45,177.55,140,175.69,137.33Z"/></g></g></svg>