<svg xmlns="http://www.w3.org/2000/svg" viewBox="0 0 126.17 200.36"><defs><style>.cls-1{fill:#ffe45f;}.cls-2{fill:#ffbc27;}</style></defs><g id="Layer_2" data-name="Layer 2"><g id="Layer_1-2" data-name="Layer 1"><path class="cls-1" d="M94,120.46c-8.42,7.86-17.65,11.35-29.12,12.45A28.28,28.28,0,0,1,53.53,132a15,15,0,0,1-7.85-5.69c-.18-.49-.36-1-.53-1.48-.72-2.09-1-6-1.2-8.21a17.38,17.38,0,0,1,3.36-12.09,1.11,1.11,0,0,1,.46-.4c.36-.12.72.18,1,.42,2,1.63,4.71,1.88,7.26,2.06,4.21.29,8.51.58,12.62-.41,6.24-1.51,11.41-5.79,16-10.26l.71-.16a26.19,26.19,0,0,1,14.76,10.49C100.54,109.93,98.71,116.08,94,120.46Z"/><path d="M93,119.4A45.77,45.77,0,0,1,68.11,131c-5.12.76-10.82,1.2-15.67-1-2-.92-4.57-2.51-5.51-4.62a20.36,20.36,0,0,1-1.26-6.46,23.69,23.69,0,0,1-.06-6.83,16.67,16.67,0,0,1,1-3.38,16.45,16.45,0,0,1,.84-1.68c.14-.23.28-.47.43-.7s.23-.35.34-.52q.4-.42-.51-.18c0,.17,1.3.92,1.41,1a10.82,10.82,0,0,0,1.56.68,15.86,15.86,0,0,0,3.41.68,69.93,69.93,0,0,0,8,.44,27.24,27.24,0,0,0,15-4.34A48.08,48.08,0,0,0,83,99.57l1.23-1.11.75-.71c.07-.07.68-.66.3-.38s.09,0,.24-.05c.42,0-.16.05-.17,0a15.18,15.18,0,0,0,1.84.58,22.76,22.76,0,0,1,6.77,3.9,28,28,0,0,1,2.79,2.66c.49.53.95,1.07,1.39,1.63.16.2.33.41.47.62l0-.21c0,.17,0,.33,0,.49.17,4.6-2.54,9.29-5.76,12.37-1.4,1.33.72,3.45,2.12,2.12a21.31,21.31,0,0,0,6.56-12.88,8.26,8.26,0,0,0,0-2.53c-.25-1.18-1.56-2.4-2.34-3.3a29.12,29.12,0,0,0-5.81-5,23.77,23.77,0,0,0-7.31-3.3c-2.41-.58-4,1.84-5.58,3.25-4.27,3.74-9.18,6.89-14.94,7.53a53.3,53.3,0,0,1-9.62-.1,21.35,21.35,0,0,1-3.64-.48,7.3,7.3,0,0,1-1.59-.55c-.7-.34-1.24-.93-1.93-1.24-2.64-1.19-4.33,3-5.09,4.87A18.68,18.68,0,0,0,42.4,116a63.14,63.14,0,0,0,.84,7.38,17.5,17.5,0,0,0,.93,3.15,9.28,9.28,0,0,0,2.5,3.21c4.43,4.06,10.58,5.09,16.39,4.77a55.62,55.62,0,0,0,17.25-3.61,47.32,47.32,0,0,0,14.77-9.42C96.5,120.2,94.38,118.08,93,119.4Z"/><path class="cls-1" d="M106.09,128.52c0,.1,0,.21-.08.31,0-.17.08-.35.11-.52Z"/><path d="M104.64,128.12c0,.11,0,.21-.07.31l2.89.8c0-.17.07-.35.11-.52l-2.9-.8c0,.17,0,.34-.07.51l.06-.39s0,.06,0,.09a1.11,1.11,0,0,0,0,.6,1,1,0,0,0,.17.56,1.31,1.31,0,0,0,.39.42,1,1,0,0,0,.51.26l.4.06a1.48,1.48,0,0,0,.76-.21l.3-.23a1.57,1.57,0,0,0,.38-.66,5,5,0,0,0,.08-.54l0,.39a.13.13,0,0,1,0-.06,1.73,1.73,0,0,0-.16-1.16,1.18,1.18,0,0,0-.38-.42,1.26,1.26,0,0,0-.51-.27l-.4,0a1.57,1.57,0,0,0-.76.2l-.3.24a1.49,1.49,0,0,0-.39.66c0,.18-.07.35-.1.52a1,1,0,0,0,0,.6,1.12,1.12,0,0,0,.18.56,1.18,1.18,0,0,0,.38.42,1.26,1.26,0,0,0,.51.27l.4.05a1.54,1.54,0,0,0,.76-.2l.3-.24a1.39,1.39,0,0,0,.39-.66c0-.1.05-.21.07-.31a1,1,0,0,0,0-.6,1.12,1.12,0,0,0-.18-.56,1.18,1.18,0,0,0-.38-.42,1.26,1.26,0,0,0-.51-.27l-.4,0a1.57,1.57,0,0,0-.76.2l-.3.24A1.44,1.44,0,0,0,104.64,128.12Z"/><path class="cls-1" d="M99.56,140.82c-4.4,5.08-10.53,9.58-17.14,10.8a29,29,0,0,1-19.48-3.77,36.75,36.75,0,0,1-10.77-9.57,31.72,31.72,0,0,0,21.12,4.1,45.6,45.6,0,0,0,17.63-5.9c3-1.9,8.47-5.65,10.88-10.46a35.24,35.24,0,0,0,3.34-8.77,14,14,0,0,1,1.08,4.37,43.94,43.94,0,0,1-.1,6.69c0,.17-.07.35-.11.52-.64,2.95-2.41,5.64-3.84,8.3A20.19,20.19,0,0,1,99.56,140.82Z"/><path d="M98.5,139.76C92.72,146.36,85,151.09,76,150.45s-17.13-5.91-22.54-12.93l-2.06,2c8.46,5.21,18.45,5.48,27.88,3.18,7.66-1.87,15.07-5.61,20.52-11.43a22.6,22.6,0,0,0,3.9-5.81,33,33,0,0,0,2.88-7.86H103.7a20.24,20.24,0,0,1,.93,3,21.45,21.45,0,0,1,.13,3,18,18,0,0,1-.35,5.39,25.17,25.17,0,0,1-2.47,5.41,31.15,31.15,0,0,1-3.44,5.29c-1.24,1.46.87,3.59,2.13,2.12a35.66,35.66,0,0,0,3.9-5.9,27.64,27.64,0,0,0,2.77-6.12,20.74,20.74,0,0,0,.46-6.19,26.75,26.75,0,0,0-.16-3.35,20.89,20.89,0,0,0-1-3.47c-.44-1.28-2.58-1.55-2.89,0a27.82,27.82,0,0,1-2.22,6.39,21.71,21.71,0,0,1-3,5.12,35.08,35.08,0,0,1-8.07,6.69,37.29,37.29,0,0,1-10,4.32A42.79,42.79,0,0,1,67,141.19a29,29,0,0,1-14-4.21c-1.2-.73-3,.83-2,2.06A37.14,37.14,0,0,0,69,152.15a27.35,27.35,0,0,0,22-2.22,38.54,38.54,0,0,0,9.62-8.05C101.89,140.43,99.78,138.3,98.5,139.76Z"/><path d="M90.92,136.48a45.6,45.6,0,0,1-17.63,5.9,31.72,31.72,0,0,1-21.12-4.1,47.08,47.08,0,0,1-6.49-11.93A15,15,0,0,0,53.53,132a28.28,28.28,0,0,0,11.37.87c11.47-1.1,20.7-4.59,29.12-12.45,4.69-4.38,6.52-10.53,6.15-14.15a30.5,30.5,0,0,1,4.62,9.8c.11.39.23.77.35,1.14A35.24,35.24,0,0,1,101.8,126C99.39,130.83,93.92,134.58,90.92,136.48Z"/><path d="M90.16,135.18a38.17,38.17,0,0,1-10.22,4.3,41.56,41.56,0,0,1-13.62,1.67,28.57,28.57,0,0,1-12.49-3.63c-1.67-1-2.77-3.44-3.7-5.09a49.43,49.43,0,0,1-3-6.48l-2.74,1.16c6.31,9.18,19,8.18,28.55,6.07a47.13,47.13,0,0,0,13.09-5,37.91,37.91,0,0,0,11.2-9.08c2.75-3.51,4.84-8.29,4.44-12.84l-2.79.76a29.83,29.83,0,0,1,4.23,8.6,5.55,5.55,0,0,1,.41,2,9.16,9.16,0,0,1-.61,2.08,38.94,38.94,0,0,1-2,4.61c-2.32,4.76-6.38,8-10.78,10.81-1.62,1-.12,3.63,1.52,2.59,5-3.2,9.51-7,12.12-12.44a44.19,44.19,0,0,0,2-4.77,19.62,19.62,0,0,0,.74-2.7,5.34,5.34,0,0,0-.43-2.57,32.74,32.74,0,0,0-4.65-9.74c-.77-1.1-2.94-.86-2.8.76.72,8.26-6.5,14.66-12.86,18.57a48.25,48.25,0,0,1-24.59,6.73c-5.31,0-11.07-1.4-14.24-6-.9-1.31-3.39-.54-2.74,1.15a49.77,49.77,0,0,0,5.37,10.53,11.06,11.06,0,0,0,1.65,2.18,11.79,11.79,0,0,0,2.54,1.44,31.11,31.11,0,0,0,5.26,2c7.46,2.12,15.33,1.33,22.68-.85a39.94,39.94,0,0,0,9.94-4.32C93.31,136.75,91.81,134.15,90.16,135.18Z"/><path class="cls-2" d="M39.86,82.61a3.51,3.51,0,0,1,1.35-.83,4.34,4.34,0,0,1,1.83,0c8.38,1.1,16.34,3.29,24.5,1.11,3.52-.94,6.25-3.53,9.87-3.92,0,0,6.76,7.91,7,11.79a12,12,0,0,1-4.77,10.12c-2.43,1.79-5.32,4.38-8.24,5.13-2.14.55-4.15,1-6.28,1.55s-4.47-.63-6.63-.44a20.54,20.54,0,0,1-20-11.58C36.58,91.3,36.43,85.72,39.86,82.61Z"/><path class="cls-1" d="M25.71,56.52A21,21,0,0,1,30.06,41.8c3.23-4.12,7.38-9.36,12.56-10.14C47.1,30,52.9,29.91,57.79,30.45a39.5,39.5,0,0,1,17.78,6.3A30.37,30.37,0,0,1,87.22,51.42c2.46,6.87,1.86,15-2.53,20.85a22.57,22.57,0,0,1-6.07,5.45,38.52,38.52,0,0,1-11.57,4.69,41.66,41.66,0,0,1-18.31.7A27.31,27.31,0,0,1,33.06,74a33.6,33.6,0,0,1-4.61-7.93A31.37,31.37,0,0,1,25.71,56.52Z"/><path d="M27.21,56.52A20.19,20.19,0,0,1,28.33,48a23.56,23.56,0,0,1,4.13-6.8A33.53,33.53,0,0,1,38,35.44a18.18,18.18,0,0,1,6.56-2.82c5.53-1.55,11.79-1.2,17.36,0A35.36,35.36,0,0,1,77.5,40.11c8,6.93,12.77,18.94,7.46,29-2.75,5.18-8,8.47-13.37,10.43a44.69,44.69,0,0,1-18.88,2.7,27.49,27.49,0,0,1-16.87-7.34,27.51,27.51,0,0,1-5.46-8.11,32.05,32.05,0,0,1-3.17-10.22c-.19-1.91-3.19-1.93-3,0A34,34,0,0,0,27,66.44a35.81,35.81,0,0,0,5,8.65A28.46,28.46,0,0,0,47.19,84.3c6.93,1.71,14.27,1.14,21.13-.66C74.47,82,80.76,79.21,85,74.29a22.66,22.66,0,0,0,5.09-16.75A29,29,0,0,0,82.86,41.2c-8.37-9.6-22.25-13.75-34.71-12.3A27.17,27.17,0,0,0,43,30a27.58,27.58,0,0,0-4.4,1.52,24.92,24.92,0,0,0-7,6.12A32.46,32.46,0,0,0,25.89,46a22.47,22.47,0,0,0-1.68,10.5C24.37,58.43,27.37,58.44,27.21,56.52Z"/><path d="M68,57.35c0,.08,0,.26,0,0s0,0,0,0c.17-.42.06-.17,0-.07s0-.09.08-.09-.19.2-.2.21-.25.23-.08.08-.09.06-.11.07l-.24.14c-.07,0-.18.13-.26.13l.15-.05-.17.06a5.5,5.5,0,0,1-.58.16c-.14,0-.27,0-.06,0l-.38,0h-.42l.11,0a1.77,1.77,0,0,1-.54-.13l-.25-.09c-.18-.06.26.14,0,0s-.29-.15-.43-.24l-.19-.14c-.16-.09.24.22,0,0s-.54-.5-.79-.77,0-.07,0,.06c0,0-.1-.15-.12-.19a2.12,2.12,0,0,1-.11-.21c-.15-.26.1.29,0,0a1.5,1.5,0,1,0-2.89.8A6.1,6.1,0,0,0,65.73,61a5.62,5.62,0,0,0,3.53-.85c.91-.59,1.92-1.62,1.78-2.81a1.54,1.54,0,0,0-1.5-1.5c-.74,0-1.6.66-1.5,1.5Z"/><path d="M49.92,55.16a3.38,3.38,0,0,1-.24.41c-.14.23.25-.27.06-.07l-.19.21-.2.19-.07.05c-.12.1-.08.07.11-.08a3.94,3.94,0,0,0-.51.32c-.12.06-.35.08,0,0l-.25.09-.31.07c-.12,0-.06,0,.17,0l-.18,0a5.61,5.61,0,0,1-.58,0h.12l-.18,0-.25-.06-.24-.09c-.28-.09.33.17,0,0-.16-.07-.29-.18-.44-.26.36.19.18.13.08,0l-.21-.21c-.17-.18.21.31.06.09a1,1,0,0,0-.11-.17c0-.06-.17-.38-.06-.11s0,0,0-.11,0-.21,0,.11a.81.81,0,0,0,0-.22c0-.16,0-.11,0,.16a.94.94,0,0,1,0-.16l.07-.25c.08-.3-.16.3,0,0l.21-.38a1.5,1.5,0,1,0-2.59-1.52,4.1,4.1,0,0,0-.58,3,3.88,3.88,0,0,0,1.45,2.12,5,5,0,0,0,5.47.37,4.8,4.8,0,0,0,2-2,1.54,1.54,0,0,0,.15-1.15,1.51,1.51,0,0,0-.68-.9,1.53,1.53,0,0,0-2.06.54Z"/><path d="M56.28,61.78c-1.47-1.63-4.88-.86-5.35,1.34a3.43,3.43,0,0,0,1.51,3.23A8.8,8.8,0,0,0,55.3,68L55.7,65a6.57,6.57,0,0,0-3.22.6,3.43,3.43,0,0,0-1.77,2.8,3.34,3.34,0,0,0,1.81,2.86,3.25,3.25,0,0,0,3.57.19,1.5,1.5,0,1,0-1.52-2.59l-.22.13a.46.46,0,0,1,.3-.08,1,1,0,0,1-.24,0c.21,0,.22,0,.05,0s-.15,0,0,0l-.17-.08-.38-.24c-.15-.1-.14-.1,0,0a1.19,1.19,0,0,1-.18-.15l-.15-.16c.11.16.13.17,0,0l.06.16c0-.16,0-.13,0,.1a.67.67,0,0,1,0-.2c0,.23,0,.27,0,.1s0-.13,0,.07a1.14,1.14,0,0,1,.1-.19c.14-.27-.2.17,0,0l.16-.15c-.17.12-.19.14-.05.05l.2-.11c-.16.07-.17.07,0,0l.36-.09c.18,0,.17,0,0,0l.25,0c.34,0,.68,0,1,0a1.5,1.5,0,0,0,1.47-1.3,1.52,1.52,0,0,0-1.07-1.65l-.47-.16c.35.14-.14-.08-.2-.11-.25-.14-.49-.3-.73-.46s-.13-.09,0,0l-.19-.16a8.67,8.67,0,0,1-.7-.7c.11.14.12.14,0,0l0,0a.43.43,0,0,1,0,.23c0,.22,0,.25,0,.09a.47.47,0,0,1-.18.3l.15-.15c-.16.12-.17.14,0,0-.18.07-.22.09-.1,0l.25-.08.12,0c.16,0,.11,0-.14,0a2.22,2.22,0,0,0,.37,0c-.24,0-.28,0-.12,0s.12,0-.1-.06a.7.7,0,0,1,.17.09c-.18-.14-.21-.15-.09,0a1.5,1.5,0,0,0,2.12,0,1.54,1.54,0,0,0,0-2.12Z"/><path d="M74.4,40.41c2.74-4.84,3.14-10.44,2.28-15.85A36.72,36.72,0,0,0,70.86,9.64c-3-4.4-7.47-8-12.78-9.2C55.74-.09,53-.32,50.79.78a4.07,4.07,0,0,0-2.1,5.39c1,2.24,4.1,2.88,5.51.6a3.13,3.13,0,0,0-3.73-4.56c-1.81.65-1,3.55.79,2.89.61-.22.27,0,.31.14-.06-.2-.34-.62-.24-1C51.67,2.92,54.09,3,55.12,3a16.24,16.24,0,0,1,9.76,4.28c5.34,4.77,8.4,12.47,9.09,19.5A20.14,20.14,0,0,1,71.81,38.9a1.5,1.5,0,0,0,2.59,1.51Z"/><path d="M46.94,35.86c-1.45-4.08-4.38-7.16-7.82-9.68a37.7,37.7,0,0,0-12.07-6.12A18.37,18.37,0,0,0,14.14,21c-3.31,1.64-7.38,5.78-5.59,9.81A3.11,3.11,0,0,0,13.49,32c2.08-1.86,1.27-4.59-.05-6.62-1-1.62-3.64-.12-2.59,1.51.41.63,1.46,2,.75,2.76-.38.41-.46-.39-.46-.81,0-1.82,1.73-3.52,3.13-4.45,3.32-2.22,7.56-2.47,11.36-1.55a34.11,34.11,0,0,1,11,5.31c3.13,2.14,6.09,4.89,7.39,8.56.64,1.8,3.54,1,2.89-.8Z"/><path d="M37.07,95.11a43.39,43.39,0,0,1-.74,4.68c-.43,1.54-1.56,2.41-2.77,3.38a21.4,21.4,0,0,1-9.45,4.64,11.81,11.81,0,0,1-9.53-2.13,8.61,8.61,0,0,1-3.12-7.9c.35-1.89-2.54-2.7-2.89-.8a11.56,11.56,0,0,0,3.36,10.34,14.16,14.16,0,0,0,11.36,3.61A23.18,23.18,0,0,0,35,105.82c1.55-1.2,3.11-2.39,3.87-4.26A25.09,25.09,0,0,0,40,95.91c.31-1.89-2.58-2.7-2.89-.8Z"/><path d="M82.5,82.09c9.12-5.52,20.75-11,30.73-4.16,7.56,5.14,15.17,18.31,5,24.9C113,106.23,106.7,106,101,103.91c-1.82-.65-2.6,2.25-.79,2.89,5.74,2.07,12.18,2.41,17.75-.35,5.37-2.66,8.76-7.69,8.12-13.78-.62-5.91-4.11-11.18-8.46-15.07a22.15,22.15,0,0,0-16.71-5.8c-7.28.56-13.79,4-19.93,7.7-1.65,1-.14,3.6,1.51,2.59Z"/><path d="M81.51,82.86c4.15.82,8.63,1.67,12.71.11a9.77,9.77,0,0,0,6.52-7.35c.62-3.72-1.1-7.42-.36-11.12.32-1.57,1.18-3.1,2.88-3.43a3.26,3.26,0,0,1,3.87,2.87c.19,1.9,3.19,1.92,3,0a6.32,6.32,0,0,0-8.41-5.54C98,59.78,97,64,97.27,67.63c.31,4,1.88,8.63-2,11.43s-8.75,1.74-13,.91c-1.88-.37-2.69,2.52-.79,2.89Z"/><path d="M76.3,80a18.08,18.08,0,0,1,5.19,5.51,11.52,11.52,0,0,1,2.17,7.27c-.3,2.79-2.43,5.11-4.46,6.89a22.49,22.49,0,0,1-6.31,3.83,35.77,35.77,0,0,1-15,2.31,28.54,28.54,0,0,1-8.26-1.38,14.25,14.25,0,0,1-6.46-4.93C39.51,94.66,36.94,87,41.77,82.08c1.35-1.38-.77-3.5-2.12-2.12-5,5.1-4,12.75-.73,18.49a20.73,20.73,0,0,0,6.22,7,20.82,20.82,0,0,0,9.47,3,39.82,39.82,0,0,0,18.22-1.82c5.36-2,11.28-5.82,13.31-11.43,2.39-6.61-3-14.41-8.33-17.88C76.19,76.3,74.68,78.9,76.3,80Z"/><path d="M82.94,150.35c-2.82,2.41-3.62,6.54-4.06,10a52.94,52.94,0,0,0,.27,14,33.48,33.48,0,0,0,4.52,12.86c1.91,3.1,4.51,6.17,8,7.56,4.43,1.78,8.61-.31,11.21-4,1.12-1.58-1.48-3.08-2.59-1.51-1.89,2.68-4.89,4-8,2.53-2.76-1.35-4.79-4-6.31-6.59-4-6.83-4.84-15.17-4.25-22.95.24-3.24.71-7.54,3.36-9.79,1.47-1.26-.66-3.37-2.12-2.13Z"/><path d="M65.37,150.86a21.41,21.41,0,0,1,2.9,6.23,67.93,67.93,0,0,1,2.46,9.42,39.3,39.3,0,0,1-.94,19.76,32.26,32.26,0,0,1-6.47,11.48c-1.27,1.45.85,3.58,2.13,2.13a38.33,38.33,0,0,0,9.11-22.61c.5-6.73-1.06-13.83-3.14-20.21a26.28,26.28,0,0,0-3.93-8.32c-1.2-1.51-3.31.63-2.12,2.12Z"/><path d="M6.16,58.88c-.32,1.72-.56,3.45-.72,5.18-.08.88-.14,1.76-.17,2.65a15,15,0,0,1,0,2.51c0,.18.08,0,0,0a1,1,0,0,1-.29.19c-.26.15-.54.29-.8.45a9.56,9.56,0,0,0-1.75,1.36A10,10,0,0,0,.08,75a1.51,1.51,0,0,0,1.84,1.84A10.15,10.15,0,0,0,7.44,73c1-1.24-.85-2.76-2.05-2A6.88,6.88,0,0,0,2.7,73.82a1.56,1.56,0,0,0,.24,1.82,1.51,1.51,0,0,0,1.82.23A11.8,11.8,0,0,0,8,72.82a2.13,2.13,0,0,0-1.29-3.19c-1.35-.3-2.58.6-3.5,1.48a7.25,7.25,0,0,0-2.07,3.18C.7,76,2.4,76.92,3.87,76.5a5.59,5.59,0,0,0,2.74-1.86,8,8,0,0,0,1.53-6.39,1.5,1.5,0,0,0-1.84-1,1.52,1.52,0,0,0-1,1.84A5,5,0,0,1,4.8,72,3.7,3.7,0,0,1,4,73.1a2.46,2.46,0,0,1-.58.39l-.2.08c-.26.13-.37,0-.07.05l.66.39-.12-.13.44,1.06c0-.35.72-1.2,1-1.53a6,6,0,0,1,.65-.59,2.15,2.15,0,0,0,.37-.24s0,0,0,0a2,2,0,0,1-.77-.53v-.8c-.06.32-.59.71-.85,1a13.16,13.16,0,0,1-1.27,1.08l2.05,2A4.15,4.15,0,0,1,6.9,73.57l-2.05-2a6.91,6.91,0,0,1-3.72,2.42L3,75.79a6.6,6.6,0,0,1,2.16-2.94C6.3,72,7.79,71.59,8.14,70a13.69,13.69,0,0,0,.1-2.48c0-.88.07-1.76.13-2.64a49.93,49.93,0,0,1,.69-5.16A1.54,1.54,0,0,0,8,57.84a1.52,1.52,0,0,0-1.85,1Z"/><path d="M9.46,63.27l3.15.2a15.77,15.77,0,0,1,2.75.19l-.67-.39.14.11-.38-.66c.09.3-.19,1-.24,1.3-.07.48-.14,1-.19,1.45a27.59,27.59,0,0,0-.18,3.15,31,31,0,0,0,.65,6.15l1-1.84a9.53,9.53,0,0,0-7,7,1.52,1.52,0,0,0,2.21,1.69,27.82,27.82,0,0,0,4.76-3,2.07,2.07,0,0,0-1-3.9c-1.6,0-3.38,1.88-2.81,3.47.74,2.07,3.79,1,3.21-1.08a1.52,1.52,0,0,0-1.45-1.1h-.09a1.5,1.5,0,0,0,0,3h.09L12,78l0,.08v-.8l0-.14.54-.54-.11,0H14l-.11,0,.54.54-.09-.19.2.76,0-.22-.21.76a.85.85,0,0,1,.17-.31c.41-.34.16-.47-.75-.4l-.2-.75V77l.21-.75a3.14,3.14,0,0,1-.89.68c-.4.28-.82.56-1.24.82a27.88,27.88,0,0,1-2.46,1.35l2.21,1.69a6.53,6.53,0,0,1,4.94-4.94,1.53,1.53,0,0,0,1-1.84,26.52,26.52,0,0,1-.1-10.2c.16-.87.37-1.81-.33-2.52A2.72,2.72,0,0,0,15,60.62c-1.85-.13-3.7-.23-5.56-.35s-1.92,2.88,0,3Z"/></g></g></svg>