<svg xmlns="http://www.w3.org/2000/svg" viewBox="0 0 117.05 205.44"><defs><style>.cls-1{fill:#ffe45f;}.cls-2{fill:#ffbc27;}</style></defs><g id="Layer_2" data-name="Layer 2"><g id="Layer_1-2" data-name="Layer 1"><path class="cls-1" d="M38.22,126.83c10.12,5.51,19.93,6.59,31.31,4.78a28,28,0,0,0,10.8-3.68,15,15,0,0,0,6.17-7.47c0-.52.11-1,.15-1.56.17-2.21-.56-6.07-.89-8.25a17.36,17.36,0,0,0-6.28-10.87,1.07,1.07,0,0,0-.54-.27c-.38,0-.66.35-.89.66-1.5,2.07-4.08,3-6.51,3.8-4,1.34-8.1,2.69-12.32,2.76-6.42.1-12.5-2.75-18.09-5.92l-.73,0a26.18,26.18,0,0,0-11.67,13.84C29.28,118.27,32.59,123.77,38.22,126.83Z"/><path d="M37.46,128.13a47.27,47.27,0,0,0,15.95,5.34,56.43,56.43,0,0,0,17-.48c5.5-.92,11.21-3,14.87-7.39a15.55,15.55,0,0,0,2-3.11,9.46,9.46,0,0,0,.9-3.88,36.73,36.73,0,0,0-.77-7.15,22.33,22.33,0,0,0-2.19-7.08,16.29,16.29,0,0,0-5-5.89,2.22,2.22,0,0,0-2.86.16c-.43.39-.72.92-1.13,1.32a7.22,7.22,0,0,1-1.7,1.19A39.83,39.83,0,0,1,66.42,104a26.37,26.37,0,0,1-9.21,1.15A28.06,28.06,0,0,1,48.79,103c-1.41-.58-2.78-1.25-4.13-2-1.09-.56-2.37-1.62-3.6-1.71a4.53,4.53,0,0,0-2.75,1,26.41,26.41,0,0,0-3.07,2.3,27.14,27.14,0,0,0-5.51,6.61,30.78,30.78,0,0,0-2,4,4.19,4.19,0,0,0-.1,3.31,20.94,20.94,0,0,0,9.84,11.63c1.69.94,3.21-1.65,1.52-2.59a18.27,18.27,0,0,1-8.21-9.07,5.22,5.22,0,0,1-.56-2c-.08.56.28-.22.33-.33s.21-.47.32-.71c.27-.58.57-1.16.88-1.73a25.56,25.56,0,0,1,4.09-5.56A21.67,21.67,0,0,1,38.25,104c.4-.31.83-.61,1.25-.89l.65-.41c.2-.12,1.05-.55.33-.38a1.75,1.75,0,0,1,.4,0c.38.11-.24-.29.08.12a6.67,6.67,0,0,0,1.78,1c1.2.64,2.41,1.24,3.65,1.79,4.86,2.16,10,3.52,15.39,2.85a43.88,43.88,0,0,0,7.92-1.88,31.73,31.73,0,0,0,6.87-2.69A9.52,9.52,0,0,0,79,101.38l.11-.15c.42-.4.28-.45-.39-.14,0,0,.63.55.58.51a18,18,0,0,1,1.36,1.4,15.7,15.7,0,0,1,3.25,6.14,44.71,44.71,0,0,1,1,6.19c.26,2.09.48,4.26-.54,6.17-2.46,4.6-7.36,6.94-12.24,8.08a47.07,47.07,0,0,1-33.2-4C37.28,124.62,35.76,127.21,37.46,128.13Z"/><path class="cls-1" d="M28.55,137.66l.15.28c-.07-.16-.16-.32-.23-.48C28.5,137.52,28.52,137.59,28.55,137.66Z"/><path d="M27.26,138.41c0,.1.1.19.15.29a1.18,1.18,0,0,0,.38.42,1.26,1.26,0,0,0,.51.27,1.11,1.11,0,0,0,.6,0,1,1,0,0,0,.56-.17l.3-.24a1.49,1.49,0,0,0,.39-.66l.05-.4a1.57,1.57,0,0,0-.2-.76c-.08-.16-.16-.31-.24-.48a1.18,1.18,0,0,0-.38-.42,1.26,1.26,0,0,0-.51-.27,1.73,1.73,0,0,0-1.16.16l-.3.23a1.49,1.49,0,0,0-.39.66l-.05.4a1.57,1.57,0,0,0,.2.76v0l-.15-.36c.08.18.15.36.23.53a1,1,0,0,0,.38.42,1.06,1.06,0,0,0,.51.27,1.22,1.22,0,0,0,.6,0,1.12,1.12,0,0,0,.56-.18l.3-.23a1.47,1.47,0,0,0,.39-.67l.05-.39a1.51,1.51,0,0,0-.2-.76l0-.05.15.36c-.07-.17-.14-.34-.22-.51l-2.59,1.52.24.48L30,137.18a2.49,2.49,0,0,1-.15-.28,1.13,1.13,0,0,0-.39-.42,1.05,1.05,0,0,0-.51-.27,1.22,1.22,0,0,0-.6,0,1.16,1.16,0,0,0-.56.18l-.3.23a1.54,1.54,0,0,0-.38.67l-.06.4A1.42,1.42,0,0,0,27.26,138.41Z"/><path class="cls-1" d="M37.94,147.94c5.53,3.81,12.6,6.64,19.3,6.17a29,29,0,0,0,17.92-8.52,36.7,36.7,0,0,0,8-12,31.68,31.68,0,0,1-19.43,9.25c-7.6.85-14.06.14-18.54-1.31-3.38-1.09-9.61-3.35-13.15-7.4a35.48,35.48,0,0,1-5.43-7.66,13.59,13.59,0,0,0,.06,4.5,42.43,42.43,0,0,0,1.76,6.45c.07.16.16.32.23.48,1.36,2.69,3.75,4.86,5.79,7.08A20.92,20.92,0,0,0,37.94,147.94Z"/><path d="M37.18,149.23c6.15,4.19,13.72,7.16,21.27,6.26a31.17,31.17,0,0,0,19-10.1,39,39,0,0,0,7-11c.62-1.45-1.07-3.15-2.35-1.82-6.2,6.44-14.77,9-23.51,9.16a39.19,39.19,0,0,1-21.25-5.19A25.88,25.88,0,0,1,28,125.75c-.71-1.45-2.69-.58-2.8.76a19.81,19.81,0,0,0-.11,3.61,26.07,26.07,0,0,0,.66,3.16,21.16,21.16,0,0,0,2,6,27.25,27.25,0,0,0,4.16,5.18,35.69,35.69,0,0,0,5.32,4.81c1.59,1.11,3.09-1.49,1.52-2.59a31.33,31.33,0,0,1-4.58-4.19,25.13,25.13,0,0,1-3.83-4.72,18.49,18.49,0,0,1-1.66-5c-.2-.91-.49-1.83-.6-2.76a17.69,17.69,0,0,1,.12-3.41l-2.79.76a30.6,30.6,0,0,0,4.07,6.08A25.2,25.2,0,0,0,34.17,138a37.11,37.11,0,0,0,10.43,4.93,41.1,41.1,0,0,0,12.27,1.8,44,44,0,0,0,14.33-2,32,32,0,0,0,13.06-8.09l-2.36-1.81c-3.47,8.1-9.72,15.25-18.17,18.3a23,23,0,0,1-12.7,1,34.8,34.8,0,0,1-12.33-5.51C37.1,145.55,35.6,148.15,37.18,149.23Z"/><path d="M45.23,141.57c4.48,1.45,10.94,2.16,18.54,1.31a31.68,31.68,0,0,0,19.43-9.25,46.64,46.64,0,0,0,3.3-13.17,15,15,0,0,1-6.17,7.47,28,28,0,0,1-10.8,3.68c-11.38,1.81-21.19.73-31.31-4.78-5.63-3.06-8.94-8.56-9.49-12.16a30.36,30.36,0,0,0-2,10.65c0,.4,0,.8-.06,1.19a35.48,35.48,0,0,0,5.43,7.66C35.62,138.22,41.85,140.48,45.23,141.57Z"/><path d="M44.83,143a46.3,46.3,0,0,0,21.32,1,35,35,0,0,0,10.19-3.42,30.85,30.85,0,0,0,4.51-2.89c1.3-1,3.08-2.2,3.79-3.7A43.19,43.19,0,0,0,88,120.46c.2-1.78-2.41-1.87-3-.39-3.32,9.08-15.26,10.59-23.58,10.83a44.21,44.21,0,0,1-13.1-1.52c-4.19-1.16-8.75-2.89-12.16-5.68-2.87-2.35-5.41-5.69-6-9.43-.27-1.6-2.44-1.23-2.9,0a33.85,33.85,0,0,0-2.07,11,4.33,4.33,0,0,0,.33,2.33A21,21,0,0,0,27,130.07a48.08,48.08,0,0,0,3.28,4.25c3.81,4.48,9.08,6.92,14.59,8.7,1.84.59,2.63-2.3.79-2.9-4.76-1.54-9.53-3.6-12.86-7.46a46.27,46.27,0,0,1-3-3.74c-.45-.66-.89-1.34-1.28-2a2.77,2.77,0,0,1-.31-1.8,30.41,30.41,0,0,1,2-10h-2.9c.61,3.66,2.94,7.09,5.56,9.63,3.53,3.43,8.31,5.53,12.94,7a46.28,46.28,0,0,0,14.64,2.18A50.38,50.38,0,0,0,76,131.63c5.34-1.83,10-5.34,12-10.77l-2.94-.4a49.53,49.53,0,0,1-1.36,7.25c-.31,1.16-.67,2.31-1.07,3.44a8,8,0,0,1-.65,1.67,6.33,6.33,0,0,1-.91.88,28.8,28.8,0,0,1-10.61,6.19,41.45,41.45,0,0,1-13.1,1.86,38.84,38.84,0,0,1-11.68-1.63C43.78,139.54,43,142.44,44.83,143Z"/><path class="cls-2" d="M81.21,76.65a3.6,3.6,0,0,0-1.52-.47,4.62,4.62,0,0,0-1.78.44c-7.84,3.16-15,7.26-23.44,7.19-3.64,0-6.94-1.85-10.54-1.32,0,0-4.57,9.34-3.8,13.15a12,12,0,0,0,7.14,8.61c2.81,1.13,6.25,2.92,9.27,2.91,2.21,0,4.27-.06,6.47-.07s4.16-1.72,6.31-2.08a20.56,20.56,0,0,0,16.42-16.2C86.56,84.25,85.31,78.81,81.21,76.65Z"/><path class="cls-1" d="M88.39,47.85A21,21,0,0,0,80.5,34.69C76.34,31.51,71,27.47,65.8,28c-4.75-.49-10.39.88-15,2.62A39.5,39.5,0,0,0,35.18,41.17a30.45,30.45,0,0,0-7.63,17.12c-.66,7.26,2,15,7.66,19.56a22.93,22.93,0,0,0,7.24,3.76,38.64,38.64,0,0,0,12.38,1.65,41.93,41.93,0,0,0,17.91-3.9A27.33,27.33,0,0,0,85.65,66.64a33.63,33.63,0,0,0,2.48-8.83A31.42,31.42,0,0,0,88.39,47.85Z"/><path d="M89.83,47.45c-1.06-6.15-4.6-11.05-9.5-14.76a38.06,38.06,0,0,0-8-5,21.41,21.41,0,0,0-8.51-1.29c-6.41,0-13,2.17-18.62,5.14A38,38,0,0,0,31.23,43.86c-6.59,9.87-7.59,24,.87,33.13,4.5,4.88,11.18,7,17.62,7.57A46.31,46.31,0,0,0,70,82.13a30.64,30.64,0,0,0,15.54-12.2,29.6,29.6,0,0,0,3.76-10.36,36,36,0,0,0,.49-12.12c-.29-1.9-3.18-1.09-2.89.8a31.25,31.25,0,0,1-.41,10.07,29.77,29.77,0,0,1-2.68,8.6A26.11,26.11,0,0,1,72.67,77.71a39.61,39.61,0,0,1-17.84,4.05c-6.14.07-12.66-.86-17.82-4.44C27.89,71,27.21,58,31.83,48.78,37,38.41,47.89,31.87,59.08,29.85a26,26,0,0,1,4.9-.43,23.94,23.94,0,0,1,4.48.21c3.1.6,5.86,2.39,8.39,4.19A27.22,27.22,0,0,1,83.54,40a20.31,20.31,0,0,1,3.4,8.28C87.27,50.15,90.16,49.35,89.83,47.45Z"/><path d="M44.71,60c.17,1.21,1.48,2,2.53,2.29a5.71,5.71,0,0,0,3.63-.13,6.39,6.39,0,0,0,3.9-5.49,1.51,1.51,0,0,0-1.5-1.5,1.54,1.54,0,0,0-1.5,1.5c0,.39.07-.31,0,.07,0,.1,0,.2-.07.3s-.13.43-.21.64c.08-.2,0-.09,0,0l-.15.29-.31.5c-.14.2,0,0,.06-.08s-.13.15-.17.2-.21.21-.32.31l-.11.09q-.12.1.12-.09a1.67,1.67,0,0,0-.2.13c-.1.07-.41.16-.48.26.07-.08.28-.1,0,0l-.26.09-.33.08s-.37,0-.14,0h-.68c.22,0-.1,0-.15,0s-.39-.11-.59-.17.27.14,0,0l-.26-.14c-.22-.14.16.17.06,0a.71.71,0,0,0-.15-.15q.21.28.12.15c-.06-.1,0,0,.07.19a1.77,1.77,0,0,0,0-.2,1.5,1.5,0,1,0-2.9.8Z"/><path d="M61.41,54.22a3.06,3.06,0,0,0,2.17,2,5.61,5.61,0,0,0,3,.16c1.93-.4,3.79-2.12,3.73-4.19a3.33,3.33,0,0,0-2-3,1.73,1.73,0,0,0-1.16-.15,1.56,1.56,0,0,0-.9.69,1.51,1.51,0,0,0,.54,2.05,2,2,0,0,1,.32.17l.15.09c-.2-.16-.24-.18-.12-.09s.26.3.09.08,0,0,0,.08c.13.21-.13-.39,0,0,0,.17,0,.37,0-.07,0,.07,0,.14,0,.2v.14c0,.16,0,.09,0-.2a2,2,0,0,1-.06.26c0,.13-.15.28.06-.1-.09.16-.2.32-.28.49.17-.35.15-.19,0-.08a1.52,1.52,0,0,1-.22.22l-.12.11c-.11.1-.08.07.12-.09a2.07,2.07,0,0,0-.24.17l-.27.14-.16.07c.22-.09.26-.1.11,0l-.62.17c-.25.06.41,0,0,0h-.58l-.17,0,.15,0c-.17-.05-.36-.07-.54-.12l-.28-.1c.44.14.16.07,0,0l-.17-.1.16.12-.09-.09c-.17-.15.23.37.07.08s.13.43.07.11a1.52,1.52,0,0,0-1.85-1.05,1.55,1.55,0,0,0-1.05,1.85Z"/><path d="M61.09,62.9a1,1,0,0,1,.1-.17c-.15.18-.17.21-.06.1-.18.14-.21.17-.08.09s.11-.06-.11,0a1.56,1.56,0,0,0,.34-.09c-.25,0-.3,0-.14,0h.38c.33,0-.24-.09,0,0-.19-.09-.21-.1-.07,0s.12.08,0,0-.14-.19-.05-.05a.67.67,0,0,1-.1-.23.34.34,0,0,1,0-.2c0,.17,0,.18,0,0a3.28,3.28,0,0,1-.24.45c-.08.14-.17.28-.26.41l-.15.2.05-.06c-.21.23-.41.46-.64.67,0,0-.46.37-.17.16-.14.09-.27.19-.41.27a1.51,1.51,0,0,0,1.16,2.75c.33-.09.67-.18,1-.24-.28,0,.27,0,.33,0s.47,0,.19,0a1.14,1.14,0,0,1,.25.06c.16,0,.14,0,0,0,.06,0,.26.14.29.17-.34-.39.18.23,0,0s-.07-.09,0,0,.08.13,0-.07c.08,0,.07.36,0,0,0,.16,0,.14,0-.06-.06.16,0,.15,0,0a3.53,3.53,0,0,1-.21.32c.2-.27-.11.12-.16.17a3.07,3.07,0,0,1-.26.25c.26-.24-.09.07-.18.08l.15-.06c-.17,0-.15,0,.07,0-.17,0-.15,0,0,0l-.24-.07a1.49,1.49,0,0,0-1.84,1,1.53,1.53,0,0,0,1,1.85,3.17,3.17,0,0,0,3.24-.91,3.55,3.55,0,0,0,1.24-3.23,3.39,3.39,0,0,0-2.21-2.34,6,6,0,0,0-3.54.14L61,67.1a8.32,8.32,0,0,0,2.33-2.21c.73-1,1.36-2.45.63-3.65a3.32,3.32,0,0,0-5.46.14,1.5,1.5,0,0,0,2.59,1.52Z"/><path d="M39.34,42.31c-5-5.13-5.89-12.73-5.28-19.55.66-7.34,3.67-15.14,10.63-18.6,1.4-.7,3.61-1.63,5.18-1a1,1,0,0,1,.72,1.26c-.16.47-.35,0,.23,0,1.93.16,1.92-2.84,0-3a3.12,3.12,0,0,0-2.76,5,3,3,0,0,0,5.19-.61A4,4,0,0,0,51.17.48c-2.3-1-5-.25-7.14.7C33.61,5.69,30.25,18.47,31,28.86c.4,5.72,2.19,11.38,6.24,15.57,1.35,1.39,3.47-.73,2.12-2.12Z"/><path d="M65.67,33.18c.35-4,2.64-7.42,5.21-10.33a34.39,34.39,0,0,1,9-7.61c3.55-1.92,8-2.82,11.87-1.27,1.48.59,3.37,1.76,3.79,3.42.1.4.21,1.17-.26.88-.87-.54-.19-2.18,0-2.87.62-1.84-2.28-2.63-2.89-.8s-.92,4.29.76,5.82A3.18,3.18,0,0,0,98.05,20c2.44-3.76-2.17-7.64-5.26-8.87-9-3.56-17.85,2.78-23.62,9.11-3.33,3.66-6.05,7.88-6.5,12.91-.17,1.92,2.83,1.91,3,0Z"/><path d="M84,84.33c2.18,3.56,6.38,5.19,10.2,6.35a22.46,22.46,0,0,0,12.76.5,14.17,14.17,0,0,0,8.77-6.78,11.62,11.62,0,0,0-.12-11.15A1.5,1.5,0,0,0,113,74.77a8.58,8.58,0,0,1-.14,8.6,11.61,11.61,0,0,1-7.46,5.12A20,20,0,0,1,95,87.79c-3-.92-6.67-2.14-8.41-5-1-1.64-3.61-.14-2.59,1.51Z"/><path d="M40.6,83.92c-6.22-1.86-12.75-3.51-19.28-2.75a22.21,22.21,0,0,0-15.23,8.1C2.42,93.89-.26,99.94,0,105.94A14.73,14.73,0,0,0,2.5,113.8a13.73,13.73,0,0,0,6.65,4.78c6.71,2.43,13.94.48,19.67-3.42,1.59-1.08.09-3.68-1.51-2.59-4.42,3-9.82,5-15.18,3.75a12.27,12.27,0,0,1-6.56-3.46,10.78,10.78,0,0,1-2.51-6.35C2.63,101.23,4.84,95.92,8,91.75a19.16,19.16,0,0,1,12.94-7.53c6.4-.92,12.82.77,18.91,2.59,1.85.56,2.64-2.33.8-2.89Z"/><path d="M38.9,87.17c-2,3.67-4.39,8-8.72,9.27s-6.95-2-9.61-4.9S13.9,86,10,88A6.31,6.31,0,0,0,8.51,98c1.34,1.4,3.46-.72,2.12-2.12a3.26,3.26,0,0,1,0-4.68c1.37-1.3,3.27-1,4.78-.12,3.26,1.88,5,5.58,8.23,7.49a10,10,0,0,0,10.49-.69c3.37-2.21,5.44-5.75,7.36-9.19a1.5,1.5,0,0,0-2.59-1.51Z"/><path d="M43.14,81.05c-3.77,4.11-6.4,10.89-4.92,16.44,1.63,6.14,9,9.38,14.67,10.37a38.11,38.11,0,0,0,18.25-1.65,27.82,27.82,0,0,0,8.9-4.43,18.11,18.11,0,0,0,5.41-8c2.47-6.77,2.1-15.61-4.7-19.7a1.5,1.5,0,0,0-1.52,2.59c5.16,3.09,5.33,9.78,3.78,14.94a16.36,16.36,0,0,1-4.14,7.26,20.16,20.16,0,0,1-7.41,4.11A37.88,37.88,0,0,1,56,105.25a23.72,23.72,0,0,1-7.42-1.75,15,15,0,0,1-6.4-4.56c-1.74-2.44-1.55-5.66-.76-8.41a18.4,18.4,0,0,1,3.87-7.35c1.31-1.42-.81-3.55-2.12-2.13Z"/><path d="M54.91,155.6a9.67,9.67,0,0,1,4,4.52,36.42,36.42,0,0,1,2.81,7.79c1.51,5.85,2.29,12,1,18a22.71,22.71,0,0,1-2.71,7,12.56,12.56,0,0,1-1.81,2.3,3.88,3.88,0,0,0-1.18,1.77c-.74,2.68,1.86,5.27,3.71,6.8.75.61,1.89,1.72,3,1.71a1.55,1.55,0,0,0,1.51-1.93,3.12,3.12,0,0,0-1-1.35c-1.44-1.27-3.57.84-2.12,2.13a4.86,4.86,0,0,0,.41.38.86.86,0,0,1,.13.14,1.25,1.25,0,0,1-.33-.88l.44-1.06c-.42.48,1.28-.72,1.61-.28,0,0-.13-.05-.18-.09a2.3,2.3,0,0,0-.37-.23,10,10,0,0,1-1-.72,12.08,12.08,0,0,1-2.27-2.36,3.35,3.35,0,0,1-.56-1.07c-.11-.37-.11-.35.06-.58s1-1,1.42-1.51a17.5,17.5,0,0,0,1.7-2.56c4.83-8.95,3.69-19.95.69-29.28-1.29-4-3.25-9.2-7.32-11.18-1.73-.84-3.25,1.75-1.51,2.59Z"/><path d="M70.82,148c-1.06,2.51.66,5.57,1.91,7.68,2,3.33,4.37,6.38,6.57,9.55,1.88,2.72,4.27,5.84,4.79,9.19.58,3.73-.94,7.57-1.61,11.19-.79,4.23-.55,8.37,3.26,11,1.59,1.1,3.09-1.5,1.52-2.59-2.86-2-2.33-5.59-1.71-8.56.75-3.59,2-7.27,1.56-11-.38-3.38-2.29-6.43-4.13-9.21-2-3.07-4.31-6-6.35-9.07a26.91,26.91,0,0,1-2.6-4.54,3.75,3.75,0,0,1-.31-2.9,1.51,1.51,0,0,0-1-1.85A1.55,1.55,0,0,0,70.82,148Z"/><path d="M103.58,46.44c-1.34,3.32-2.67,6.64-4,10-.21.5-.1.39-.68.41a8.11,8.11,0,0,0-6.11,2.9,1.53,1.53,0,0,0,.3,2.36,6.25,6.25,0,0,0,7.77-2.13,1.5,1.5,0,1,0-2.59-1.51,3.19,3.19,0,0,1-3.66,1l.3,2.35a5.48,5.48,0,0,1,3.44-2,9.17,9.17,0,0,0,2.21-.28,3.2,3.2,0,0,0,1.74-1.93c1.43-3.45,2.81-6.92,4.22-10.38a1.51,1.51,0,0,0-1-1.84,1.54,1.54,0,0,0-1.85,1Z"/><path d="M104.05,47.51a5.2,5.2,0,0,0,.27,3.56,5.63,5.63,0,0,0,1,1.41c.16.18.33.34.49.52l.27.28s.22.28.11.13l.14.21s.19.35.1.17.06.17.06.17a2.33,2.33,0,0,1,.07.25s.06.39,0,.18,0,.14,0,.18a1.13,1.13,0,0,1,0,.26s0,.39,0,.18,0,.14,0,.18,0,.2-.08.31-.15.33,0,.06l-.12.23-.16.27c-.12.18.22-.23,0,0l-.17.19s-.35.28-.09.09a1.54,1.54,0,0,0-.54,2,1.51,1.51,0,0,0,2,.54,5.31,5.31,0,0,0,2-5.81,7.39,7.39,0,0,0-1.9-2.75s-.28-.35-.16-.19a2.26,2.26,0,0,1-.16-.26s-.19-.41-.11-.2a2.47,2.47,0,0,1-.11-.36s-.07-.38,0-.13a2.54,2.54,0,0,1,0-.39c0-.08,0-.35,0-.13a3.63,3.63,0,0,1,.1-.45,1.5,1.5,0,1,0-2.89-.8Z"/></g></g></svg>