<svg xmlns="http://www.w3.org/2000/svg" viewBox="0 0 106.72 161.11"><defs><style>.cls-1{fill:#90b550;}.cls-2{fill:#fec23a;}.cls-3{fill:#ffd550;}.cls-4{fill:#f89e54;}</style></defs><title>Asset 18</title><g id="Layer_2" data-name="Layer 2"><g id="Layer_1-2" data-name="Layer 1"><path class="cls-1" d="M50.06,52.71c-1.75,35.45-3.2,71.85,8.65,105.87l4.82-1.32A51,51,0,0,1,65,115.44c5.63-11.52,16.64-24.58,29.46-28.13,2.26-.63,4.21-1.44,5.88.27,1.46,1.5,1,3.39.88,5.37a56.64,56.64,0,0,1-1.79,11.29,74.33,74.33,0,0,1-8.79,20.11c-7.68,12.46-18.27,22.74-29,32.54-2.38,2.18,1.17,5.7,3.54,3.54,13.37-12.2,26.6-25.39,34.36-42,3.54-7.57,15.11-38.1-1.75-36.8-15.14,1.16-28.73,16.08-35.65,28.53-8.23,14.79-9.91,32.67-3.44,48.42,1.19,2.9,5.9,1.78,4.82-1.32-11.71-33.63-10.2-69.53-8.47-104.55.16-3.22-4.84-3.21-5,0Z"/><path class="cls-1" d="M48,90.24v0c.17.19.35.37.51.56Z"/><path class="cls-1" d="M45.58,90.91a4.16,4.16,0,0,0,1.17,1.67,2.5,2.5,0,0,0,3.53,0,2.54,2.54,0,0,0,0-3.53l-.52-.58a2.51,2.51,0,0,0-3.53,0,2.55,2.55,0,0,0,0,3.54l.52.57,3.53-3.53-.51-.56.64,1.11v0a2.5,2.5,0,0,0-4.83,1.33Z"/><path class="cls-1" d="M48,90.26C38.25,79.57,25.11,71,10.67,70.8A9.41,9.41,0,0,0,5.2,72c-3,2-3.09,6.45-2.09,9.93,2.28,7.85,8.41,14,14.73,19.15,5.61,4.6,11.64,8.83,18.44,11.38,4,1.51,9.38,2,12-1.41,1.22-1.63,1.47-3.78,1.56-5.82A47.37,47.37,0,0,0,48,90.26Z"/><path class="cls-1" d="M49.77,88.49c-9.49-10.19-21.7-18.69-35.91-20-5.36-.51-11.41.07-13.3,6C-1.27,80.19,1.73,86.72,5,91.34c3.82,5.5,9,9.94,14.24,14,5.57,4.28,12,8.73,19,10.3,4.9,1.11,10.58.37,13-4.63,2.93-6.09.9-15.27-.74-21.41-.83-3.11-5.65-1.79-4.82,1.33,1.31,4.91,3.75,13.7.5,18.15s-10.77.52-14.62-1.56c-8.19-4.44-16.82-11-22.21-18.7C7.35,86.07,2.8,78.58,5.63,75.2c3.33-4,12-1.35,16.06,0,9.64,3.1,17.73,9.55,24.54,16.87C48.43,94.39,52,90.85,49.77,88.49Z"/><path class="cls-2" d="M84.18,44.62c-1.92-2.39-4.41-4.35-6.16-6.86s-2.63-5.91-1-8.49c1.25-2,3.67-3,5.13-4.87,3.51-4.47-.44-11.13-5.69-13.61C69.7,7.59,61,9,55.36,13.62A25.5,25.5,0,0,0,43.28,3.54C40.83,2.56,38,2,35.53,2.89A11.69,11.69,0,0,0,30.9,6.66C28,10.13,25.42,14,24.46,18.36s-.08,9.24,3.16,12.44a6.2,6.2,0,0,1,1.86,2.34c.63,2.06-1.64,3.74-3.3,5.19A12.57,12.57,0,0,0,22,49.89,12.1,12.1,0,0,0,30.39,59c6.35,1.85,13-1.62,18.22-5.53,1.6-1.2,3.58-2.53,5.49-1.85,1.31.47,2.06,1.74,2.78,2.87,4,6.33,4.62,8.17,12.08,10.3,2.75.79,5.86,1.19,8.38-.12C79.68,63.47,81,61,81.7,58.56,83.32,52.8,88,49.36,84.18,44.62Z"/><path class="cls-3" d="M71.69,35c13,1.49,19.7-14.53,11.43-23.73C73.62.66,58.18,6.13,52.21,17.42l4.57.6C55,13,53,7.7,49,3.94,43.94-.83,36.69-1,30.68,2.09,18,8.72,14.93,27.85,28.55,35.23l.6-4.57C16.24,32.68,10.64,49.05,20.7,58c11.11,9.9,26.05,1.49,34.69-7.17l-4.18-1.1C54.92,61.12,69.08,76.56,81.05,65,92.8,53.68,83.45,38.22,73,30.3c-2.57-1.94-5.06,2.4-2.52,4.32,7.55,5.7,15.78,16.91,8,25.89-8.7,10.05-19.7-3.82-22.4-12.09a2.53,2.53,0,0,0-4.18-1.11C45.73,53.45,37.13,59.82,28,56.55c-11.36-4-8.69-19.32,2.52-21.07,2.16-.34,2.37-3.61.6-4.57-11.1-6-6.76-22,4.24-25.36,9.62-2.95,14,6.31,16.64,13.8.67,1.9,3.5,2.61,4.57.59C60.37,12.69,69.25,7.36,77,12.5c8,5.31,5.34,18.69-5.31,17.46C68.5,29.59,68.53,34.59,71.69,35Z"/><path class="cls-4" d="M57.32,31.29l.08-2.1a2.56,2.56,0,0,0-2.5-2.5c-5-.42-10.93.37-12.39,6.07A10.61,10.61,0,0,0,49,45a9.44,9.44,0,0,0,11.58-4.62c2.15-4.6-.51-9.8-5.05-11.5-3-1.13-4.32,3.7-1.33,4.82a3.49,3.49,0,0,1,1.35,5.37,4.51,4.51,0,0,1-5.92.67c-1.95-1.36-3.17-4.48-1.81-6.6s4.94-1.63,7.13-1.45l-2.5-2.5-.08,2.1C52.2,34.5,57.2,34.5,57.32,31.29Z"/><path class="cls-1" d="M97.44,88.82a6.43,6.43,0,0,0-3.14.08c-12,2.45-22.89,11.28-28.58,23.26a49.83,49.83,0,0,0-1.08,39.21l.8,2.72c1.86,1.93,4.88.4,6.92-1.29,15.47-12.83,26-32.71,28.56-53.9C101.4,95,100.89,89.84,97.44,88.82Z"/><path class="cls-1" d="M97.44,86.32c-11.31-1.12-23.42,9-29.61,17.43-7.88,10.78-10.55,24.73-8.48,37.8A64.53,64.53,0,0,0,62.23,152c.38,1.14.51,2.59,1.25,3.57,3.23,4.26,8.93.45,11.79-2a82.32,82.32,0,0,0,22-31,87.59,87.59,0,0,0,6-22.06c.64-4.85.72-11.49-4.52-13.83-2.91-1.3-5.46,3-2.52,4.32,5.22,2.33,1.29,14.26.28,18.23A84.21,84.21,0,0,1,89.69,127a79.13,79.13,0,0,1-10.43,15.5,73,73,0,0,1-6.39,6.53c-1.25,1.12-3,3-4.71,3.33-1.2.26.15,1-.83-.73-2.75-4.86-3.55-12-3.67-17.5a46.33,46.33,0,0,1,4.21-20.74,42,42,0,0,1,11.52-14.7c4.65-3.75,11.83-8,18-7.4C100.64,91.64,100.62,86.63,97.44,86.32Z"/></g></g></svg>