<svg xmlns="http://www.w3.org/2000/svg" viewBox="0 0 90.66 172.02"><defs><style>.cls-1{fill:#427236;}.cls-2{fill:#427136;}.cls-3{fill:#ffd169;}.cls-4{fill:#febd2e;}.cls-5{fill:#da6e27;}</style></defs><title>f-3</title><g id="Layer_2" data-name="Layer 2"><g id="Layer_1-2" data-name="Layer 1"><path class="cls-1" d="M44.22,57.85a297.29,297.29,0,0,0,3.64,60,288.68,288.68,0,0,0,6.43,29.53q2,7.29,4.36,14.47c1.15,3.47,2.15,6.85,4.8,9.47,2.3,2.26,5.83-1.27,3.54-3.54-3.27-3.23-4.22-9.29-5.52-13.56S59,145.73,57.9,141.45q-3.39-13.27-5.52-26.82a290.84,290.84,0,0,1-3.16-56.78c.13-3.22-4.87-3.21-5,0Z"/><path class="cls-2" d="M89.74,86.58c-1-.74-2.49,0-3.55.7-21.7,15-32.08,44.65-24.54,69.95l1,5.72c13.69-22.78,27.8-47,28-73.58A3.26,3.26,0,0,0,89.74,86.58Z"/><path class="cls-2" d="M27.88,96.35C19.51,91.42,10.34,88,1.22,84.68c-1.58,1-1.35,3.31-.84,5.1,2.77,9.73,7.93,19.07,16,25.1s19.48,8.2,28.61,3.87l3.49-2.34C43.86,107.89,36.25,101.27,27.88,96.35Z"/><path class="cls-3" d="M71.55,28.91a14.75,14.75,0,0,0-8.31-.84,20,20,0,0,0,2.6-13.39C64.71,8.47,59.48,2.92,53.18,2.44c-4.9-.37-9.6,2.18-13.34,5.38-4.08,3.49-7.55,8.15-8.07,13.5s2.7,11.27,8,12.4l4.55,5.52a15.46,15.46,0,0,0,6.27-.61L48.14,43a5.34,5.34,0,0,0-.25,1.85,9.41,9.41,0,0,0-2.62-1.29l-2.42,2.13c.77-4-.28-8.36-3.57-10.75l1.58,2.78a19.73,19.73,0,0,0-16.57-9.85A19.74,19.74,0,0,0,7.42,37.16c-2.45,4-3.3,9.31-1.13,13.51,2.93,5.7,10.19,7.65,16.61,7.55a32.17,32.17,0,0,0,6.83-.8c-3.8,5.08-3.85,13,.55,17.73,5.3,5.71,15.72,5.32,20.58-.77,3.44-4.31,4-10.26,3.46-15.75a28.63,28.63,0,0,0-1.1-5.71,22.18,22.18,0,0,0,8.14,4.75c7.39,2.14,16.07-2.32,18.65-9.58A15.85,15.85,0,0,0,71.55,28.91Z"/><path class="cls-4" d="M72.21,26.5a18.83,18.83,0,0,0-9-.93l2.16,3.76c4.7-9,4.44-20.67-4.76-26.79s-20-.31-26.19,7.19c-5.68,6.85-7.86,17.79,0,24.1,1.11.89,2.93,1.32,3.78,2,1.11.82,2,2.49,2.93,3.56,2.72,3.3,6,2.71,10.08,1.69L48.4,37.36c-1.47,2.63-2.61,4.45-3,7.45l3.76-2.16a21,21,0,0,0-3.21-1.54,2.47,2.47,0,0,0-2.43.64l-2.43,2.13,4.18,2.43c.71-5.05-.18-9.75-4.21-13.18-2.09-1.78-5.4.45-3.93,3L38.7,39,43,36.42c-8.49-13.75-29.09-15-37.76-.52-3.89,6.46-3.72,15,2.2,20.13,6.15,5.33,15.42,5.32,22.94,3.8l-2.82-3.67C20.26,67.09,27,82.09,40.74,81.67c15.31-.46,18.19-17.41,14.89-29.41l-4.18,2.43c8.82,7.25,21.51,8.59,28.82-1.77,6.29-8.91,2.06-21.6-7.46-26.17-2.89-1.38-5.43,2.93-2.53,4.32,6.58,3.15,10.41,11.51,6.42,18.2-5,8.43-15,7.38-21.71,1.88-1.83-1.5-4.89-.14-4.18,2.44,2.25,8.2,2,21.17-8.59,22.91S26.34,67,31.89,58.68c1.31-2-.84-4.07-2.82-3.67-5.28,1.07-11.48,1.26-16.36-1.42-6.53-3.6-6.21-11.71-1.85-17C18.53,27.31,32.57,29,38.7,39c1.69,2.73,5.92.28,4.32-2.53l-1.58-2.78-3.93,3A8.57,8.57,0,0,1,40.43,45c-.34,2.43,2.18,4.19,4.18,2.43L47,45.28l-2.43.65,2,1c1.8,1.06,3.53-.37,3.76-2.16s1.44-3.34,2.32-4.92a2.52,2.52,0,0,0-2.82-3.67c-.5.12-5,.69-4,1.12-.55-.23-1.18-1.43-1.56-1.89A26.73,26.73,0,0,0,41.55,32c-2.73-2.34-5.23-2-6.71-6-1.27-3.47-.41-7.15,1.41-10.24,3.47-5.93,11.6-12.7,18.89-10.4,9.33,2.93,9.77,14.1,5.94,21.45-.77,1.49.15,4,2.16,3.76a15.89,15.89,0,0,1,7.64.75C73.92,32.38,75.23,27.56,72.21,26.5Z"/><path class="cls-5" d="M44.36,37.07a6.53,6.53,0,0,0-5.61,7.77c.72,4.07,5.09,5.93,8.85,5.09,3.93-.88,7-5.06,5.87-9.11a5.65,5.65,0,0,0-9.17-2.59C42,40.43,45.49,44,47.84,41.77c.38-.37.94.48.82,1.17A2.92,2.92,0,0,1,46,45.15c-.93.1-2.15-.22-2.36-1.25-.09-.43.15-1.75.72-1.83a2.57,2.57,0,0,0,2.5-2.5,2.52,2.52,0,0,0-2.5-2.5Z"/></g></g></svg>