<svg xmlns="http://www.w3.org/2000/svg" viewBox="0 0 86.9 149.35"><defs><style>.cls-1{fill:#90b550;}.cls-2{fill:#7eaa40;}.cls-3{fill:#fc6;}.cls-4{fill:#ffd550;}.cls-5{fill:#fdb615;}</style></defs><title>Assetf-4 16</title><g id="Layer_2" data-name="Layer 2"><g id="Layer_1-2" data-name="Layer 1"><path class="cls-1" d="M45.46,48c-1.59,32.15-2.89,65.13,7.84,96l4.82-1.33C53.25,130.77,54,119.9,58.06,108c3.4-9.85,8.48-22.08,19.91-24.68,6.5-1.48,2.69,12.62,1.8,15.94A66.66,66.66,0,0,1,72.52,116c-5.39,9-11.08,17.94-16.88,26.68-1.79,2.69,2.54,5.2,4.31,2.53,3.65-5.49,7-11.12,10.52-16.7,4.06-6.49,8.36-12.71,11.31-19.81,2.78-6.7,11.47-32-3.06-30.58-12.35,1.18-20.48,14-24.16,24.59-2.17,6.22-4.52,12.34-5,19A49,49,0,0,0,53.3,144c1.19,2.89,5.9,1.77,4.82-1.33C47.53,112.18,48.89,79.7,50.46,48c.15-3.21-4.85-3.21-5,0Z"/><path class="cls-2" d="M53.83,110.19v0c.19.24.39.48.57.72Z"/><path class="cls-1" d="M51.42,110.86a5.13,5.13,0,0,0,1.23,1.85,2.47,2.47,0,0,0,1.76.73,2.53,2.53,0,0,0,1.77-.73,2.49,2.49,0,0,0,.73-1.77,2.91,2.91,0,0,0-.73-1.76l-.58-.76a2.51,2.51,0,0,0-1.77-.73,2.55,2.55,0,0,0-1.77.73,2.52,2.52,0,0,0-.73,1.77,2.92,2.92,0,0,0,.73,1.77l.59.75,3.53-3.53c-.19-.25-.38-.49-.58-.73l.65,1.1v0a2.52,2.52,0,0,0-3.08-1.75A2.55,2.55,0,0,0,51.42,110.86Z"/><path class="cls-2" d="M47.9,107.88c-11-14-19.9-23.06-36.2-23.26-2.15,0-4.41.19-6.18,1.61-3.36,2.69-3.49,8.48-2.35,13,2.57,10.33,9.48,18.36,16.62,25.18,6.33,6,13.14,11.62,20.82,15,4.56,2,9.13,10.92,12,6.38C54,143.64,47.81,131.68,47.9,129,48.13,122.37,49.48,114.26,47.9,107.88Z"/><path class="cls-1" d="M49.67,106.11C41.68,96,32.61,85.48,19.29,82.9c-5.33-1-12.63-2-16.57,2.62s-3,11.58-1.27,16.82C6.1,116.71,19,128.89,31.23,137.08c3.24,2.15,7.13,3.44,10.17,5.81,2,1.61,3.57,3.81,5.73,5.28,3.09,2.09,7.51,1.56,8.17-2.76.7-4.59-2.95-10-4.31-14.25-1.07-3.32-.27-6.85-.06-10.28a50,50,0,0,0-.62-13.66c-.66-3.15-5.48-1.82-4.82,1.33,1.52,7.25-1.07,14.44,0,21.56.67,4.35,3.24,8.3,4.37,12.54.16.54.3,1.09.41,1.64.14.9.05.85-.27-.16a11.89,11.89,0,0,1-2.61-2.4,26.8,26.8,0,0,0-5.55-4.48,96.74,96.74,0,0,1-20.32-14.57C16,117.33,10.63,111.4,7.49,104.24,6,100.75,4.57,96.54,5.09,92.7c.71-5.27,4.91-5.83,9.49-5.44,14.15,1.19,23.33,11.95,31.55,22.39C48.12,112.18,51.64,108.62,49.67,106.11Z"/><path class="cls-3" d="M76.6,40.66c-1.74-2.17-4-3.94-5.58-6.22s-2.38-5.35-.91-7.69C71.24,25,73.44,24,74.76,22.34c3.18-4.05-.4-10.09-5.15-12.34a18.6,18.6,0,0,0-19.12,2.57A23,23,0,0,0,39.55,3.44c-2.22-.89-4.78-1.43-7-.59a10.64,10.64,0,0,0-4.2,3.41c-2.64,3.15-5,6.66-5.83,10.6s-.08,8.38,2.86,11.28a5.59,5.59,0,0,1,1.69,2.11c.56,1.87-1.49,3.39-3,4.71a11.41,11.41,0,0,0-3.8,10.47,11,11,0,0,0,7.61,8.28c5.75,1.67,11.78-1.47,16.5-5,1.45-1.09,3.25-2.3,5-1.68a5.63,5.63,0,0,1,2.52,2.6c3.67,5.73,4.18,7.39,11,9.33,2.48.72,5.3,1.07,7.58-.11a8.64,8.64,0,0,0,3.95-5.55C75.82,48.07,80.05,45,76.6,40.66Z"/><path class="cls-4" d="M65.29,32.14C77.45,33.4,83.62,18.27,75.45,9.85c-8.9-9.17-22.58-4.15-28,6l4.57.6c-1.65-4.72-3.57-9.65-7.35-13.1C39.89-1,33.06-.84,27.61,2.16,16.16,8.45,13.82,25.63,26.08,32.35l.6-4.57c-11.61,1.88-16.87,16.3-8.17,24.77,10,9.75,24.16,1.91,32.17-6.08L46.5,45.36C50,56.07,63.4,70.07,74.3,58.92,84.55,48.45,76,34.64,66.55,27.48,64,25.54,61.49,29.88,64,31.8c6.48,4.9,13.5,13.91,8,22.07C64.71,64.6,53.87,51.75,51.32,44a2.52,2.52,0,0,0-4.17-1.1C41.53,48.54,33.6,54.41,25.26,51c-9.7-4-6.84-16.85,2.75-18.41,2.16-.35,2.37-3.6.6-4.57-9.7-5.31-6.16-18.86,3.23-22.3,8.84-3.25,12.93,5.2,15.34,12.09.67,1.91,3.5,2.61,4.57.6,3.3-6.19,10.66-11,17.55-7.08,7.72,4.38,5.78,16.81-4,15.8C62.09,26.81,62.11,31.81,65.29,32.14Z"/><path class="cls-5" d="M52.5,28.58l.07-1.9a2.55,2.55,0,0,0-2.5-2.5c-4.64-.39-10.09.4-11.45,5.67a9.87,9.87,0,0,0,6,11.38,8.81,8.81,0,0,0,10.76-4.3c2-4.3-.46-9.17-4.71-10.76-3-1.13-4.32,3.7-1.33,4.82,4.28,1.6-.09,7.78-4,5-1.62-1.15-2.77-3.88-1.56-5.66s4.36-1.35,6.26-1.19l-2.5-2.5-.07,1.9C47.38,31.79,52.38,31.79,52.5,28.58Z"/><path class="cls-2" d="M80.2,81.47a4.2,4.2,0,0,0-2.38.07c-9.14,2.23-17.38,10.28-21.69,21.2a53.86,53.86,0,0,0-.82,35.73l.61,2.49c1.41,1.76,3.7.36,5.24-1.18C72.91,128.09,80.9,110,82.84,90.66,83.2,87.09,82.82,82.4,80.2,81.47Z"/><path class="cls-1" d="M80.2,79c-5.6-.66-11.79,3.6-15.77,7.17a42.46,42.46,0,0,0-11.28,17.44,55.33,55.33,0,0,0-2.73,23.61,63.6,63.6,0,0,0,2.23,11.18c.49,1.73.61,3.51,2,4.74,4.82,4.28,10.72-4,13.2-7.12a78.33,78.33,0,0,0,10.87-18.74,92.35,92.35,0,0,0,6.21-23.2c.64-4.84,1.59-11.91-3.48-14.74-2.81-1.57-5.34,2.75-2.52,4.32,3.86,2.15.56,13.41-.09,16.45a86,86,0,0,1-5.33,16.73A76.31,76.31,0,0,1,66.2,129.9a60.93,60.93,0,0,1-5.27,6.53c-.36.38-3.13,3.4-2.7,3.47a11.71,11.71,0,0,1-.46-1.9c-2.48-4.07-2.59-11.24-2.61-15.83A50.43,50.43,0,0,1,58,104.91a37.64,37.64,0,0,1,9-14.26c3.15-3.07,8.56-7.24,13.27-6.68C83.39,84.35,83.36,79.35,80.2,79Z"/></g></g></svg>