<svg xmlns="http://www.w3.org/2000/svg" viewBox="0 0 111.21 156.27"><defs><style>.cls-1{fill:#90b550;}.cls-2{fill:#fec23a;}.cls-3{fill:#ffd550;}.cls-4{fill:#f89e54;}</style></defs><title>f-5</title><g id="Layer_2" data-name="Layer 2"><g id="Layer_1-2" data-name="Layer 1"><path class="cls-1" d="M53.84,69.58c-1.82,28.7-2.89,57.88,9,84.75l4.31-2.52c-6.08-11.71-3.93-24.85,3.85-35.19,6.7-8.89,17.56-17.19,28.69-19.27,1.62-.3,3.82-.9,5.22.16s1,1.89.93,3.71a34.43,34.43,0,0,1-1.68,8.64,51.74,51.74,0,0,1-9,16.23c-8.06,10.1-18.6,18-29,25.41-2.6,1.85-.1,6.19,2.53,4.31,13.18-9.39,26.82-19.55,35.32-33.64,4-6.71,14.47-30.56-.81-30.19-13.92.34-28,10.91-36.06,21.6-9.07,12-11.24,27.23-4.21,40.75,1.51,2.9,5.59.35,4.31-2.52-11.52-25.94-10.11-54.57-8.36-82.23.21-3.22-4.8-3.21-5,0Z"/><path class="cls-1" d="M53,114.17v0c.19.21.39.42.57.63Z"/><path class="cls-1" d="M50.56,114.84a4.51,4.51,0,0,0,1.22,1.75,2.52,2.52,0,0,0,3.53,0,2.56,2.56,0,0,0,0-3.54l-.57-.65a2.53,2.53,0,0,0-3.54,0,2.56,2.56,0,0,0,0,3.54l.58.65,3.53-3.54-.57-.62.65,1.1v0a2.5,2.5,0,1,0-4.82,1.33Z"/><path class="cls-1" d="M53,114.19c-10.81-12-25.38-21.76-41.4-21.93-2.11,0-4.34.16-6.07,1.37-3.31,2.31-3.43,7.27-2.31,11.18,2.52,8.85,9.31,15.73,16.33,21.58,6.22,5.19,12.91,10,20.45,12.83,4.49,1.7,10.41,2.31,13.28-1.59,1.35-1.84,1.64-4.26,1.73-6.55A53.81,53.81,0,0,0,53,114.19Z"/><path class="cls-1" d="M54.74,112.43C44.59,101.32,31.49,91.87,16.18,90.07c-5.9-.69-13-.6-15.41,6-2.29,6.24.94,13.58,4.35,18.73,4.36,6.6,10.49,11.88,16.7,16.67,5.88,4.54,12.7,9.25,20,11,5.27,1.26,11.51.62,14.23-4.71,3.49-6.82,1.13-17.21-.71-24.19-.83-3.11-5.65-1.79-4.83,1.33,1.46,5.52,3.63,14,1.45,19.66-2.63,6.76-12,2.26-16.27,0-9.79-5.1-20.13-13.06-26.31-22.34-2.75-4.14-7.6-13.45-1.49-16.44,4.84-2.37,11.56-.42,16.49,1.27C35,100.65,43.79,107.85,51.21,116,53.38,118.34,56.91,114.8,54.74,112.43Z"/><path class="cls-2" d="M15.31,37c2.81,1.94,6.09,3.23,8.75,5.35s4.72,5.5,3.84,8.82c-.68,2.54-2.91,4.47-3.85,6.94-2.27,6,4.09,11.84,10.47,12.78,8.21,1.21,17-3.15,21.45-10a28,28,0,0,0,16.09,6.85c2.91.24,6.1,0,8.42-1.86a13.25,13.25,0,0,0,3.68-5.6c2-4.7,3.42-9.73,3-14.73s-2.93-10-7.4-12.36A6.83,6.83,0,0,1,77,31.28c-1.33-2,.52-4.57,1.81-6.68a14.4,14.4,0,0,0,.67-13.84A13.4,13.4,0,0,0,67.64,3.7c-7.33.11-13.26,6.05-17.51,12-1.31,1.82-3,3.92-5.22,3.81-1.54-.07-2.75-1.19-3.89-2.17-6.35-5.48-7.56-7.27-16.17-7.1-3.16.06-6.6.67-8.83,2.91-2.08,2.09-2.69,5.18-2.63,8C13.55,27.92,9.73,33.18,15.31,37Z"/><path class="cls-3" d="M31.84,43.58c-13.64,2.34-16,20.87-5.22,28.24C40,80.93,55.19,69.89,57.77,55.76l-4.57.59c3.48,4.81,7.27,9.77,12.69,12.51,6.91,3.5,14.65,1.28,19.92-4.07,10.87-11,8.27-32.4-8.44-35.74l.6,4.57C90.54,27.48,91.71,9,78.9,2.26c-15-7.9-28.53,6.49-34.81,18.58h4.32C40.67,9.6,20.17-2.07,11.81,15c-7.63,15.58,6.59,28.47,20,33.4,3,1.11,4.33-3.72,1.33-4.82-10-3.67-21.42-12.24-17.67-24.37,4.81-15.53,22.65-4.47,28.59,4.15,1,1.45,3.4,1.78,4.32,0,4.65-9,12.25-19.38,23.74-18,13,1.57,14.31,18.54,3.3,23.92a2.52,2.52,0,0,0,.6,4.57c13.6,2.72,14.59,20.32,5.13,28.41s-18.09-.76-23.66-8.45c-1.12-1.55-4.14-1.73-4.57.6-1.8,9.84-10.81,19.18-21.36,14.45-9.25-4.14-9.27-18.62,1.58-20.48C36.34,47.85,35,43,31.84,43.58Z"/><path class="cls-4" d="M48.37,42.33l.6,2.28A2.55,2.55,0,0,0,52,46.36c4.8-1.06,10.29-3.2,11-8.77s-3.72-11.18-9.23-12.16a10.21,10.21,0,0,0-11.66,7.86,9.31,9.31,0,0,0,8.66,10.87c3.21.24,3.19-4.76,0-5-3.53-.25-4.85-4.45-2.74-7a5.24,5.24,0,0,1,7.21-.78c2.24,1.57,4,5,2,7.46-1.5,1.77-4.37,2.24-6.49,2.71l3.07,1.74L53.19,41C52.37,37.89,47.55,39.21,48.37,42.33Z"/><path class="cls-1" d="M99.35,104.49a8,8,0,0,0-2.89.05c-11.07,1.67-21,7.68-26.28,15.83a26,26,0,0,0-1,26.68l.74,1.85c1.71,1.32,4.49.28,6.36-.87,14.23-8.73,23.92-22.26,26.27-36.68C103,108.69,102.52,105.18,99.35,104.49Z"/><path class="cls-1" d="M99.35,102c-12.15-.89-26.35,8.14-32.16,18.5a28.74,28.74,0,0,0-3.37,18.39c.55,3.58,2.22,11.53,6.28,12.83,5.12,1.65,10.85-3.58,14.47-6.5A60.27,60.27,0,0,0,98.09,130c3.9-6.33,12.94-23.94,1.92-27.91-3-1.09-4.34,3.74-1.33,4.82,3.72,1.34-.1,10.46-1,12.7a49.64,49.64,0,0,1-6.45,11.56,56.06,56.06,0,0,1-9.63,10,48.71,48.71,0,0,1-5.94,4.26c-.56.33-2.63,1.86-3.1,1.84-1.06,0-.16.31-1-.89-5.5-7.89-3.42-19.67,2.19-26.76S90.14,106.32,99.35,107C102.56,107.22,102.54,102.22,99.35,102Z"/></g></g></svg>