<svg xmlns="http://www.w3.org/2000/svg" viewBox="0 0 214.15 408.09"><defs><style>.cls-1{fill:#ffd5a5;}.cls-2{fill:#fffae1;}.cls-3{font-size:14px;fill:#ffc166;font-family:GyeonggiTitleV;}</style></defs><g id="Layer_2" data-name="Layer 2"><g id="Layer_1-2" data-name="Layer 1"><path class="cls-1" d="M178.69,30.51A99.66,99.66,0,0,1,207,100V381.35a20.06,20.06,0,0,1-20,20H20a19.8,19.8,0,0,1-9.61-2.48,20,20,0,0,0,16.81,9.22h167a20.06,20.06,0,0,0,20-20V106.74A99.92,99.92,0,0,0,178.69,30.51Z"/><path class="cls-2" d="M7.2,106.74c0-55,45-100,100-100h7a99.49,99.49,0,0,1,64.54,23.77A99.76,99.76,0,0,0,107,0h-7C45,0,0,45,0,100V381.35a20,20,0,0,0,10.39,17.52A19.85,19.85,0,0,1,7.2,388.09Z"/><path class="cls-2" d="M187,401.35a20.06,20.06,0,0,0,20-20V100a99.66,99.66,0,0,0-28.26-69.49A99.49,99.49,0,0,0,114.15,6.74h-7c-55,0-100,45-100,100V388.09a19.85,19.85,0,0,0,3.19,10.78A19.8,19.8,0,0,0,20,401.35ZM19.27,109.45a84.45,84.45,0,0,1,84.21-84.2h0a84.45,84.45,0,0,1,84.2,84.2V369.7a12.45,12.45,0,0,1-12.46,12.45H31.73A12.45,12.45,0,0,1,19.27,369.7Z"/><text class="cls-3" transform="translate(91.39 20.59) rotate(-2.35)">H</text><text class="cls-3" transform="matrix(1, 0, 0, 1, 101.26, 20.29)">e</text><text class="cls-3" transform="matrix(1, 0.05, -0.05, 1, 109.1, 20.3)">l</text><text class="cls-3" transform="matrix(0.99, 0.1, -0.1, 0.99, 113.54, 20.52)">l</text><text class="cls-3" transform="translate(117.95 20.9) rotate(10.29)">o</text><text class="cls-3" transform="translate(126.06 22.45) rotate(14.38)"> </text><text class="cls-3" transform="matrix(0.94, 0.33, -0.33, 0.94, 129.59, 23.19)">w</text><text class="cls-3" transform="matrix(0.9, 0.43, -0.43, 0.9, 139.63, 26.77)">e</text><text class="cls-3" transform="translate(146.61 30.18) rotate(29.71)">l</text><text class="cls-3" transform="translate(150.49 32.33) rotate(33.74)">c</text><text class="cls-3" transform="matrix(0.78, 0.63, -0.63, 0.78, 156.5, 36.3)">o</text><text class="cls-3" transform="translate(162.94 41.34) rotate(45.49)">m</text><text class="cls-3" transform="matrix(0.62, 0.79, -0.79, 0.62, 170.98, 49.65)">e</text><text class="cls-3" transform="matrix(0.56, 0.83, -0.83, 0.56, 175.83, 55.98)"> </text><text class="cls-3" transform="translate(177.92 58.99) rotate(59.21)">t</text><text class="cls-3" transform="translate(180.84 63.77) rotate(63.77)">o</text><text class="cls-3" transform="translate(184.42 71.19) rotate(67.82)"> </text><text class="cls-3" transform="matrix(0.31, 0.95, -0.95, 0.31, 185.85, 74.54)">v</text><text class="cls-3" transform="matrix(0.24, 0.97, -0.97, 0.24, 188.19, 81.72)">i</text><text class="cls-3" transform="translate(189.47 86.62) rotate(80.35)">s</text><text class="cls-3" transform="translate(190.67 93.86) rotate(84.52)">i</text><text class="cls-3" transform="translate(191.15 98.59) rotate(88.08)">t</text><text class="cls-3" transform="translate(191.3 104.69) rotate(90)"> <tspan x="3.79" y="0">m</tspan><tspan x="15.62" y="0">y</tspan><tspan x="23.93" y="0"> </tspan><tspan x="27.7" y="0">p</tspan><tspan x="36.02" y="0">o</tspan><tspan x="44.46" y="0">r</tspan><tspan x="50.27" y="0">t</tspan><tspan x="56.23" y="0">f</tspan><tspan x="62.68" y="0">o</tspan><tspan x="70.86" y="0">l</tspan><tspan x="75.41" y="0">i</tspan><tspan x="80.64" y="0">o</tspan><tspan x="89.08" y="0">!</tspan><tspan x="94.32" y="0">	</tspan><tspan x="103.26" y="0">H</tspan><tspan x="113.23" y="0">e</tspan><tspan x="121.15" y="0">l</tspan><tspan x="125.75" y="0">l</tspan><tspan x="130.33" y="0">o</tspan><tspan x="138.72" y="0"> </tspan><tspan x="142.52" y="0">w</tspan><tspan x="153.43" y="0">e</tspan><tspan x="161.37" y="0">l</tspan><tspan x="165.95" y="0">c</tspan><tspan x="173.32" y="0">o</tspan><tspan x="181.74" y="0">m</tspan><tspan x="193.56" y="0">e</tspan><tspan x="201.69" y="0"> </tspan><tspan x="205.48" y="0">t</tspan><tspan x="211.25" y="0">o</tspan><tspan x="219.67" y="0"> </tspan><tspan x="223.44" y="0">v</tspan><tspan x="231.13" y="0">i</tspan><tspan x="236.36" y="0">s</tspan><tspan x="243.88" y="0">i</tspan><tspan x="248.76" y="0">t</tspan><tspan x="254.94" y="0"> </tspan><tspan x="258.71" y="0">m</tspan></text><text class="cls-3" transform="translate(191.86 374.9) rotate(100.78)">y</text><text class="cls-3" transform="matrix(-0.57, 0.82, -0.82, -0.57, 190.19, 382.12)"> </text><text class="cls-3" transform="matrix(-0.85, 0.53, -0.53, -0.85, 188.97, 385)">p</text><text class="cls-3" transform="translate(182.85 389.09) rotate(180)">o<tspan x="8.41" y="0">r</tspan><tspan x="14.23" y="0">t</tspan><tspan x="20.2" y="0">f</tspan><tspan x="26.66" y="0">o</tspan><tspan x="34.82" y="0">l</tspan><tspan x="39.38" y="0">i</tspan><tspan x="44.62" y="0">o</tspan><tspan x="53.04" y="0">!</tspan><tspan x="58.3" y="0">	</tspan><tspan x="67.25" y="0">H</tspan><tspan x="77.21" y="0">e</tspan><tspan x="85.13" y="0">l</tspan><tspan x="89.7" y="0">l</tspan><tspan x="94.3" y="0">o</tspan><tspan x="102.71" y="0"> </tspan><tspan x="106.5" y="0">w</tspan><tspan x="117.41" y="0">e</tspan><tspan x="125.33" y="0">l</tspan><tspan x="129.91" y="0">c</tspan><tspan x="137.29" y="0">o</tspan><tspan x="145.68" y="0">m</tspan></text><text class="cls-3" transform="translate(26.13 389.59) rotate(-153.21)">e</text><text class="cls-3" transform="matrix(-0.64, -0.77, 0.77, -0.64, 19.76, 386.08)"> </text><text class="cls-3" transform="translate(17.51 383.88) rotate(-110.47)">t</text><text class="cls-3" transform="translate(15.65 379.21) rotate(-90)">o<tspan x="8.43" y="0"> </tspan><tspan x="12.2" y="0">v</tspan><tspan x="19.89" y="0">i</tspan><tspan x="25.14" y="0">s</tspan><tspan x="32.65" y="0">i</tspan><tspan x="37.54" y="0">t</tspan><tspan x="43.71" y="0"> </tspan><tspan x="47.49" y="0">m</tspan><tspan x="59.32" y="0">y</tspan><tspan x="67.65" y="0"> </tspan><tspan x="71.42" y="0">p</tspan><tspan x="79.74" y="0">o</tspan><tspan x="88.15" y="0">r</tspan><tspan x="94" y="0">t</tspan><tspan x="99.94" y="0">f</tspan><tspan x="106.41" y="0">o</tspan><tspan x="114.56" y="0">l</tspan><tspan x="119.12" y="0">i</tspan><tspan x="124.37" y="0">o</tspan><tspan x="132.77" y="0">!</tspan><tspan x="138.04" y="0">	</tspan><tspan x="146.99" y="0">H</tspan><tspan x="156.95" y="0">e</tspan><tspan x="164.88" y="0">l</tspan><tspan x="169.46" y="0">l</tspan><tspan x="174.02" y="0">o</tspan><tspan x="182.46" y="0"> </tspan><tspan x="186.24" y="0">w</tspan><tspan x="197.15" y="0">e</tspan><tspan x="205.06" y="0">l</tspan><tspan x="209.67" y="0">c</tspan><tspan x="217.03" y="0">o</tspan><tspan x="225.44" y="0">m</tspan><tspan x="237.28" y="0">e</tspan><tspan x="245.41" y="0"> </tspan><tspan x="249.2" y="0">t</tspan><tspan x="254.96" y="0">o</tspan><tspan x="263.36" y="0"> </tspan><tspan x="267.16" y="0">v</tspan></text><text class="cls-3" transform="matrix(0.03, -1, 1, 0.03, 15.61, 104.42)">i</text><text class="cls-3" transform="translate(15.71 99.35) rotate(-83.86)">s</text><text class="cls-3" transform="translate(16.54 92.03) rotate(-79.67)">i</text><text class="cls-3" transform="translate(17.35 87.38) rotate(-76.09)">t</text><text class="cls-3" transform="translate(18.84 81.5) rotate(-72.74)"> </text><text class="cls-3" transform="translate(19.72 78.02) rotate(-67.53)">m</text><text class="cls-3" transform="translate(24.23 67.36) rotate(-60.85)">y</text><text class="cls-3" transform="translate(28.25 60.29) rotate(-56.86)"> </text><text class="cls-3" transform="translate(30.18 57.18) rotate(-52.87)">p</text><text class="cls-3" transform="matrix(0.68, -0.74, 0.74, 0.68, 35.08, 50.69)">o</text><text class="cls-3" transform="translate(40.68 44.68) rotate(-42.73)">r</text><text class="cls-3" transform="matrix(0.78, -0.63, 0.63, 0.78, 44.85, 40.81)">t</text><text class="cls-3" transform="translate(49.35 37.16) rotate(-34.66)">f</text><text class="cls-3" transform="matrix(0.87, -0.5, 0.5, 0.87, 54.49, 33.54)">o</text><text class="cls-3" transform="translate(61.45 29.6) rotate(-25.75)">l</text><text class="cls-3" transform="matrix(0.92, -0.38, 0.38, 0.92, 65.45, 27.65)">i</text><text class="cls-3" transform="matrix(0.95, -0.31, 0.31, 0.95, 70.08, 25.66)">o</text><text class="cls-3" transform="translate(77.95 23.17) rotate(-13.35)">!</text><text class="cls-3" transform="translate(82.96 22) rotate(-10.32)">	</text></g></g></svg>