<svg xmlns="http://www.w3.org/2000/svg" viewBox="0 0 82.11 235.83"><defs><style>.cls-1{fill:#2d5f2e;}</style></defs><title>green2</title><g id="Layer_2" data-name="Layer 2"><g id="Layer_1-2" data-name="Layer 1"><path class="cls-1" d="M44.77,14.09c-1.45-4.56-5.85-8.29-10.62-8l.23-.55a15.77,15.77,0,0,0-11,10.68A15.81,15.81,0,0,0,27,31.09a9.77,9.77,0,0,0,6.4,3.35c4,.2,7.43-3.06,9.42-6.57C45.11,23.71,46.22,18.64,44.77,14.09Z"/><path class="cls-1" d="M47.18,13.42c-2.24-5.77-6.67-9.68-13-9.87l2.41,3.17.23-.56c.75-1.78-1.41-3.59-3.07-3.07-13.12,4.1-18.58,21.59-7.2,31C39.4,44.74,50,24.49,47.18,13.42c-.79-3.12-5.61-1.8-4.82,1.33,1.93,7.58-5.89,24.5-14.33,13.67-5.84-7.5-1.65-17.81,7-20.51L32,4.83l-.23.56c-.66,1.57,1,3.12,2.41,3.16,3.92.12,6.82,2.63,8.21,6.2C43.52,17.72,48.35,16.43,47.18,13.42Z"/><path class="cls-1" d="M38.56,54.39a34.73,34.73,0,0,0-7.63-9l0,.07a26,26,0,0,0-18.27-6.36C9,39.31,5,40.64,3.52,44c-1.13,2.59-.3,5.72,1.44,8a20.1,20.1,0,0,0,6.75,5C18.85,60.68,27,63.41,34.89,62c1.94-.34,4.1-1.16,4.73-3C40.14,57.46,39.39,55.79,38.56,54.39Z"/><path class="cls-1" d="M40.72,53.13a41.6,41.6,0,0,0-8-9.47,2.54,2.54,0,0,0-3.92.5l-.05.06,3.92-.5c-6.64-5.45-16.2-9-24.77-6.27C.2,39.92-1.54,48.31,3.66,54.2,9.35,60.65,20.6,64.34,28.92,64.83c7.75.45,16.45-2.64,11.8-11.7-1.47-2.87-5.79-.34-4.32,2.52C39.8,62.28,23.9,59.1,22,58.54A41,41,0,0,1,9.31,52.61c-2.66-2-5.57-5.84-2.49-9,1.77-1.83,5.12-2,7.46-2a23.82,23.82,0,0,1,14.84,5.65,2.56,2.56,0,0,0,3.93-.5l0-.07-3.92.51a37.52,37.52,0,0,1,7.23,8.46C38.1,58.37,42.43,55.87,40.72,53.13Z"/><path class="cls-1" d="M66.19,38.69C64,35.51,59.24,35,55.79,36.74s-5.79,5-7.68,8.38a28.32,28.32,0,0,0-3.34,8.37,13.43,13.43,0,0,0,1.08,8.81l.57,2c4.64.53,8.76-2.85,11.92-6.28a77.35,77.35,0,0,0,5.17-6.26A20.05,20.05,0,0,0,67,45.58,8.3,8.3,0,0,0,66.19,38.69Z"/><path class="cls-1" d="M68,36.92C62.12,30,52.83,34,48.3,40.18c-3,4.06-5.54,9.09-6.15,14.14-.48,3.94.83,7,1.86,10.68a2.57,2.57,0,0,0,2.41,1.84c7.94.2,13.38-6.22,17.88-12,4-5.18,7.44-11,4-17.44C66.84,34.58,62.53,37.1,64,40c2.65,5-2.29,10.32-5.31,13.9-3.22,3.81-6.89,8.13-12.3,8l2.41,1.83c-.36-1.27-.84-2.48-1.22-3.74-1.26-4.21-.13-8.13,1.8-12,2.45-4.85,9.3-14.25,15-7.51C66.5,42.92,70,39.36,68,36.92Z"/><path class="cls-1" d="M42.76,81.71l-1.9-1.39a20.93,20.93,0,0,0-22.06-3A14,14,0,0,0,12,83.58a8.56,8.56,0,0,0,.68,8.89c2.45,3.07,6.94,3.53,10.84,3.09A33.11,33.11,0,0,0,42.7,86.74,5.08,5.08,0,0,0,44.43,84C44.59,83,43.85,81.69,42.76,81.71Z"/><path class="cls-1" d="M44,79.55c-7.11-5.21-15-8.44-23.84-5.44C12.59,76.69,4.59,85.7,10.55,93.73c5.16,7,16.44,4.54,23.16,1.74C38,93.7,54.27,83.4,43.43,79.3c-3-1.15-4.32,3.69-1.33,4.82-.58-.22-6,4.58-6.78,5a31,31,0,0,1-7.91,3.17C22.46,93.57,11.13,93.93,14,85.5c2.06-6.18,10.28-8.12,16-7.35,4.61.62,8,3.07,11.58,5.71C44.1,85.77,46.6,81.43,44,79.55Z"/><path class="cls-1" d="M72.86,76.08a3.46,3.46,0,0,0-1.65-1.94,3.79,3.79,0,0,0-2.33.06c-6.27,1.68-11.22,6.37-15.73,11a3.22,3.22,0,0,0-1.07,1.71c-.19,1.42,1.39,2.36,2.71,2.9l-.39.26c1.52,2.81,5.35,3.44,8.47,2.78a14.23,14.23,0,0,0,9-6.1A11.68,11.68,0,0,0,72.86,76.08Z"/><path class="cls-1" d="M75,74.81c-3.62-7-12.76-.91-16.94,2.42C53.64,80.76,44.83,87.85,53.53,92V87.68l-.39.26a2.54,2.54,0,0,0-.9,3.42c3.79,5.53,11.24,5,16.5,1.85a14.84,14.84,0,0,0,6.53-17.8c-1.09-3-5.93-1.7-4.82,1.33a9.71,9.71,0,0,1-2.74,11.08c-2.59,2.22-8.64,4.68-11.15,1l-.89,3.42.38-.26c1.43-1,1.82-3.45,0-4.32s-.52-1.34.7-2.54,2.51-2.44,3.85-3.55,8.71-6.94,10.1-4.25C72.18,80.2,76.5,77.67,75,74.81Z"/><path class="cls-1" d="M46.57,100.57l-1.13.37a22.33,22.33,0,0,0-25.58,11.49,10.22,10.22,0,0,0-1.32,6,7.86,7.86,0,0,0,6.17,6.08,12.09,12.09,0,0,0,8.78-1.86,27.26,27.26,0,0,0,6.64-6.31C43.8,111.82,47.09,106.38,46.57,100.57Z"/><path class="cls-1" d="M45.9,98.16c-1.32.43-3.17-.28-4.61-.38a25.13,25.13,0,0,0-6.53.45,24.75,24.75,0,0,0-11,5.38c-5.33,4.53-10.94,13.36-5.48,19.8,5,5.94,13.52,4,18.86-.32,6.52-5.32,12.22-13.88,12-22.52-.1-3.21-5.1-3.22-5,0,.19,6.14-3.25,11.34-7.19,15.77a19.46,19.46,0,0,1-6,4.91c-4.09,1.92-10.66.67-9.74-5.23.84-5.4,6.93-10.31,11.71-12.07a20.81,20.81,0,0,1,10.29-1c1.63.26,2.5.52,4.09,0C50.28,102,49,97.18,45.9,98.16Z"/><path class="cls-1" d="M76.27,114.53c-1.42-1.59-3.56-2.3-5.59-2.94l-1.31.32A19.17,19.17,0,0,0,52.05,119c-1.14,1.46-2.09,3.34-1.54,5.11.65,2,2.94,3,5,3.5a52.15,52.15,0,0,0,12.3,1.74c2.49.06,5.16-.13,7.15-1.62s3.06-4.39,3.15-7A8.68,8.68,0,0,0,76.27,114.53Z"/><path class="cls-1" d="M78,112.76c-5.45-4.78-13.5-4.44-19.91-1.56-5.28,2.37-14.25,10.1-8.38,16.16,2.7,2.79,7.58,3.34,11.18,3.86,4.27.62,9.31,1.35,13.42-.36,6.62-2.75,8-12.12,4.08-17.59-1.86-2.59-6.2-.1-4.32,2.52,4,5.61-.07,11-6.31,11-3.7,0-12,.07-13.64-3.73-1.88-4.41,6.23-7.9,9.89-8.57s7.52-.8,10.45,1.78C76.91,118.41,80.46,114.89,78,112.76Z"/><path class="cls-1" d="M43,142.42l-.73-1.07a32.78,32.78,0,0,0-7.75-3.69,11,11,0,0,0-8.36.72,4.21,4.21,0,0,0-1.51,1.36,3.77,3.77,0,0,0-.36,2.68,8,8,0,0,0,3.4,4.64,14.49,14.49,0,0,0,12.27,2.1,6.35,6.35,0,0,0,3.84-2.57A3.08,3.08,0,0,0,43,142.42Z"/><path class="cls-1" d="M45.1,141.16c-3-4.35-10.39-6.92-15.53-6.41-5.88.58-10.07,5.49-6.58,11.07,3.19,5.08,10.23,7.06,15.87,6.11,5-.84,11.3-6.57,5.85-11.28-2.42-2.09-6,1.43-3.53,3.54,1.78,1.54-2.29,2.68-3.07,2.83a11.84,11.84,0,0,1-4.48-.05c-2.2-.44-8.26-3-6.62-5.95,2-3.73,12.05.14,13.78,2.66S46.93,143.82,45.1,141.16Z"/><path d="M11.73,234.72C48.52,182.54,60.93,114.9,45.29,53c-.79-3.12-5.61-1.8-4.82,1.33C55.81,115,43.45,181.08,7.41,232.2c-1.86,2.63,2.48,5.13,4.32,2.52Z"/><path d="M40.56,51.32C35,44,28.65,36.12,19.11,34.27c-7.29-1.42-15.58,1.66-18.33,9S2.91,58,9.28,61.46c8.86,4.83,20.48,5.63,30.35,5.61,3.22,0,3.23-5,0-5-9.1,0-35.52-.64-34.58-14.9.48-7.37,9.15-9.36,15-7.51,7,2.22,11.87,8.59,16.17,14.18,1.94,2.51,6.28,0,4.32-2.52Z"/><path d="M45.59,79.3A22.7,22.7,0,0,0,23.1,71.49c-7.72,1.85-15.59,8.68-16.34,17-.69,7.62,6,11.71,12.83,12,9.09.35,18.05-4.7,24.27-11,2.26-2.29-1.27-5.82-3.54-3.54a32,32,0,0,1-15.53,9c-5.9,1.36-15.46.25-12.36-8.44,4.61-13,21.71-13,29.62-3.6,2.07,2.47,5.59-1.09,3.54-3.54Z"/><path d="M44.38,96.36A30.06,30.06,0,0,0,22,103.44c-5.39,4.63-10.82,12.9-6.49,19.91,3.89,6.3,12.17,7.08,18.36,4.1,8.21-4,13.49-12.76,16-21.21.9-3.1-3.92-4.42-4.82-1.33a31.79,31.79,0,0,1-9.47,15.49c-4.3,3.68-14.62,6.63-16.33-1.43-1.22-5.74,5-11.49,9.43-14.19a25.39,25.39,0,0,1,15.73-3.42c3.21.3,3.19-4.7,0-5Z"/><path d="M45.91,51.43a19.49,19.49,0,0,1,8.22-13.77c2.28-1.55,5.59-3.18,8.45-2.92,4.73.42,5.56,5,5.13,8.85C66.48,54.42,56.5,63.11,46,64.39c-3.16.39-3.2,5.39,0,5,14.17-1.73,30.84-16.14,26.24-32-2.26-7.8-10.12-8.91-16.86-6A24,24,0,0,0,41.09,50.1c-.43,3.15,4.39,4.51,4.82,1.33Z"/><path d="M52.06,88.2a19.13,19.13,0,0,1,8.43-10.77c3.86-2.34,13.19-5.3,13.89,1.86C75.5,90.68,62.2,97.16,53.62,90c-2.46-2.05-6,1.47-3.54,3.53,12.4,10.33,32.45.58,29-16.28-1.62-8-9.41-8.63-16.15-6.43a24.45,24.45,0,0,0-15.72,16c-1,3.07,3.86,4.39,4.82,1.33Z"/><path d="M54.38,120.92c3.32-7,13.9-11.24,20.25-5.28,4.83,4.54,1.21,11-4.43,12.62S58.68,126.85,54,124.17c-2.81-1.58-5.33,2.73-2.53,4.32,6.64,3.76,15.11,7.28,22.58,3.67,5.69-2.76,9.91-9.61,7.31-15.86-5.65-13.56-26-9.1-31.25,2.1-1.37,2.89,2.94,5.44,4.31,2.52Z"/><path d="M47.5,142.52A18.27,18.27,0,0,0,34,133.9c-4.85-.58-13.05.91-14.53,6.48C18,145.61,23.76,150.55,28,152.44a17.94,17.94,0,0,0,16.76-1c2.74-1.67.24-6-2.52-4.31a12.77,12.77,0,0,1-9.28,1.71,13,13,0,0,1-4.78-2c-2.09-1.41-3.42-2.48-2.6-5,1.18-3.62,6.18-3.51,9.47-2.72a12.91,12.91,0,0,1,8.18,5.9c1.68,2.73,6,.22,4.31-2.53Z"/><path d="M32.63,33.75A15.37,15.37,0,0,1,22.44,18.93c.32-6.63,6-13.65,12.93-13.92,7.63-.31,9,8.55,8.72,14.35-.29,6.91-3,14.21-10.61,15.45-3.17.52-1.82,5.34,1.33,4.82C52.64,36.72,55.57-.56,35.37,0c-9.23.26-16.8,8.7-17.8,17.53-1.08,9.45,5.08,17.82,13.74,21,3,1.12,4.32-3.71,1.32-4.82Z"/></g></g></svg>