<svg xmlns="http://www.w3.org/2000/svg" viewBox="0 0 95.49 186.98"><defs><style>.cls-1{fill:#5c8e45;}</style></defs><title>green3</title><g id="Layer_2" data-name="Layer 2"><g id="Layer_1-2" data-name="Layer 1"><path class="cls-1" d="M90.84,54.63a21,21,0,0,0-32.61-9.25l2.65.26A10.88,10.88,0,0,0,52.94,61.2,21.72,21.72,0,0,0,57,66.38q2.22,2.34,4.46,4.66c3.92,4.1,8.61,8.52,14.28,8.19C79.21,79,82.33,77,85,74.72a21.51,21.51,0,0,0,5.87-7.44A17.17,17.17,0,0,0,90.84,54.63Z"/><path class="cls-1" d="M75.56,9.12A5.16,5.16,0,0,0,72.25,5c-2.25-.68-4.58.75-6.33,2.31C60.25,12.33,56.76,19.55,55.39,27a6.59,6.59,0,0,0,.32,4.5c.78,1.33,2.89,1.93,3.87.75l.26,1.34a34.51,34.51,0,0,0,15-19A11.65,11.65,0,0,0,75.56,9.12Z"/><path class="cls-1" d="M48.66,51.08c1.8-5.5,0-11.46-1.83-16.95-1.35-4.09-2.82-8.37-6-11.28a19.51,19.51,0,0,0-5.65-3.38c-4.8-2-10.62-3-15-.2a12.77,12.77,0,0,0-5.26,8.41,27.26,27.26,0,0,0,.32,10.14,64.39,64.39,0,0,0,4.31,14A12.21,12.21,0,0,0,22,55.66a12.29,12.29,0,0,0,4.38,2.46A28.63,28.63,0,0,0,37,60.29a18.9,18.9,0,0,0,15.44-8.95Z"/><path class="cls-1" d="M30.49,72.23,18.86,69c-3.43-1-7.27-1.85-10.39-.14C4.79,70.92,3.75,76.1,5.36,80c2.38,5.76,9.48,8.74,15.55,7.33s10.85-6.55,12.9-12.43Z"/><path class="cls-1" d="M40.68,76.7A6.82,6.82,0,0,0,38,82.47a18.45,18.45,0,0,0,1.57,6.41,131.86,131.86,0,0,0,7.14,15.4,14.56,14.56,0,0,0,3.42,4.62,5.35,5.35,0,0,0,5.41,1,6.15,6.15,0,0,0,2.57-2.58c3.67-6.07,2.22-14.32-2.21-19.86S44.63,78.74,37.7,77.21"/><path d="M63,183.35c-14.57-20.84-26.16-44.79-27.76-70.53C33.82,89.51,41,65.49,57.83,48.88c2.29-2.26-1.24-5.8-3.54-3.54C36.93,62.47,29.07,87.19,30.18,111.28c1.25,27.19,13.14,52.6,28.52,74.59,1.83,2.62,6.17.12,4.32-2.52Z"/><path d="M57.47,49.47c7.08-5.65,17.43-7.32,25.16-1.94,7.08,4.91,10.19,14.25,5.81,22-4.65,8.23-14.2,9.5-22,5S54.65,61.71,51.31,53.86c-1.26-3-5.56-.4-4.32,2.53,4.54,10.67,11.12,21.87,23.12,25.09A20,20,0,0,0,94.19,69c3.76-9.85-1-20.69-9.64-26.17-9.76-6.17-22-3.77-30.62,3.12-2.51,2,1,5.52,3.54,3.53Z"/><path d="M53.22,55.8C55.34,42.89,54.69,28.19,44,19c-8.25-7.1-21.94-7.56-28.86,1.76s-2.88,26.11,4.19,34.48S39.87,66.17,48.28,58.1c2.33-2.23-1.21-5.76-3.53-3.53-7.27,7-18.34,2.84-23.25-4.76-4.53-7-7.92-20.94-1.09-27.48S38,18.79,43.47,25.59C50,33.7,50,44.69,48.39,54.47c-.51,3.15,4.3,4.51,4.83,1.33Z"/><path d="M34,80.61c.24,9.87,2.57,21.46,9.31,29.1,5.7,6.47,14.42,6.91,19.63-.43,4.88-6.85,3.71-16.6-1.14-23.13-5.65-7.61-15.34-10.52-24.45-10.61-3.22,0-3.23,5,0,5,11.94.11,28.6,8.93,22.77,23.48-1.4,3.48-4.72,6.83-8.78,5.58-3.18-1-5.48-4.4-7-7.17A48.28,48.28,0,0,1,39,80.61c-.08-3.22-5.08-3.23-5,0Z"/><path d="M33.3,70.53c-8.45-4-18.64-8.11-27.27-2.26C-.27,72.53-2.19,80.77,3,86.78c12.36,14.42,34.06,1,35.81-14.85.36-3.19-4.65-3.17-5,0C32.57,82.86,19.28,92.11,9.12,85.58c-6.17-4-4.8-11.25,1.46-14.11,6.65-3,14.13.55,20.19,3.38,2.9,1.35,5.44-3,2.53-4.32Z"/><path d="M59.92,33.8A20.23,20.23,0,0,1,59,15.25C61.35,10,72.12-.58,76.56,8.24c3.86,7.67-5,15.07-9.74,19.89L49.71,45.66C47.46,48,51,51.51,53.24,49.2L67.72,34.36c4-4,8.36-7.95,11.49-12.7C83.42,15.28,84.1,4.45,75.78.88c-8.09-3.47-17,3.94-20.52,10.69a25.41,25.41,0,0,0,.34,24.75c1.63,2.78,5.95.26,4.32-2.52Z"/></g></g></svg>