<svg xmlns="http://www.w3.org/2000/svg" viewBox="0 0 97.21 144.8"><defs><style>.cls-1{fill:#fff;}.cls-2{fill:#ffe45f;}.cls-3{fill:#ffbc27;}</style></defs><g id="Layer_2" data-name="Layer 2"><g id="Layer_1-2" data-name="Layer 1"><path class="cls-1" d="M52.81,55.26c0,5.35-3.53,9.69,1.11,9.69s15.69-4.34,15.69-9.69-3.76-9.7-8.4-9.7S52.81,49.9,52.81,55.26Z"/><path class="cls-2" d="M11.62,45.56c-1.66,13-3.71,30,29.27,28.56,9-.38,15.52-16.88,15.52-31,0-10.59-11.27-16.65-19.9-19.18C23.3,20,13,35.06,11.62,45.56Z"/><path class="cls-2" d="M28.19,94.84c-1.67,13,11.29,33.26,36.24,33.19,9,0,21.84-17.13,16.45-30.13C76.21,86.66,64.61,82,56,79.46,42.77,75.58,29.54,84.34,28.19,94.84Z"/><path class="cls-3" d="M27,88c5.17,5.37,16.3,8.51,24.53-2.43,3-3.93,2.89-16.56-1.92-16.74-1.43-.05-4.89,3.92-9.05,4.22-4.68.35-12.63-.92-13.81-.49C20.43,74.93,22.82,83.72,27,88Z"/><path class="cls-1" d="M52.15,70.92c0,1.17.75,1.67,1.37,3.28.78,2-.73,4.64,3.52,4.64,3.68,0,14.35,6.83,17.18,8,7.56,3.09,20.35-7.08,21.59-16.78,1.56-12.13-4.73-16.46-13.35-19C69.24,47.17,52.6,60.34,52.15,70.92Z"/><path d="M44.77,74C53,69.86,56.16,60.3,57.19,51.76c.59-4.92.74-10.28-1-15-1.79-4.92-5.62-8-10.13-10.34-4.91-2.57-10.5-5.16-16.19-4.59-5,.51-9,3.57-11.95,7.43a44.11,44.11,0,0,0-7.18,15C9.3,49.37,8.1,55.09,9.18,60.41s5,9.39,10,11.48c6.08,2.57,12.81,2,19.21,1.29,1.33-.14,1.35-2.24,0-2.1-8.89.91-21,1.69-26-7.71-2.41-4.62-1.57-10.27-.5-15.14a48.82,48.82,0,0,1,5.33-14.18c2.24-3.85,5.31-7.76,9.61-9.39,5.07-1.93,10.57-.09,15.23,2.11,4.29,2,8.91,4.32,11.25,8.67,2.2,4.06,2.32,9,2,13.44C54.79,57.54,52.09,68,43.71,72.19c-1.21.61-.15,2.42,1.06,1.81Z"/><path d="M24.31,24.59A23,23,0,0,0,14.42,12.5c-2.33-1.36-5.27-2.6-8-1.77-.5.15-1.54.95-2,.89s-.64-.46-.93-.66a1.33,1.33,0,0,1-.14-.19q-.22-.4-.54.54s.38.09.47.13a2.75,2.75,0,0,1,1.15.84c.84,1.05,2.32-.44,1.48-1.49A4.45,4.45,0,0,0,3,9.22a1.6,1.6,0,0,0-1.7,2.06,3.91,3.91,0,0,0,2.51,2.33,2.57,2.57,0,0,0,1.92-.24,5.7,5.7,0,0,1,2.54-.8c3.23,0,6.57,2.39,8.81,4.53a21,21,0,0,1,5.24,8c.45,1.26,2.48.72,2-.56Z"/><path d="M44.52,25.53a82.72,82.72,0,0,0,1-9.42,33.5,33.5,0,0,0-.45-9.22A10.47,10.47,0,0,0,41.31.78C40.48.17,39.4-.38,38.52.46c-.32.31-.41.93-.84,1.1s-1-.38-1.19-.79l-.74,1.3c1.21-.21,2.4.53,3.67.31s.76-2.25-.56-2S36.46-.18,35.2,0a1.06,1.06,0,0,0-.74,1.29c.69,1.75,2.67,3.09,4.48,1.93a2.28,2.28,0,0,0,.91-1L40,2c-.54,0-.66.08-.35.21.13.21.6.4.8.57a7.86,7.86,0,0,1,2.22,3.31c1.07,2.88.93,6.1.83,9.12a74.52,74.52,0,0,1-1,9.78c-.22,1.33,1.8,1.89,2,.56Z"/><path d="M22.51,75.11A121.68,121.68,0,0,0,1,74c-1.34.05-1.35,2.15,0,2.1a119.35,119.35,0,0,1,21,1.08c1.32.18,1.89-1.84.55-2Z"/><path d="M80.11,115.37l5.67,3.74a1.05,1.05,0,0,0,1.43-.38,1.08,1.08,0,0,0-.37-1.44l-5.67-3.73a1,1,0,0,0-1.43.38,1.06,1.06,0,0,0,.37,1.43Z"/><path d="M52.58,69.72C56.77,59,68.43,50.63,80.2,51.75A16.67,16.67,0,0,1,92.26,77.69c-4,6-11.29,7.57-18,8.29-1.33.14-1.35,2.24,0,2.1C80.89,87.37,88,85.94,92.6,80.7a18.8,18.8,0,0,0-8.48-30.29c-6.47-2-13.92-.28-19.71,2.94A31.09,31.09,0,0,0,50.55,69.16c-.49,1.26,1.54,1.8,2,.56Z"/><path d="M57.78,47.74c1.5-1.38,4-1.39,5.77-.66,2.22.9,3.85,2.94,5.16,4.86.76,1.11,2.58.06,1.81-1.06C68.85,48.44,66.81,46,64,45a7.69,7.69,0,0,0-7.66,1.27c-1,.91.49,2.39,1.49,1.48Z"/><path d="M50.45,70.17c2.54,2.63,2.62,6.58,1.88,10-.81,3.75-2.54,7.81-6,9.85-6.35,3.78-16,1.67-20.1-4.54a12.51,12.51,0,0,1-1.2-11.84c.56-1.22-1.25-2.29-1.81-1.06a14.49,14.49,0,0,0,.2,12.18,16,16,0,0,0,9.49,8.18,18.42,18.42,0,0,0,13-.37C50.37,90.6,52.78,86.41,54,82s1.29-9.74-2.1-13.27c-.94-1-2.43.51-1.49,1.49Z"/><path d="M71.71,86.49s-1.08,18.09-11.77,24.94c-10.14,6.49-19.11,6.43-23.56,4.32s6.39,6,8.58,6.81,19.43-2.4,26.66-13.72c5.82-9.1,5.28-16.3,4.17-18.32S71.71,86.49,71.71,86.49Z"/><path d="M60.57,80.42s1.5,14.39-7.68,20.27c-8.7,5.57-18.25,7.76-22.07,6s0,4.24,1.85,4.89S55,110.31,61.23,100.59c5-7.81,5.11-16.75,4.16-18.48S60.57,80.42,60.57,80.42Z"/><path d="M54.21,79.85c4.58,1.11,9.24,2.22,13.41,4.48a25.43,25.43,0,0,1,8.74,7.92c4.43,6.45,5.93,14.78,2.89,22.14-2.88,7-9.39,12.53-17.11,12.81-4.76.17-9.49-1.31-13.77-3.29a38.91,38.91,0,0,1-10.3-6.74c-7-6.49-10.86-16.54-7.62-25.85.44-1.28-1.58-1.83-2-.56-3,8.74-.19,18.49,5.7,25.34a37.54,37.54,0,0,0,10.71,8.4,39.72,39.72,0,0,0,13.65,4.63c8.7,1.06,16.66-3.29,21.1-10.75a24.86,24.86,0,0,0,.51-23.95,28.26,28.26,0,0,0-9.43-10.72c-4.75-3.18-10.41-4.56-15.89-5.88-1.31-.32-1.87,1.7-.56,2Z"/><path d="M21.71,52l6.44.08,3.16,0,1.58,0a5.93,5.93,0,0,1,1.52,0L34,51.91c0-.12,0-.14,0-.08s0,.22,0,.33,0,.5,0,.76c0,.43,0,.87,0,1.31a6,6,0,0,1-.52,2.47A4.55,4.55,0,0,1,29.88,59c-1.48.2-3.46,0-4.39-1.26-1-1.49-2.12-3.67-1.86-5.54a1.08,1.08,0,0,0-.73-1.29,1.05,1.05,0,0,0-1.3.73A8.15,8.15,0,0,0,22.21,56a11.37,11.37,0,0,0,2.12,3.64c1.72,1.76,5,1.87,7.19,1.16A6.34,6.34,0,0,0,36,55.45a14.22,14.22,0,0,0,0-3.91c-.24-1.8-2.13-1.49-3.49-1.51L21.71,49.9a1.05,1.05,0,0,0,0,2.1Z"/><path d="M22,40.71a5.54,5.54,0,0,0-.57.07A2.19,2.19,0,0,0,21,41a1.69,1.69,0,0,0-.41.29l-.09.1a3.59,3.59,0,0,0-.25.33.89.89,0,0,0-.12.39.75.75,0,0,0,0,.42.7.7,0,0,0,.19.36.84.84,0,0,0,.29.27l.25.1a1.06,1.06,0,0,0,.56,0l.25-.1a1.06,1.06,0,0,0,.38-.38.61.61,0,0,1,.07-.1l-.17.21a.71.71,0,0,1,.15-.15l-.21.17.16-.1-.25.11a1.29,1.29,0,0,1,.28-.08l-.28,0,.24,0a.7.7,0,0,0,.4-.09.75.75,0,0,0,.34-.21,1.16,1.16,0,0,0,.31-.75l0-.28a1.08,1.08,0,0,0-.27-.46l-.21-.16a1,1,0,0,0-.53-.15Z"/><path d="M35.17,43.64h.09l-.28,0,.11,0-.26-.11a.36.36,0,0,1,.12.08l-.21-.17.14.14-.17-.21.09.13a.69.69,0,0,0,.27.29.8.8,0,0,0,.35.19.86.86,0,0,0,.42,0,.79.79,0,0,0,.39-.13l.21-.16a1.06,1.06,0,0,0,.27-.47l0-.27a1.08,1.08,0,0,0-.14-.53,2.36,2.36,0,0,0-.26-.36,1.87,1.87,0,0,0-.34-.29l-.07-.05-.32-.14h-.07l-.29,0h-.09a1.16,1.16,0,0,0-.74.31.67.67,0,0,0-.22.33.73.73,0,0,0-.09.41l0,.28a1.08,1.08,0,0,0,.27.46l.21.16a1,1,0,0,0,.53.15Z"/><path d="M49.49,75.07Q59.68,72.9,69.92,71c1.33-.25.76-2.27-.56-2q-10.24,1.91-20.43,4.09c-1.32.28-.76,2.3.56,2Z"/><path d="M44.58,124.05A29.25,29.25,0,0,0,30.5,137c-.64,1.19,1.17,2.26,1.81,1.06a27.46,27.46,0,0,1,13.33-12.2,1,1,0,0,0,.37-1.43,1.06,1.06,0,0,0-1.43-.38Z"/><path d="M67.85,127.3a44.68,44.68,0,0,0,6.94,17c.75,1.12,2.57.07,1.81-1.06a43.2,43.2,0,0,1-6.72-16.52c-.24-1.33-2.27-.77-2,.56Z"/></g></g></svg>