<svg xmlns="http://www.w3.org/2000/svg" viewBox="0 0 153.05 220.51"><defs><style>.cls-1{fill:#fff;}.cls-2{fill:#ffe45f;}.cls-3{fill:#ffbc27;}</style></defs><g id="Layer_2" data-name="Layer 2"><g id="Layer_1-2" data-name="Layer 1"><path class="cls-1" d="M69.86,84.27c0,8.16,5.58,14.79-1.74,14.79S43.35,92.43,43.35,84.27,49.28,69.48,56.6,69.48,69.86,76.1,69.86,84.27Z"/><path class="cls-2" d="M134.86,69.48c2.63,19.85,5.86,45.71-46.19,43.56-14.13-.58-24.49-25.75-24.49-47.34,0-16.16,17.79-25.4,31.4-29.27C116.43,30.51,132.73,53.45,134.86,69.48Z"/><path class="cls-2" d="M108.72,144.65c2.63,19.86-17.82,50.75-57.19,50.65-14.14,0-34.47-26.14-25.95-46,7.36-17.15,25.66-24.26,39.27-28.12C85.7,115.27,106.59,128.63,108.72,144.65Z"/><path class="cls-3" d="M110.61,134.29c-8.16,8.18-25.72,13-38.72-3.72-4.66-6-4.55-25.26,3-25.53,2.25-.08,7.72,6,14.28,6.44,7.39.53,19.94-1.41,21.79-.75C121,114.27,117.19,127.68,110.61,134.29Z"/><path class="cls-1" d="M70.9,108.16c.08,1.79-1.18,2.55-2.16,5-1.22,3.07,1.15,7.07-5.55,7.07-5.81,0-22.64,10.43-27.11,12.19C24.15,137.15,4,121.63,2,106.83c-2.46-18.51,7.46-25.12,21.07-29C43.93,71.92,70.2,92,70.9,108.16Z"/><path d="M84.15,110.18c-11.68-5.65-16.5-19.07-18-31.16-.87-6.85-1.15-14.19,1-20.85a21.24,21.24,0,0,1,5.53-9A38.09,38.09,0,0,1,82,43c7.05-3.58,14.88-7.16,23-6.73,7.46.39,13.52,5,17.94,10.75a63.73,63.73,0,0,1,10.18,20.77c2.2,7.36,4.21,15.75,2.64,23.41-1.46,7.11-6.5,12.25-13,15.19-7.36,3.35-15.72,3.31-23.62,2.71-2.15-.17-4.3-.38-6.45-.6-1.92-.19-1.91,2.81,0,3,8.93.89,18.23,1.81,27-.79,6.86-2,13.47-6.27,16.84-12.76,4-7.64,2.88-16.65,1.08-24.74a75.68,75.68,0,0,0-9.32-23.68c-4-6.43-9.45-12.44-16.77-15-8.27-2.91-17.13-.38-24.84,3C79.32,40.66,71.36,44.44,67,51.38,62.81,57.9,62.21,66,62.63,73.56c.74,13.27,4.53,28.32,15.74,36.65a26.38,26.38,0,0,0,4.27,2.56c1.73.84,3.25-1.75,1.51-2.59Z"/><path d="M95.58,67.2a1.5,1.5,0,0,0,0-3,1.5,1.5,0,0,0,0,3Z"/><path d="M116,63a1.5,1.5,0,0,0,0-3,1.5,1.5,0,0,0,0,3Z"/><path d="M100.8,72c.34,4.41,5,6.1,8.82,6.35,2.41.15,5.11,0,7.14-1.49a6,6,0,0,0,2.59-6.24c-.45-1.88-3.34-1.08-2.89.8a3.12,3.12,0,0,1-1.8,3.22,9.35,9.35,0,0,1-5.23.69c-2.05-.15-5.45-1-5.63-3.33a1.54,1.54,0,0,0-1.5-1.5,1.52,1.52,0,0,0-1.5,1.5Z"/><path d="M117.88,38.3a32,32,0,0,1,14.54-16.8,20.15,20.15,0,0,1,5.74-2.26,8.7,8.7,0,0,1,6,1,4.22,4.22,0,0,0,4.46-.22c1.16-.73,2.49-1.95,2.57-3.42.21-4.24-5.7-1.84-7.14-.06-1.2,1.49.91,3.63,2.12,2.13a4.1,4.1,0,0,1,1.11-.92,9.7,9.7,0,0,0,1.38-.58c.19-.18.67.52-.13-.38,3.6,4.08-.32-.39-.34-.39a4.91,4.91,0,0,0-.38.46,3.42,3.42,0,0,1-1.29.9c-.6.17-1.13-.27-1.66-.54a9.31,9.31,0,0,0-2.49-.91,12.74,12.74,0,0,0-5.39.18c-6.47,1.52-12.46,6.21-16.51,11.35A35.56,35.56,0,0,0,115,37.5c-.67,1.82,2.22,2.6,2.89.8Z"/><path d="M86,38.09a111.46,111.46,0,0,1-1.57-14.58c-.19-4.65-.4-9.61,1.19-14a12.75,12.75,0,0,1,3-4.73c.18-.19,2.22-1.67,2.23-1.65-.62-.38-.78-.38-.49,0,.09.18.19.35.29.51a4.66,4.66,0,0,0,.7.83c2.63,2.39,6.27.41,7.37-2.47a1.51,1.51,0,0,0-1-1.84,7.3,7.3,0,0,0-3,.08,7.27,7.27,0,0,1-2.8.4C90,.23,89.15,3.12,91,3.5a7.3,7.3,0,0,0,3-.09,7.46,7.46,0,0,1,2.8-.4l-1-1.84c-.36,1-1.73,1.87-2.58.92-.5-.57-.63-1.28-1.33-1.7A2.8,2.8,0,0,0,89,.67c-3.38,1.89-5.58,5.54-6.61,9.19-1.29,4.54-1.11,9.46-.9,14.13A118,118,0,0,0,83.1,38.88c.33,1.9,3.22,1.1,2.89-.79Z"/><path d="M118.51,117.55a192.72,192.72,0,0,1,33.09-1.65c1.93.07,1.93-2.93,0-3a197,197,0,0,0-33.89,1.76,1.5,1.5,0,0,0-1,1.84,1.53,1.53,0,0,0,1.84,1Z"/><path d="M87.22,124.34a127.3,127.3,0,0,0,4.46,37,1.5,1.5,0,0,0,2.89-.79,124,124,0,0,1-4.35-36.21c0-1.93-3-1.93-3,0Z"/><path d="M47.69,196.62a27.93,27.93,0,0,1-14.15,20.61c-1.7.93-.18,3.52,1.51,2.59a31,31,0,0,0,15.64-23.2,1.51,1.51,0,0,0-1.5-1.5,1.53,1.53,0,0,0-1.5,1.5Z"/><path d="M81,189.31a45.45,45.45,0,0,1,6.65,29.77c-.23,1.91,2.77,1.9,3,0a48,48,0,0,0-7.06-31.28c-1-1.63-3.63-.13-2.59,1.51Z"/><path d="M25.19,173.3,16.25,179a1.54,1.54,0,0,0-.54,2.06,1.51,1.51,0,0,0,2.05.53l8.94-5.7a1.5,1.5,0,1,0-1.51-2.59Z"/><path d="M73.27,105.5A47.52,47.52,0,0,0,55.09,83.57C46.41,77.9,35.4,74.59,25,76A29.53,29.53,0,0,0,2.55,92.48,28.28,28.28,0,0,0,5,120.17c7,10.16,19.44,12.88,31,14.06,1.92.2,1.9-2.8,0-3-9.4-1-19.76-2.87-26.46-10.16A25.35,25.35,0,0,1,4.22,96.3,26.49,26.49,0,0,1,22.43,79.54c9.47-2.44,20.13.28,28.48,5A44.51,44.51,0,0,1,70.38,106.3c.71,1.77,3.61,1,2.89-.8Z"/><path d="M64.26,70.6c-3.15-2.79-7.89-3.24-11.8-1.94-4.5,1.5-7.75,5.23-10.41,9-1.11,1.57,1.49,3.07,2.59,1.51,2.12-3,4.8-6.23,8.37-7.52,2.88-1,6.71-1,9.12,1.09,1.44,1.27,3.57-.84,2.13-2.13Z"/><path d="M71.35,104.82c-4.65,4.6-5.16,11.44-3.92,17.55C68.77,129,72.05,136,78,139.63s13.57,4.2,20.25,2.77a26.12,26.12,0,0,0,16.4-10.7,21.61,21.61,0,0,0,1.76-21c-.83-1.74-3.42-.22-2.59,1.52,2.48,5.17,1.89,11.4-.8,16.37A22.16,22.16,0,0,1,99.48,139c-5.72,1.68-12.36,1.66-17.86-.8-5.77-2.59-8.9-8.09-10.64-13.94-1.68-5.7-2.06-12.8,2.49-17.3,1.38-1.36-.74-3.48-2.12-2.12Z"/><path d="M40,131.92s1.7,27.59,18.58,38.05c16,9.9,30.15,9.81,37.17,6.59S85.7,185.79,82.25,187,51.6,183.29,40.18,166c-9.17-13.88-8.33-24.87-6.58-28S40,131.92,40,131.92Z"/><path d="M57.62,122.65s-2.36,22,12.12,30.93c13.72,8.5,28.8,11.84,34.83,9.07s0,6.48-2.92,7.47-35.28-1.87-45.08-16.69c-7.87-11.91-8.06-25.56-6.56-28.2S57.62,122.65,57.62,122.65Z"/><path d="M66.81,118.8c-7.64,1.78-15.38,3.62-22.33,7.37A42.84,42.84,0,0,0,29.86,139.3c-7.5,10.67-9.73,24.51-4.5,36.62,5.05,11.68,16.24,20.47,29.11,21.18,7.87.43,15.65-1.84,22.82-4.89A65.1,65.1,0,0,0,95,181.28c10.59-9.34,17.23-23.53,14.63-37.77a31.75,31.75,0,0,0-1.39-5c-.65-1.8-3.55-1-2.89.8,4.65,12.77,0,26.94-9,36.57a57.09,57.09,0,0,1-15.76,11.58c-6.3,3.22-13.28,5.82-20.37,6.54a29.92,29.92,0,0,1-18.39-3.71A33.38,33.38,0,0,1,30,178.36c-6.24-10.6-5.7-23.45.28-34.05a40.07,40.07,0,0,1,14.25-14.69c7.06-4.22,15.2-6.08,23.12-7.93,1.88-.44,1.08-3.33-.8-2.89Z"/></g></g></svg>