<svg xmlns="http://www.w3.org/2000/svg" viewBox="0 0 134.89 174.26"><defs><style>.cls-1{fill:#fff;}.cls-2{fill:#ffe45f;}.cls-3{fill:#ffbc27;}.cls-4{fill:#ffecc2;}.cls-5{fill:#bf3100;}.cls-6{stroke:#000;stroke-miterlimit:10;}</style></defs><g id="Layer_2" data-name="Layer 2"><g id="Layer_1-2" data-name="Layer 1"><path class="cls-1" d="M64.76,33.93c-.05,1.17,11.66,2.93,13.43,5.42C89,54.57,95.16,44.3,96.41,34.6,98,22.47,95.67,16.67,83,14.24,66.33,11,65.21,23.34,64.76,33.93Z"/><path class="cls-2" d="M66.53,95.11c-9.78,32.39-1.1,41.48,23.59,45,40.82,5.88,36.17-30.59,30.78-43.59C116.23,85.32,105,79,96,78.12,87.6,77.31,68.45,88.74,66.53,95.11Z"/><path class="cls-3" d="M57.24,112.31c5.17,5.36,23.32,5.48,31.56-5.46,3-3.93,8.64-20.67,3.84-20.85C91.21,86,82.21,96.86,73.1,99.71c-6.63,2.06-15.41,1.79-16.59,2.23C50.2,104.26,53.07,108,57.24,112.31Z"/><path d="M36.28,107c-.81,2-1.75,3.88-2.57,5.84-1.05,2.53-2.41,5.68-1.69,8.47.46,1.83,2,3.25,3.44,4.36A25.84,25.84,0,0,0,41.33,129a16.08,16.08,0,0,0,6.2,1.53c1.93,0,1.93-3,0-3a14.71,14.71,0,0,1-5.89-1.64A18.13,18.13,0,0,1,35.8,122a4.38,4.38,0,0,1-.73-1,1.71,1.71,0,0,1-.2-.89,14.59,14.59,0,0,1,1.3-5.34c.93-2.34,2-4.59,3-6.91A1.52,1.52,0,0,0,38.12,106a1.54,1.54,0,0,0-1.84,1Z"/><path d="M95,78.47c8.54.19,16.17,5.67,20.6,12.73,5,8,6.59,17.81,6.49,27.1,0,4-.49,8.25-2.39,11.84-2.06,3.89-5.63,6-9.82,7a72.91,72.91,0,0,1-15.26,1.47,56.94,56.94,0,0,1-14.16-1,18.73,18.73,0,0,1-11.79-7.77c-2.73-4.12-4.12-8.93-5.45-13.63a1.5,1.5,0,0,0-2.89.79c1.29,4.59,2.67,9.27,5.14,13.39a21.23,21.23,0,0,0,10.37,8.93c4.68,1.87,9.84,2.24,14.82,2.29a104.65,104.65,0,0,0,17.24-1.06c4.68-.72,9.41-2.37,12.5-6.13,2.86-3.47,4-7.87,4.49-12.27a60.84,60.84,0,0,0-.55-14.7,48.46,48.46,0,0,0-4.48-14.84c-4.73-9.41-14-16.94-24.86-17.18-1.93,0-1.93,3,0,3Z"/><path d="M77.58,139.16c-1.72,10-3.85,19.87-5.93,29.77-.4,1.88,2.49,2.68,2.89.79,2.09-9.9,4.21-19.79,5.93-29.76.33-1.89-2.56-2.7-2.89-.8Z"/><path d="M112.46,138.19c.06,11.55-.4,23.12-1.36,34.63-.16,1.92,2.84,1.91,3,0,1-11.51,1.42-23.08,1.36-34.63a1.5,1.5,0,0,0-3,0Z"/><path d="M121.33,133a3.24,3.24,0,0,1,.81.22l-.36-.15a3.77,3.77,0,0,1,.7.41l-.31-.23a3.08,3.08,0,0,1,.58.56l-.24-.3.1.14a1.31,1.31,0,0,0,.39.42,1.14,1.14,0,0,0,.51.27,1.11,1.11,0,0,0,.6,0,1.14,1.14,0,0,0,.56-.17,1.55,1.55,0,0,0,.69-.9,1.51,1.51,0,0,0-.16-1.16,4.86,4.86,0,0,0-1.47-1.42,5.37,5.37,0,0,0-.94-.44,3.65,3.65,0,0,0-.67-.17,1.08,1.08,0,0,0-.59,0,1.12,1.12,0,0,0-.56.18,1.5,1.5,0,0,0-.54,2l.23.3a1.47,1.47,0,0,0,.67.39Z"/><path d="M65.78,34.16c-.59-5.5,1.49-12,5.94-15.52a15.66,15.66,0,0,1,17.17-1.12c4.84,2.81,7.78,8,9.42,13.16a52.5,52.5,0,0,1,1.92,18.83,67.83,67.83,0,0,1-5.94,24.08c-.79,1.74,1.8,3.27,2.59,1.51a71.66,71.66,0,0,0,6.18-23.34c.64-7.15.36-14.64-1.75-21.54-1.79-5.88-5-11.58-10.33-14.94a18.74,18.74,0,0,0-19.54-.08C65.3,19,62,27.1,62.78,34.16c.2,1.9,3.2,1.92,3,0Z"/><path class="cls-4" d="M68.44,151.08c-.32-7.68-3.57-16.74-6.17-22.8-2-4.74-2.52-6.5-4-10.1h0c0-.07-.07-.17-.11-.25-.17-.41-.35-.84-.55-1.3C50.74,100,20.57,15.8,15.85,3.13c-.18-.48-.24-1-.64-1.37a2.22,2.22,0,0,0-2.11,0A70,70,0,0,0,6.56,4.6a3.32,3.32,0,0,0-1.41,1,3.54,3.54,0,0,0,0,3C10.41,24.4,27.32,77.54,33.37,93c3.91,11.1,8.05,28.08,12,39.16,2,5.55,6.1,17.09,7.91,20.27,2.93,5.16,7.78,11.5,13.26,15.15C67.8,164.88,68.56,154.16,68.44,151.08Z"/><path class="cls-5" d="M69.94,151.08a61.55,61.55,0,0,0-4.27-18.35c-1-2.7-2.19-5.33-3.26-8-.92-2.3-1.76-4.64-2.7-6.93l-2.51,1.45h0c1.28,1.3,3-.34,2.36-1.81-2.66-6.09-4.89-12.39-7.21-18.61Q47.11,84.78,42,70.67,36.34,55.22,30.74,39.74q-4.65-12.81-9.29-25.63c-1-2.81-2-5.63-3.07-8.44-.33-.91-.68-1.81-1-2.72C16.9,1.63,16.52.38,15,.06,13.1-.31,10.9,1,9.26,1.72S5.08,3.15,4,4.72s-.6,3.15-.1,4.7S5,12.69,5.48,14.33c1.46,4.46,2.9,8.92,4.35,13.38q5.46,16.86,11,33.7C24,71,27.17,80.57,30.66,90c4.61,12.5,7.7,25.46,11.79,38.12,1.89,5.88,4,11.7,6.27,17.45a66.67,66.67,0,0,0,3,7.12,50.57,50.57,0,0,0,5.88,8.56,39.23,39.23,0,0,0,8.15,7.55,1.5,1.5,0,0,0,2-.54c1.18-2.6,1.37-5.71,1.65-8.52a63.26,63.26,0,0,0,.47-8.7c-.07-1.92-3.07-1.93-3,0a63.87,63.87,0,0,1-.4,8.07c-.23,2.38-.44,5.73-1.31,7.64l2.06-.54a37.41,37.41,0,0,1-8.07-7.72A42.32,42.32,0,0,1,54,150.62a163.1,163.1,0,0,1-6.16-15.92C43.13,121.49,40,107.82,35.48,94.53c-1.24-3.71-2.69-7.34-4-11-1.65-4.69-3.24-9.39-4.82-14.1q-5.58-16.61-11-33.28C12.85,27.31,10,18.49,7.12,9.69,6.85,8.88,6,7.33,6.38,6.56S8,5.56,8.6,5.28c1-.48,2.07-.93,3.13-1.36a14,14,0,0,1,2.49-1c.11.06.25.77.32,1L15,5.14q1.35,3.66,2.68,7.34Q22,24.38,26.31,36.29q5.4,14.93,10.83,29.84,5.22,14.31,10.5,28.59c2.49,6.71,5,13.42,7.61,20.07.56,1.39,1.13,2.78,1.73,4.16l2.35-1.82h0c-1-1-3.1,0-2.51,1.46.9,2.19,1.7,4.41,2.57,6.6,1.06,2.67,2.24,5.29,3.25,8,2.16,5.72,4,11.77,4.31,17.92C67,153,70,153,69.94,151.08Z"/><path d="M47.17,102.25c-1.51,5.38,2.49,10.17,7.16,12.23a36.78,36.78,0,0,0,8,2.25,46.56,46.56,0,0,0,9,1,23,23,0,0,0,15.06-5.29,24.89,24.89,0,0,0,8.36-13.23c1.35-5.56,1.55-12-.59-17.39-.7-1.77-3.6-1-2.89.8A25.64,25.64,0,0,1,92.26,96a22.53,22.53,0,0,1-5.62,12,19.88,19.88,0,0,1-12.43,6.59c-4.93.55-10-.34-14.8-1.55-4.42-1.13-10.95-4.27-9.35-10a1.5,1.5,0,0,0-2.89-.8Z"/><path class="cls-5" d="M9.3,19.79l9.92-5.47,42,113s.74,4.32-6.51,6.53c-1.79.54-7,1.62-8.56-2.65S9.3,19.79,9.3,19.79Z"/><path class="cls-5" d="M10.05,21.08,20,15.61l-2.21-.9L22.15,26.5,32.51,54.36,45,87.85l10.41,28,3.21,8.64a32.44,32.44,0,0,0,1.19,3.21c-.21-.41,0-.39,0,0,0,.13,0,.25,0,.37,0-.41,0,.2-.09.33a4.9,4.9,0,0,1-2,2.5c-2.14,1.47-6,2.82-8.56,1.54-1.71-.87-2.19-3.71-2.75-5.38q-3.9-11.6-7.72-23.23Q33,86.91,27.41,70L16.92,38.16q-3-9-5.9-17.94l-.28-.83c-.6-1.83-3.49-1-2.89.8q2.14,6.49,4.28,13l10,30.41q5.76,17.46,11.53,34.91,4.38,13.27,8.8,26.53c.68,2,1.34,4.06,2.06,6.07a6.51,6.51,0,0,0,4.55,4.5c3.21.81,7.06-.26,9.79-2,2.26-1.42,4.66-4.34,3.62-7.18q-1-2.77-2.06-5.53L51.3,96.33,38.85,62.83,27.36,31.93,21,14.73l-.3-.81a1.53,1.53,0,0,0-2.21-.9L8.54,18.49C6.85,19.43,8.36,22,10.05,21.08Z"/><path d="M56,156.68a12.3,12.3,0,0,0,12.43-3.84c1.25-1.35-.54,14.71-1.75,14.71C62.89,167.55,56,156.68,56,156.68Z"/><path d="M55.62,158.13a13.32,13.32,0,0,0,9.27-.82A14.64,14.64,0,0,0,68.42,155c.25-.22.49-.45.73-.69.67-.68.28-.17-.2-.07a1.55,1.55,0,0,1-1.54-.6s-.24-.41-.08-.16c0,.05.07.41,0,.06s0,0,0,.12c0,.26,0,.51,0,.77,0,.67,0,1.34-.07,2s-.12,1.58-.21,2.37c0,.42-.09.84-.14,1.26l-.06.56c0,.11,0,.23,0,.34s0,.1,0-.05l0,.21a40.8,40.8,0,0,1-.8,4.39c-.07.25-.13.5-.21.74s-.08.18-.1.27.21-.32,0,0-.21.23.11-.1c-.1.1.39-.25.52-.29.44-.11.45-.05.23-.05s.32.08.13,0-.35-.08-.52-.14.2.12-.13-.06l-.45-.25-.47-.31-.21-.15c-.35-.25.23.19-.12-.09a23.78,23.78,0,0,1-2-1.9,46.93,46.93,0,0,1-5.5-7.24c-1-1.62-3.63-.12-2.59,1.52a55.63,55.63,0,0,0,5.44,7.26c1.47,1.66,6.63,6.92,8.32,2.89a18.36,18.36,0,0,0,1-4q.47-2.87.73-5.75a26.83,26.83,0,0,0,.16-4.2,3.44,3.44,0,0,0-.38-1.58,1.67,1.67,0,0,0-2.76-.08,12.06,12.06,0,0,1-3.92,2.79,10.82,10.82,0,0,1-3.32.8,13.17,13.17,0,0,1-1.54,0c-.23,0-.47,0-.7-.06-.42,0,.17.05-.21,0a8.48,8.48,0,0,1-1.11-.25C54.58,154.63,53.79,157.53,55.62,158.13Z"/><path d="M33.58,113.1c-.94,2.32-1.94,4.84-1.68,7.39a6.41,6.41,0,0,0,2,3.77,23.56,23.56,0,0,0,8.85,5.19,14.24,14.24,0,0,0,4.78,1c1.93,0,1.93-3,0-3a7.93,7.93,0,0,1-1-.06l-.3,0-.59-.13a18.88,18.88,0,0,1-2.46-.75,24.5,24.5,0,0,1-5.14-2.64,12.12,12.12,0,0,1-1.92-1.54A4.31,4.31,0,0,1,35,120.69c0-.1,0-.08,0,.07a1.87,1.87,0,0,1-.07-.22c0-.09-.09-.59,0-.16a7.33,7.33,0,0,1,.13-2.14,24.58,24.58,0,0,1,1.45-4.34,1.52,1.52,0,0,0-1-1.85,1.54,1.54,0,0,0-1.84,1Z"/><path d="M80.4,103a12.42,12.42,0,0,1-2.09,17.84,22.27,22.27,0,0,1-7.13,3.9,34.32,34.32,0,0,1-8.56,1.07,1.5,1.5,0,0,0,0,3,34.09,34.09,0,0,0,10.19-1.41,21,21,0,0,0,4.3-2.2,27.8,27.8,0,0,0,4.18-2.94,15.47,15.47,0,0,0,1.23-21.38c-1.24-1.48-3.36.65-2.12,2.12Z"/><path class="cls-1" d="M87.6,51.29c0,1.17.75,1.67,1.37,3.28.78,2,2.88,20.61,7.07,21.28,11.47,1.81,10.46,4.92,13.51,5,11.08.24,22.26-24.5,23.5-34.2,1.56-12.13-4.6-27-17.25-29.46C99.11,14,88.05,40.7,87.6,51.29Z"/><path d="M88.24,49.28A58.45,58.45,0,0,1,93.6,36.69a105.42,105.42,0,0,1,6.46-11.19c2.26-3.21,5.24-6.14,9.11-7.24a15.35,15.35,0,0,1,10.55,1.08c16.39,7.66,13.49,30.07,7,43.52-3.54,7.38-9,15.09-17.06,17.92-1.81.63-1,3.53.8,2.89,7.94-2.8,13.69-9.64,17.6-16.85a54.05,54.05,0,0,0,6.8-25.44c0-9.21-3.42-18.45-11.51-23.47a20,20,0,0,0-11.47-3.12,17.3,17.3,0,0,0-11.3,5.36c-3.6,3.65-6,8.33-8.39,12.79-2.7,5-5.45,10.05-6.88,15.54a1.51,1.51,0,0,0,2.9.8Z"/><path class="cls-2" d="M89.48,53.53a34.13,34.13,0,0,0-11-13.23c-8.38-5.69-19.41-6-29.31-3.86-9.57,2.08-19.3,6.9-23.75,15.63-2.36,4.65-3,10-2.84,15.22.25,7.22,2.11,14.58,6.5,20.32s16.23,14.08,23.62,14.67c13.81,1.26,32.19-4.62,37.65-15S94.7,64,89.48,53.53Z"/><path d="M90.78,52.78c-3.63-7.2-9.09-13.36-16.64-16.49s-15.91-3.1-23.75-1.62c-7.24,1.36-14.46,4.12-20.1,8.95-6.3,5.41-9,13.11-9.2,21.28s1.64,16.72,6.59,23.3c3.93,5.24,9.77,9.43,15.54,12.43a26.93,26.93,0,0,0,8.86,3.08,43,43,0,0,0,10.08-.09A51,51,0,0,0,82,97.4a28.59,28.59,0,0,0,7.22-5.77A25,25,0,0,0,94,82.41a39.49,39.49,0,0,0-.83-23.92,49.11,49.11,0,0,0-2.38-5.71c-.86-1.73-3.45-.22-2.6,1.51,5.8,11.77,7,29.59-4.52,38.4-5,3.77-11.07,6-17.12,7.22-5.65,1.16-12.18,1.87-17.73-.07A45.41,45.41,0,0,1,33,89.7c-5.14-4.93-7.84-11.64-8.65-18.65-.86-7.47-.18-15.67,4.62-21.78,4.19-5.34,10.55-8.58,17-10.46,7-2.05,14.67-2.87,21.84-1.34A28,28,0,0,1,85.44,49.56a43.69,43.69,0,0,1,2.74,4.73C89.05,56,91.64,54.5,90.78,52.78Z"/><path d="M43.58,74.66a1.5,1.5,0,0,0,0-3,1.5,1.5,0,0,0,0,3Z"/><path d="M64.21,72.9a1.5,1.5,0,0,0,0-3,1.5,1.5,0,0,0,0,3Z"/><path d="M46.73,82.22c2.71,3.67,7.88,5.06,12.28,4.83a8.06,8.06,0,0,0,6.07-2.73,5.71,5.71,0,0,0,.82-6.2c-.86-1.72-3.45-.21-2.59,1.52a2.9,2.9,0,0,1-1,3.24,6.18,6.18,0,0,1-4.42,1.18c-2.93-.1-6.74-.84-8.6-3.35a1.55,1.55,0,0,0-2.06-.54,1.5,1.5,0,0,0-.53,2Z"/><path d="M68.66,44.38C66.91,39.22,63.59,33,57.14,33.75s-11.44,7-12.6,13c-.56,2.88,0,6.59,3.2,7.56a1.51,1.51,0,0,0,1.89-1.45A4,4,0,0,0,47.38,49c-1.73-.84-3.25,1.75-1.51,2.59a1.17,1.17,0,0,1,.76,1.35l1.9-1.45c-1-.28-1.17-1.47-1.21-2.34a10.1,10.1,0,0,1,.84-4,14.54,14.54,0,0,1,5.81-7c2.52-1.54,5.57-2,7.89.12,2,1.83,3.06,4.5,3.91,7,.61,1.82,3.51,1,2.89-.8Z"/><path d="M34.63,48.65a10.38,10.38,0,0,0-7.35-8.06A24.3,24.3,0,0,0,20.11,40a50.88,50.88,0,0,0-7,.65C9.17,41.29,5,42.75,2.4,46A9.77,9.77,0,0,0,.88,56.36a1.52,1.52,0,0,0,2.59,0,3.73,3.73,0,0,0,0-4.08c-1-1.64-3.62-.14-2.59,1.51a.79.79,0,0,1,0,1.05H3.47c-1.25-2.6-.06-5.74,1.88-7.66,2.36-2.34,5.8-3.23,9-3.72a33.25,33.25,0,0,1,11.3-.18,7.5,7.5,0,0,1,6.09,6.17c.34,1.89,3.24,1.09,2.9-.8Z"/><path class="cls-6" d="M68.45,130.08s25.91,1.22,36.3-10.83C114,108.57,112.06,87,109,83.36a26,26,0,0,1,6.26,8.45c1.9,4.69,2.85,19.21-2.65,29.4-5,9.33-21.3,13.23-29.62,13.52-4.54.16-12.07-.92-12.92-1.86A7.38,7.38,0,0,1,68.45,130.08Z"/></g></g></svg>