<svg xmlns="http://www.w3.org/2000/svg" viewBox="0 0 106.99 172.78"><defs><style>.cls-1{fill:#ef8e4c;}.cls-2{fill:#77bc43;}.cls-3{fill:#7bb242;}</style></defs><title>tr-o</title><g id="Layer_2" data-name="Layer 2"><g id="Layer_1-2" data-name="Layer 1"><path class="cls-1" d="M11.4,24.5C12.32,20.44,16.83,5.21,20.54,4,25.26,2.36,29,10,32.16,14.22c1.16-4.93,7.74-10,12.4-8.74s6.82,4.16,10.28,7.79C55.58,9.74,58,2.35,61.39,2.39a6.58,6.58,0,0,1,3.8,1.74c6.74,5.38,10.22,14.45,11,23.31s-.75,17.68-2.29,26.35a27.24,27.24,0,0,1-2.77,8.88c-3.87,6.72-12,10.25-15.18,11.09h0c-10.84,4.25-23.68,0-33-9.71C10,50.49,7.2,43,11.4,24.5Z"/><path class="cls-1" d="M13.81,25.16A75.61,75.61,0,0,1,18.65,10.7c1.14-2.44,2.06-5.53,5.06-3.46,2.71,1.87,4.39,5.62,6.29,8.24a2.54,2.54,0,0,0,4.57-.59c1.14-3.6,5.17-7.68,9.32-7,3.85.63,6.71,4.53,9.18,7.15a2.52,2.52,0,0,0,4.18-1.1c.51-2.27,1.16-5.94,2.85-7.68,3-3.11,7.38,3.58,8.88,6,4.12,6.79,5.21,14.93,4.9,22.73S72.78,51.92,70,59.21C67.7,65.33,61.41,69.58,55.3,71.35l1.93,4.57h0c2.25-1.47.88-5.58-1.92-4.57C41.19,76.4,28.87,67.57,20.1,57.18c-3.41-4-6.4-8.57-7.5-13.82-1.26-6-.08-12.3,1.21-18.2C14.5,22,9.68,20.69,9,23.83,7.53,30.47,6.35,37.38,7.67,44.15c1.24,6.33,4.8,11.71,8.9,16.56,9.87,11.71,24.33,21.1,40.07,15.46L54.71,71.6h0c-2.3,1.51-.91,5.39,1.92,4.57,7.26-2.11,14.58-7.1,17.63-14.2,2.48-5.75,3.07-12.59,3.87-18.74a69.39,69.39,0,0,0,.37-17.69C77.39,16.75,73.24,5,64.64.81,57.11-2.88,53.7,7,52.43,12.61l4.18-1.11c-3.93-4.16-8.62-9.42-15-8.6-5.56.73-10.24,5.49-11.88,10.66l4.57-.6C31,8.43,24.5-3.48,17.59,3c-5,4.72-7.07,14.37-8.6,20.81C8.25,27,13.07,28.3,13.81,25.16Z"/><path class="cls-2" d="M45.42,75.82c-.32,12.6.29,25.21.89,37.77q1.29,26.47,2.57,52.94"/><path class="cls-3" d="M42.92,75.82c-.66,30.19,2,60.57,3.46,90.71.16,3.21,5.16,3.23,5,0-1.46-30.14-4.12-60.52-3.46-90.71.07-3.21-4.93-3.21-5,0Z"/><path class="cls-3" d="M34.33,115.73c3.56,7.38,6.18,15.48,8.78,23.53,3,9.4,6.13,19.12,6.37,29.14L48,170.09c-6.75-1.19-13.09-6.66-18-13.66s-8.64-15.49-12-24.06A391.9,391.9,0,0,1,2.48,83.65C15.17,88.45,26.83,100.2,34.33,115.73Z"/><path class="cls-3" d="M32.17,117c4.14,8.78,7,18.11,9.95,27.36a135.51,135.51,0,0,1,3.63,13.56c.51,2.56,1.62,6,1.15,8.6.76.22.77.54.05.95l-.76.85,2.43-.65C32.68,164.2,25.2,144.26,20,130.83A396.86,396.86,0,0,1,4.89,83L1.81,86.06c14,5.54,23.86,17.81,30.36,30.94,1.43,2.88,5.74.35,4.32-2.53C29.35,100.06,18.35,87.28,3.14,81.24,1.28,80.5-.35,82.64.07,84.32A376.35,376.35,0,0,0,17.92,139c5.56,13.22,13.9,30.12,29.37,33.5a2.53,2.53,0,0,0,2.43-.65c2.66-2.94,2.32-5,1.84-9A96.18,96.18,0,0,0,48,146.61c-3.22-10.89-6.7-21.85-11.54-32.14C35.12,111.56,30.81,114.1,32.17,117Z"/><path class="cls-3" d="M60.06,126.91a45.28,45.28,0,0,1,5.4-9.13,45.58,45.58,0,0,1,7.26-6.63L101.94,88.1c.37-.29.82-.6,1.25-.42a1.47,1.47,0,0,1,.66,1.16c.84,4.37-.43,8.81-1.77,13-2.87,9-6.11,17.74-9.35,26.52-2.56,6.95-5.27,14.12-10.33,19.22A47.7,47.7,0,0,1,74,153.82L51.74,168l-2.62,2.32C47.87,155.09,53.55,140.36,60.06,126.91Z"/><path class="cls-3" d="M62.22,128.17a41.91,41.91,0,0,1,12.26-15.25c5.63-4.47,11.28-8.9,16.92-13.35l8.46-6.67c.8-.63,3.12-1.34,1.73-2.18.81.49-.66,6.07-.84,6.8-1.6,6.65-4.25,13.18-6.57,19.6-4.61,12.8-8,25.76-20,33.6-8.88,5.84-18.9,10.76-26.85,17.83l4.26,1.77c-1-15,4.23-28.87,10.6-42.15,1.38-2.89-2.93-5.42-4.32-2.52-6.73,14-12.3,28.84-11.28,44.67a2.54,2.54,0,0,0,4.27,1.77C61.53,162.63,77.14,158.28,86.2,147c3.91-4.86,6.22-10.74,8.39-16.52,3-8.1,6-16.23,8.73-24.44,1.64-4.93,5.83-14.49,2.29-19.42-3.2-4.45-9.11,2.58-11.59,4.54-13,10.22-28.69,19.28-36.12,34.47C56.49,128.53,60.8,131.07,62.22,128.17Z"/></g></g></svg>