<svg xmlns="http://www.w3.org/2000/svg" viewBox="0 0 125.05 179.32"><defs><style>.cls-1{fill:#f48789;}.cls-2{fill:#7bb242;}.cls-3{fill:#77bc43;}</style></defs><title>tr-p</title><g id="Layer_2" data-name="Layer 2"><g id="Layer_1-2" data-name="Layer 1"><path class="cls-1" d="M83.42,11.05c-1.81-3.8-4.44-8-8.62-8.47-5.32-.65-7.66,7.57-10.13,12.33-2.26-4.62-10.26-8.35-14.91-6.18s-6.33,9.4-9.24,13.64C39,19,34.93,12.26,31.34,13a7.09,7.09,0,0,0-3.65,2.44c-6,6.59-7.78,16.16-6.78,25S25.4,57.6,28.84,65.82A26.52,26.52,0,0,0,33.6,74c5.5,5.85,14.82,7.73,18.36,7.94h0C64.28,84,77,77.34,84.78,66,95.68,50.18,91.72,28.38,83.42,11.05Z"/><path class="cls-1" d="M85.58,9.79C83.17,5,78.54-1.59,72.16.35,66.67,2,64.76,9.12,62.51,13.64h4.32c-3-5.2-10-9.13-16.13-7.8-7.12,1.55-9,9.92-12.34,15.27h4.32c-3-6.29-9.18-14.7-16.23-8-7.61,7.23-9.19,19.17-7.8,29.06A75.6,75.6,0,0,0,23.39,59c1.94,5,3.78,10.66,7,15C35.3,80.57,44.06,83.79,52,84.43c3,.24,3.12-4,.66-4.91h0l-1.32,4.82c16.83,2.36,32.77-8.43,39.28-23.79,7-16.42,2.25-35.31-5-50.76-1.36-2.91-5.67-.38-4.31,2.52C87.44,25.49,91.7,41.46,87,55.79,82.42,70,68,81.67,52.61,79.52a2.5,2.5,0,0,0-1.32,4.82h0L52,79.43c-5.86-.47-12.55-2.8-16.59-7.2-5-5.52-7.69-15-9.81-22.09C23.29,42.62,22.19,34.66,24.29,27c.74-2.73,4.2-12.39,8.53-11.13,2.44.71,4.57,5.76,5.54,7.8.85,1.78,3.39,1.47,4.32,0,2.24-3.53,3.41-8.45,6.47-11.36,4.06-3.85,11-.22,13.36,3.9a2.52,2.52,0,0,0,4.32,0c1.41-2.85,2.44-6.11,4.31-8.7,4-5.55,8.2,1,10.13,4.84C82.7,15.19,87,12.66,85.58,9.79Z"/><path class="cls-2" d="M62,83.36c-.65,14.93,1,29.78,2.42,44.62l4.41,46.09c.31,3.17,5.31,3.2,5,0L69.37,128C68,113.14,66.3,98.29,67,83.36c.14-3.22-4.86-3.21-5,0Z"/><path class="cls-3" d="M83.53,121.34c-3.74,7.68-6,16-8.35,24.19-2.67,9.61-5.38,19.54-4.06,29.43l2.4,1.48c9.21-2,17.15-8.08,22.88-15.55s9.48-16.25,12.74-25.09A290.36,290.36,0,0,0,122.6,86,71.36,71.36,0,0,0,83.53,121.34Z"/><path class="cls-2" d="M81.37,120.08a145.2,145.2,0,0,0-8.1,23c-2.08,7.41-4.22,14.88-4.83,22.59-.36,4.51-1.49,11.05,3.82,12.91,4.57,1.6,12.43-3.65,15.9-6.17,11.76-8.55,18.12-21.87,23.08-35.14A294,294,0,0,0,125,86.71c.3-1.68-1.13-3.82-3.08-3.08a75,75,0,0,0-40.56,36.45c-1.43,2.87,2.88,5.4,4.32,2.52a69.89,69.89,0,0,1,37.57-34.15l-3.07-3.07a278,278,0,0,1-15.69,55.53c-3.49,8.57-7.89,17-14.57,23.51a38.41,38.41,0,0,1-10.31,7.33c-.4.19-5.38,2.37-5.09,2.38-.57,0-1.64-1-2.15-1.33L73.62,175c-1-9.26,1-18.09,3.47-27,2.37-8.63,4.77-17.28,8.6-25.4C87.06,119.71,82.75,117.17,81.37,120.08Z"/><path class="cls-3" d="M54.48,135a45.43,45.43,0,0,0-6.93-8.44A49.56,49.56,0,0,0,39,120.83L4.81,101.37a1.51,1.51,0,0,0-1.4-.26,1.46,1.46,0,0,0-.56,1.23C2.51,106.77,4.43,111,6.39,115c4.2,8.54,8.78,16.89,13.35,25.23,3.62,6.6,7.42,13.41,13.48,17.87A52,52,0,0,0,43,163.35l25.59,11.46,3.09,2C71.08,161.54,63.14,147.58,54.48,135Z"/><path class="cls-2" d="M56.64,133.73a47.42,47.42,0,0,0-16.42-15.06c-7.95-4.58-15.94-9.08-23.91-13.62-3.39-1.93-7.2-5-10.94-6.15-1.8-.55-3.53-.35-4.54,1.47-2.76,5,2.07,13.23,4.25,17.61,3.95,8,8.22,15.75,12.5,23.53,3.72,6.75,7.62,13.63,13.87,18.37,11.5,8.74,26.88,11.28,39,19.09a2.52,2.52,0,0,0,3.76-2.16c-.9-16.05-8.64-30.06-17.52-43.08-1.8-2.65-6.14-.15-4.32,2.52,8.35,12.23,16,25.44,16.84,40.56l3.76-2.16c-9.65-6.25-21.18-9.85-31.57-14.77C28.38,153.72,22.92,141,16.43,129c-3.36-6.24-7.16-12.57-9.7-19.2-.67-1.75-.62-4.17-1.4-5.77-2-.69-2.35-.69-.93,0L7,105.47l10.24,5.84c12.47,7.1,26.75,12.86,35.12,24.94C54.14,138.88,58.48,136.38,56.64,133.73Z"/></g></g></svg>