<svg xmlns="http://www.w3.org/2000/svg" viewBox="0 0 105.77 172.85"><defs><style>.cls-1{fill:#f04c5c;}.cls-2{fill:#77bc43;}.cls-3{fill:#7bb242;}</style></defs><title>tr-r</title><g id="Layer_2" data-name="Layer 2"><g id="Layer_1-2" data-name="Layer 1"><path class="cls-1" d="M22.45,24.5C23.37,20.44,27.88,5.21,31.59,4,36.31,2.36,40,10,43.21,14.22c1.16-4.93,7.74-10,12.4-8.74s6.82,4.16,10.28,7.79C66.63,9.74,69,2.35,72.44,2.39a6.58,6.58,0,0,1,3.8,1.74c6.74,5.38,10.22,14.45,11,23.31S86.51,45.12,85,53.79a27.24,27.24,0,0,1-2.77,8.88C78.33,69.39,70.2,72.92,67,73.76h0c-10.84,4.25-23.68,0-33-9.71C21,50.49,18.25,43,22.45,24.5Z"/><path class="cls-1" d="M24.86,25.16A75.61,75.61,0,0,1,29.7,10.7c1.14-2.44,2.06-5.53,5.06-3.46,2.71,1.87,4.39,5.62,6.29,8.24a2.54,2.54,0,0,0,4.57-.59c1.14-3.6,5.17-7.68,9.32-7,3.85.63,6.71,4.53,9.19,7.15a2.51,2.51,0,0,0,4.17-1.1c.51-2.27,1.16-5.94,2.85-7.68,3-3.11,7.38,3.58,8.88,6,4.12,6.79,5.21,14.93,4.9,22.73s-1.1,16.9-3.86,24.19c-2.32,6.12-8.61,10.37-14.72,12.14l1.93,4.57h0c2.25-1.47.88-5.58-1.92-4.57C52.24,76.4,39.92,67.57,31.15,57.18c-3.41-4-6.4-8.57-7.5-13.82-1.26-6-.08-12.3,1.21-18.2.69-3.13-4.13-4.47-4.82-1.33-1.46,6.64-2.64,13.55-1.31,20.32,1.23,6.33,4.79,11.71,8.89,16.56C37.49,72.42,52,81.81,67.69,76.17L65.76,71.6h0c-2.3,1.51-.9,5.39,1.92,4.57,7.26-2.11,14.58-7.1,17.63-14.2,2.48-5.75,3.07-12.59,3.87-18.74a69.39,69.39,0,0,0,.37-17.69C88.44,16.75,84.29,5,75.69.81,68.16-2.88,64.75,7,63.48,12.61l4.18-1.11c-3.92-4.16-8.62-9.42-15-8.6-5.56.73-10.24,5.49-11.88,10.66l4.57-.6C42.09,8.43,35.55-3.48,28.64,3c-5,4.72-7.07,14.37-8.6,20.81C19.3,27,24.12,28.3,24.86,25.16Z"/><path class="cls-2" d="M56.47,75.82c-.32,12.6.29,25.21.9,37.77q1.27,26.47,2.56,52.94"/><path class="cls-3" d="M54,75.82c-.66,30.19,2,60.57,3.46,90.71.16,3.21,5.16,3.23,5,0C61,136.39,58.31,106,59,75.82c.07-3.21-4.93-3.21-5,0Z"/><path class="cls-3" d="M42.7,116.53c4.36,7.22,7.46,15.19,10.55,23.11,3.6,9.25,7.26,18.82,7.21,28.78l-2,1.74c-8.73-.94-16.77-6.15-22.94-12.95s-10.66-15.1-14.7-23.52A306.79,306.79,0,0,1,2.51,85.74C18.81,90.06,33.53,101.34,42.7,116.53Z"/><path class="cls-3" d="M40.54,117.79c5.13,8.74,8.79,18.27,12.3,27.75a89.61,89.61,0,0,1,4.28,14.32,41.46,41.46,0,0,1,.69,4.84c-.46,1.17-.24,1.88.67,2.13-.18.51-1.4,1.19-1.83,1.56l2.43-.65c-17.57-2.39-27.76-18.32-35-33A304,304,0,0,1,4.92,85.08L1.84,88.16c16.31,4.53,29.83,15.3,38.7,29.63,1.69,2.73,6,.23,4.32-2.52C35.32,99.86,20.72,88.21,3.17,83.33A2.52,2.52,0,0,0,.1,86.41a316.59,316.59,0,0,0,17,45.24C23.28,145,30.59,159,43.38,167.2c3.72,2.39,11.77,7,16.3,5.11s3.29-7.16,2.72-11c-1.21-8.33-4.35-16.19-7.4-24a153.23,153.23,0,0,0-10.14-22C43.23,112.5,38.91,115,40.54,117.79Z"/><path class="cls-3" d="M68,126.71a45.32,45.32,0,0,1,4.17-9.1,38.42,38.42,0,0,1,5.72-6.53l23.16-22.6c.29-.28.65-.58,1-.39a1.72,1.72,0,0,1,.56,1.19c.78,4.43-.14,8.89-1.13,13.08-2.11,9-4.53,17.77-7,26.58-1.91,6.95-3.94,14.14-7.92,19.17A37.26,37.26,0,0,1,80,154.24L62.24,168l-2.07,2.29C58.79,154.9,63.05,140.15,68,126.71Z"/><path class="cls-3" d="M70.42,127.37A41,41,0,0,1,81,111.52L94.65,98.23c2.21-2.16,4.87-4.25,6.81-6.65l1.37-1.33c-2-.14-2.78.48-2.44,1.88-.47,1.2-.33,4.93-.51,5.92-1.13,6.36-3,12.65-4.65,18.89-2.83,10.57-4.63,24.39-13,32.2-7.46,7-17,11.84-23.82,19.41l4.26,1.77c-1.12-14.89,2.68-29.08,7.75-42.95,1.1-3-3.73-4.33-4.82-1.33-5.21,14.27-9.08,29-7.93,44.28.16,2,2.72,3.49,4.27,1.77,8.41-9.31,21.89-14.27,28.55-25.18,3.56-5.83,5.2-12.68,7-19.2,2.17-7.88,4.32-15.77,6.2-23.73,1-4.37,3.82-13.21.53-17.17S96,90,93.84,92c-5.9,5.76-11.84,11.49-17.71,17.29A43.22,43.22,0,0,0,65.6,126C64.47,129.06,69.3,130.37,70.42,127.37Z"/></g></g></svg>