<svg xmlns="http://www.w3.org/2000/svg" viewBox="0 0 118.04 170.48"><defs><style>.cls-1{fill:#facc37;}.cls-2{fill:#77bc43;}.cls-3{fill:#71ba44;}</style></defs><title>tr-y</title><g id="Layer_2" data-name="Layer 2"><g id="Layer_1-2" data-name="Layer 1"><path class="cls-1" d="M22.86,24.26c.95-3.93.56-16.48,9.26-19.9,4.64-1.81,9.46,2.89,12.61,6.94,1.19-4.77,6.72-6.84,11.37-5.63s7.54.55,11,4c.76-3.42,2.46-7.14,5.86-7.12,1.38,0,7.26.79,8.38,1.65C88,9.38,86.82,18.1,87.56,26.64s-.87,17.07-2.48,25.45a25.7,25.7,0,0,1-2.82,8.59c-3.91,6.51-12.05,10-15.24,10.81h0c-10.86,4.17-26.21,3.73-35.45-5.59C18.69,52.91,18.54,42.13,22.86,24.26Z"/><path class="cls-1" d="M25.27,24.92c.81-3.9.83-7.93,2.21-11.72.87-2.4,2.35-5.13,4.82-6.18,4.45-1.89,8.26,3.06,10.66,6.05,1.27,1.58,3.62.49,4.18-1.11,2.28-6.56,14.14-4.11,18.16-.49a2.53,2.53,0,0,0,4.18-1.1c1.22-4.78,3.2-5.63,7.67-4.77C81,6.34,82.83,9,83.84,12.81,85.56,19.18,85.49,27.4,85.17,34c-.36,7.51-1.13,17.2-4.36,24.14-2.58,5.56-8.73,9.33-14.45,11l1.92,4.57h0c2.27-1.45.85-5.58-1.93-4.56C52.82,74,38.68,71.39,29.54,59.88c-8.43-10.6-7.22-22.5-4.27-35,.74-3.13-4.08-4.46-4.82-1.33-3.45,14.53-4.15,28,5.78,40.13C36.47,76.22,52.74,79.33,67.69,73.9l-1.93-4.57h0c-2.33,1.49-.88,5.38,1.93,4.57,7.62-2.19,15.19-7.38,18.15-15,4.22-10.81,4.64-23.91,4-35.31-.4-7.43-.26-18.48-8.42-22.1C78.79.37,73.94-.5,71.07.33,67.21,1.44,65.56,5.52,64.66,9l4.18-1.1c-7.1-6.39-22.77-8.1-26.52,2.7l4.17-1.11C41.4,3.2,33.5-2,26.58,5.11c-4.92,5.06-4.79,12-6.13,18.48C19.79,26.73,24.61,28.07,25.27,24.92Z"/><path class="cls-2" d="M56.47,73.53c-.32,12.6.29,25.21.9,37.77q1.27,26.47,2.56,52.94"/><path class="cls-3" d="M54,73.53c-.66,30.19,2,60.57,3.46,90.71.16,3.2,5.16,3.22,5,0C61,134.1,58.31,103.72,59,73.53c.07-3.22-4.93-3.22-5,0Z"/><path class="cls-3" d="M42.7,114.24c4.36,7.22,7.46,15.19,10.55,23.11,3.6,9.25,7.26,18.81,7.21,28.78l-2,1.73c-8.73-.93-16.77-6.15-22.94-12.94s-10.66-15.11-14.7-23.52A306.79,306.79,0,0,1,2.51,83.45C18.81,87.77,33.53,99,42.7,114.24Z"/><path class="cls-3" d="M40.54,115.5c5.13,8.74,8.79,18.27,12.3,27.75a89.61,89.61,0,0,1,4.28,14.32,41.46,41.46,0,0,1,.69,4.84c-.46,1.16-.24,1.87.67,2.13-.18.51-1.4,1.19-1.83,1.56l2.43-.65c-17.57-2.39-27.76-18.33-35-32.95A304,304,0,0,1,4.92,82.79L1.84,85.86c16.31,4.54,29.83,15.31,38.7,29.64,1.69,2.73,6,.22,4.32-2.52C35.32,97.56,20.72,85.92,3.17,81A2.52,2.52,0,0,0,.1,84.12a316,316,0,0,0,17,45.23c6.22,13.37,13.53,27.36,26.32,35.56,3.72,2.39,11.77,7,16.3,5.11s3.29-7.17,2.72-11c-1.21-8.33-4.35-16.19-7.4-24a152.73,152.73,0,0,0-10.14-22C43.23,110.2,38.91,112.72,40.54,115.5Z"/><path class="cls-3" d="M71.11,124.62a44.93,44.93,0,0,1,5.41-9.14,45,45,0,0,1,7.25-6.62l29.22-23c.37-.29.82-.6,1.25-.42s.58.7.66,1.16c.84,4.37-.43,8.81-1.77,13-2.87,8.94-6.11,17.73-9.35,26.52-2.56,6.94-5.27,14.12-10.33,19.21a47.27,47.27,0,0,1-8.39,6.27L62.79,165.7,60.17,168C58.92,152.8,64.6,138.07,71.11,124.62Z"/><path class="cls-3" d="M73.27,125.88a41.91,41.91,0,0,1,12.26-15.25c5.63-4.47,11.28-8.9,16.92-13.35l8.46-6.67c.8-.64,3.12-1.34,1.73-2.18.81.49-.66,6.06-.84,6.8-1.6,6.65-4.25,13.17-6.57,19.6-4.61,12.8-8,25.75-20,33.6-8.88,5.84-18.9,10.76-26.85,17.83L62.67,168c-1-15,4.23-28.87,10.6-42.15,1.38-2.89-2.93-5.43-4.32-2.52-6.73,14-12.3,28.84-11.28,44.67a2.54,2.54,0,0,0,4.27,1.77c10.64-9.46,26.25-13.82,35.31-25.07,3.91-4.86,6.22-10.74,8.39-16.53,3-8.09,6-16.23,8.73-24.43,1.64-4.93,5.83-14.49,2.29-19.42-3.2-4.45-9.11,2.58-11.59,4.54C92.12,99.1,76.39,108.17,69,123.36,67.54,126.24,71.85,128.77,73.27,125.88Z"/></g></g></svg>