<svg xmlns="http://www.w3.org/2000/svg" viewBox="0 0 105.42 172.92"><defs><style>.cls-1{fill:#f04c5c;}.cls-2{fill:#77bc43;}.cls-3{fill:#7bb242;}</style></defs><g id="Layer_2" data-name="Layer 2"><g id="Layer_1-2" data-name="Layer 1"><path class="cls-1" d="M22.45,24.57C23.37,20.51,27.88,5.28,31.59,4,36.31,2.43,40,10.08,43.21,14.29c1.16-4.93,7.74-10,12.4-8.74s6.82,4.16,10.28,7.79C66.63,9.81,69,2.42,72.44,2.46a6.58,6.58,0,0,1,3.8,1.74c6.74,5.38,10.22,14.45,11,23.31S86.51,45.19,85,53.86a27.24,27.24,0,0,1-2.77,8.88C78.33,69.46,70.2,73,67,73.83h0c-10.84,4.25-23.68,0-33-9.71C21,50.56,18.25,43.06,22.45,24.57Z"/><path class="cls-1" d="M24.86,25.23A80.85,80.85,0,0,1,29.15,12c.33-.77.93-2.07,1.44-3,.24-.45.5-.9.78-1.33.13-.21.27-.41.42-.62s-.08.09-.09.11A3.27,3.27,0,0,1,32,6.8c.11-.12.24-.24.36-.36.34-.39-.26.06,0,0s.12,0-.13,0c.18,0,.35-.11.53-.14-.27,0,0,0,.1,0,.38,0-.06-.09.45.07.35.11.25.08.36.14a5.25,5.25,0,0,1,1.44,1.07c2.39,2.29,4,5.32,5.92,8,1.21,1.63,4,1.67,4.57-.59.87-3.38,4.77-7,8.24-7.11a9.32,9.32,0,0,1,5,2.06,45.68,45.68,0,0,1,5.21,5.2A2.52,2.52,0,0,0,68.3,14a26,26,0,0,1,2.23-6.6A7.77,7.77,0,0,1,72.07,5.2c.53-.5-.35.18.23-.17s-.39,0,.19-.08c-.58.09,0,0,.1,0a4.74,4.74,0,0,1,1.33.62C79,8.82,82,15.18,83.54,20.78c1.89,7,1.66,14.31.78,21.44-.49,4-1.18,7.93-1.93,11.86-.62,3.28-1.46,6.52-3.54,9.21a22.65,22.65,0,0,1-6.58,5.54,22.17,22.17,0,0,1-5.92,2.59L68.28,76h0a2.52,2.52,0,0,0,1-3.12,2.48,2.48,0,0,0-3-1.45c-10.31,4-21.42-.34-29.11-7.61A63.11,63.11,0,0,1,27.27,52a29.11,29.11,0,0,1-2.65-5.21,26,26,0,0,1-.79-2.6,24.86,24.86,0,0,1-.51-2.72c-.59-5.48.34-10.94,1.54-16.27.71-3.13-4.11-4.47-4.82-1.33-1.19,5.32-2.21,10.85-1.83,16.32a30,30,0,0,0,4,13.07A66.19,66.19,0,0,0,32.53,66.18,40.58,40.58,0,0,0,48.4,76.34a28.71,28.71,0,0,0,19.29-.1l-1.93-4.57h0c-2.32,1.52-.9,5.34,1.92,4.57a29.94,29.94,0,0,0,14-8.55,22.7,22.7,0,0,0,5.16-10.3c1-4.28,1.64-8.69,2.23-13,1.15-8.4,1.53-17-.78-25.28A37,37,0,0,0,83.83,9a24.33,24.33,0,0,0-7.75-8C68.46-3.3,64.69,7,63.48,12.68l4.18-1.11c-3.74-3.93-8.33-9.3-14.41-8.68A15.22,15.22,0,0,0,40.8,13.63l4.57-.6c-2.1-2.83-3.82-6-6.27-8.54C36.85,2.14,33.3.23,30.1,2,28,3.08,26.74,5.46,25.73,7.5a68.31,68.31,0,0,0-3.46,8.73c-.84,2.52-1.63,5.08-2.23,7.67C19.32,27,24.14,28.37,24.86,25.23Z"/><path class="cls-2" d="M56.47,75.89c-.32,12.6.29,25.21.9,37.77q1.27,26.47,2.56,52.94"/><path class="cls-3" d="M54,75.89c-.29,11.86.22,23.7.79,35.54s1.13,23.42,1.7,35.13l1,20c.16,3.21,5.16,3.23,5,0-1.14-23.51-2.56-47-3.32-70.56-.22-6.72-.31-13.43-.14-20.15.08-3.21-4.92-3.21-5,0Z"/><path class="cls-3" d="M42.7,116.6c4.36,7.22,7.46,15.19,10.55,23.11,3.6,9.25,7.26,18.82,7.21,28.78l-2,1.74c-8.73-.94-16.77-6.15-22.94-12.95s-10.66-15.1-14.7-23.52A306.79,306.79,0,0,1,2.51,85.81C18.81,90.13,33.53,101.41,42.7,116.6Z"/><path class="cls-3" d="M40.54,117.86c4.62,7.71,7.83,16.12,11.06,24.47S58,159.39,58,168.49l.73-1.77-2,1.74,1.77-.73c-12.48-1.44-22-11.66-28.23-21.73a163.1,163.1,0,0,1-9.45-18.18q-4.44-9.64-8.18-19.6Q8.29,96.84,4.92,85.15L1.84,88.22A65.05,65.05,0,0,1,34,108.79a67,67,0,0,1,6.56,9.07c1.67,2.75,6,.24,4.32-2.52a72.1,72.1,0,0,0-30.6-27.85A67.34,67.34,0,0,0,3.17,83.4,2.52,2.52,0,0,0,.1,86.48,308.43,308.43,0,0,0,12,120.27c4.42,10.56,9.12,21.32,15.54,30.84,5.93,8.8,13.84,16.69,24.08,20.16a31.31,31.31,0,0,0,3.41.94c1.36.28,3.36.92,4.64.17a10.75,10.75,0,0,0,1.44-1.18,6.46,6.46,0,0,0,1.5-1.45c.7-1.21.33-3.18.23-4.52-.12-1.61-.32-3.21-.58-4.8a66.87,66.87,0,0,0-2-8.61c-1.88-6.25-4.36-12.33-6.79-18.39a125.78,125.78,0,0,0-8.59-18.09C43.21,112.58,38.88,115.09,40.54,117.86Z"/><path class="cls-3" d="M68,126.78a45.32,45.32,0,0,1,4.17-9.1,38.42,38.42,0,0,1,5.72-6.53l23.16-22.6c.29-.28.65-.58,1-.39a1.72,1.72,0,0,1,.56,1.19c.78,4.43-.14,8.89-1.13,13.08-2.11,9-4.53,17.77-7,26.58-1.91,7-3.94,14.14-7.92,19.17A37.26,37.26,0,0,1,80,154.31L62.24,168.1l-2.07,2.29C58.79,155,63.05,140.22,68,126.78Z"/><path class="cls-3" d="M70.42,127.44c1.36-3.69,2.82-7.44,5.38-10.49s5.64-5.76,8.5-8.55l9.26-9,4.64-4.52,2.49-2.43A11.15,11.15,0,0,1,103,90.28l-1.92.25.35,0-1.1-.65-.15-.27c.06.27.11.55.15.83s0,.51.07.76a22.73,22.73,0,0,1,0,2.61,31.8,31.8,0,0,1-.65,5c-.67,3.32-1.53,6.61-2.36,9.89-1.69,6.71-3.53,13.39-5.36,20.06-1.54,5.57-3,11.35-6.21,16.26a26.78,26.78,0,0,1-5.95,6.21c-2.63,2.11-5.31,4.15-8,6.22l-9.45,7.35a30.47,30.47,0,0,0-4,3.82l4.26,1.77c-1.27-14.81,2.68-29.18,7.75-42.95a2.5,2.5,0,0,0-4.82-1.33c-5.21,14.15-9.24,29.07-7.93,44.28.18,2,2.7,3.51,4.27,1.77.67-.73,1.29-1.54,2-2.22,1.8-1.71,4-3.14,6-4.67,4.38-3.41,8.8-6.78,13.15-10.24A30.62,30.62,0,0,0,92,144.21a82,82,0,0,0,4.81-13.91c1.44-5.25,2.88-10.49,4.26-15.75s2.91-10.63,3.82-16a29.07,29.07,0,0,0,.4-8.22c-.15-1.27-.27-2.73-1.22-3.71a3.21,3.21,0,0,0-4.45-.08c-2.12,1.78-4,3.9-6,5.84l-6.06,5.91c-4.35,4.25-8.79,8.44-13.07,12.78a32.32,32.32,0,0,0-5.24,6.69,58,58,0,0,0-3.62,8.38,2.52,2.52,0,0,0,1.74,3.08A2.56,2.56,0,0,0,70.42,127.44Z"/></g></g></svg>