<svg xmlns="http://www.w3.org/2000/svg" viewBox="0 0 125.8 126.57"><defs><style>.cls-1{fill:#fff;}.cls-2{fill:#ffcb4a;}</style></defs><title>white-f</title><g id="Layer_2" data-name="Layer 2"><g id="Layer_1-2" data-name="Layer 1"><path class="cls-1" d="M119.15,81.41C114.48,72.67,112,71,103,66.69s-16.33-5.75-26.19-6.62a57.66,57.66,0,0,0,34.48-7.35c4.09-2.36,8-5.35,10.35-9.44s2.94-9.46.48-13.49-7.46-6-12.16-5.79-9.15,2.21-13.18,4.65c-7.2,4.37-20.1,16.9-25,23.75,5.11-10.81,15.1-27.74,15.83-39.69C88.27,2.05,80.07,1.77,75.94,2.06A6.67,6.67,0,0,0,71.8,4.24c-2.58,2.65-3.78,6.33-4.74,9.9C65.23,21,64.69,43.8,64,50.84c-2-7.5-5.86-30.56-9.9-37.22a28.27,28.27,0,0,0-6.67-8.06A12.29,12.29,0,0,0,37.54,3c-5.15,1.17-8.46,6.65-8.66,11.93s2,10.35,4.6,15C38,38,47.88,48.75,55.1,54.53c-5.31-3.55-14.86-10-20.91-12-8.52-2.79-18.39-2.84-25.92,2-4,2.58-7.34,7.31-6,11.87,1,3.19,3.9,5.33,6.87,6.83,10.32,5.2,31.86,3.5,43.42,1.8C41.33,72.81,22.07,84.54,14.71,96c-2.39,3.72-4.55,8.54-2.29,12.34,1.72,2.89,5.44,4,8.81,3.93,9.45-.08,17.6-6.65,23.7-13.87,6.63-7.85,12-17.14,13.4-27.32.3,10.73-2.29,18.13-.09,28.63s5.17,21,15.41,24.18c5.16,1.61,11.27.14,14.12-4.46.69-1.13,2.4-4.8,2.4-4.8,1.55-3.73-.08-8.35-1.89-12.29C82.7,90.27,77.39,82.2,69.52,71.43A159.46,159.46,0,0,0,90.59,91.85c6.2,5,5,4.13,12.52,6.61a21.1,21.1,0,0,0,9.42,1.21,10.71,10.71,0,0,0,7.86-4.86C122.75,90.75,121.36,85.54,119.15,81.41Z"/><path d="M120.87,80.4a32,32,0,0,0-15.49-14.78,81,81,0,0,0-28.56-7.55v4c13.21,1.17,27.1-1.78,38.17-9.3,8.25-5.6,15.65-17.93,6.8-26.56C105.44,10.27,78.91,39.37,70.05,51.39l3.46,2c4.76-9.95,30.56-52,5.14-53.39C68-.57,65.09,11.39,64.11,19.91,62.91,30.18,63,40.55,62,50.84l3.93-.53c-2.6-9.81-4-19.91-6.94-29.65C56.36,11.91,50.23.82,39.76.78,26.67.73,25.34,16.54,29.17,25.65c5,11.82,14.71,22.28,24.52,30.29l2.42-3.14C47,46.69,37.67,40,26.42,38.84,16.82,37.84,1,41.48,0,53.43-.8,63.66,12.15,67.17,20,68.15c11,1.36,22.24.4,33.13-1.16l-1.54-3.65c-10.31,7-21.1,13.66-30.3,22.18-5.8,5.38-17.29,17.8-9.08,25.69s21.91.36,28.61-5.61c9.76-8.72,17.35-21,19.46-33.95l-3.93-.53c.09,7.24-1.23,14.42-.94,21.65a60.69,60.69,0,0,0,3.77,18.15c3.29,8.93,11,17.28,21.4,15.38,8.83-1.61,13.84-11.54,11.45-19.82-3.75-13-12.89-25.24-20.76-36.06l-3.14,2.43c9.21,10.62,20,23,33.73,27.3,6,1.9,13.2,2.88,18.26-1.84,5.26-4.9,3.61-12.2.77-17.91-1.14-2.31-4.59-.29-3.45,2,1.68,3.37,3.28,7.75,1.25,11.38-1.81,3.21-5.92,4.15-9.31,4a31.77,31.77,0,0,1-12.92-3.92C86.78,88.12,78.22,78.41,70.94,70c-1.47-1.69-4.49.58-3.14,2.42A187.3,187.3,0,0,1,83.9,97.9c2.46,4.86,6.29,10.95,4.19,16.51-1.67,4.43-4.75,7.9-9.79,8.12-10.66.48-15.13-10.69-17.21-19.22-2.66-10.93-.62-21.16-.76-32.19,0-2.16-3.55-2.83-3.93-.53C54.7,81,49.46,90.37,42.48,98.22a41.17,41.17,0,0,1-11.87,9.67c-4.53,2.29-15.12,5-16.8-2C11.72,97.05,25,87.26,30.91,82.62,38.19,77,46,72,53.59,66.79a2,2,0,0,0-1.54-3.65,146.78,146.78,0,0,1-23.79,1.58c-6.64-.15-23.87-.78-24.08-10.33-.12-6.07,6.68-9.64,11.78-11A31.07,31.07,0,0,1,32.14,44c8,2.28,15.13,7.69,22,12.25,1.87,1.24,4.2-1.7,2.43-3.14C48.62,46.66,41.1,38.77,35.86,30c-3.08-5.16-6.23-11.71-4.52-17.83,2.25-8,10.59-9.17,16.34-3.7,6,5.66,7.77,13.8,9.59,21.48C59,37.06,60.18,44.3,62.05,51.38c.61,2.3,3.73,1.62,3.93-.54.69-7.38.85-14.82,1.37-22.23S67.79,5.32,77.22,4c20.41-2.87-4.06,40.9-7.17,47.39a2,2,0,0,0,3.46,2,107.77,107.77,0,0,1,16.1-16.77c6.62-5.77,16.12-13.1,25.43-9.91,6.72,2.29,8.14,9.78,4.89,15.54-2.59,4.57-7.35,7.59-11.89,9.94a56.69,56.69,0,0,1-31.22,5.86c-2.57-.23-2.55,3.76,0,4a75.27,75.27,0,0,1,26.54,7,28.74,28.74,0,0,1,14.06,13.35C118.65,84.68,122.11,82.66,120.87,80.4Z"/><path class="cls-2" d="M72,54.07a12.52,12.52,0,0,0-14.55-.94c-4.35,2.66-6.5,8.67-4.32,13.28a10.78,10.78,0,0,0,9,5.86,13.48,13.48,0,0,0,10.14-4,11.2,11.2,0,0,0,3.5-7.29C75.83,58.17,75.73,56.53,72,54.07Z"/><path d="M73,52.34c-6-4.28-14.64-4.21-19.61,1.7-4.45,5.27-4.1,13.26,1.49,17.55C67.14,81,86.77,62.16,73,52.34c-2.1-1.49-4.1,2-2,3.46,9.72,6.92-8.52,21.31-15.53,10.69-2.56-3.88-.72-9.24,3-11.63,4.09-2.63,8.78-1.75,12.53.94C73,57.3,75,53.83,73,52.34Z"/></g></g></svg>