<svg xmlns="http://www.w3.org/2000/svg" viewBox="0 0 213.52 195.58"><defs><style>.cls-1{fill:#f9efc7;}.cls-2{fill:#fdbb36;}.cls-3{fill:#feeb62;}.cls-4{fill:#febc38;}</style></defs><title>y-flower1</title><g id="Layer_2" data-name="Layer 2"><g id="Layer_1-2" data-name="Layer 1"><path class="cls-1" d="M205.18,49.24c-2.75-6.45-7.76-12.16-14.34-14.57-10.5-3.86-22.38,1.4-30.47,9.12a41.91,41.91,0,0,0-4.44,5,57.67,57.67,0,0,0-1.29-12.12c-1.35-6.64-3.36-13.41-7.76-18.57s-11.71-8.35-18.14-6.19c-7.08,2.39-10.77,10-13.3,17.05a205.74,205.74,0,0,0-8.69,31.87,96.64,96.64,0,0,0-6.52-18c-3.07-6.64-6.62-13.21-11.9-18.26s-12.6-8.42-19.85-7.49a14.52,14.52,0,0,0-8.06,3.53c-4.12,3.85-4.86,10.12-4.32,15.74,1.44,15,10.07,28.6,21,39,3.45,3.27,7.48,8.14,4.89,12.13L69.1,80.32c-9.86-5.46-20.33-11.09-31.59-10.77A32.25,32.25,0,0,0,10.59,86.12C8,90.91,6.69,96.71,8.53,101.84c2.1,5.83,7.79,9.62,13.58,11.82,19.06,7.2,40.34,1.16,59.58-5.55-14.12,20.55-25.43,45.1-21.47,69.71a17.43,17.43,0,0,0,2.66,7.6c3.83,5.28,11.56,5.66,17.95,4.39,24.27-4.83,43.71-27.66,44.62-52.38l11.79,21.46c4.1,7.47,8.33,15.11,14.73,20.74s15.52,9,23.61,6.27c10.62-3.52,15.87-16.39,14.07-27.44s-8.94-20.43-16.59-28.6c-6.5-6.94-14.2-13.7-23.64-14.86,16.42-2.54,32.94-8.38,44.68-20.14S211.69,64.52,205.18,49.24Z"/><path class="cls-2" d="M104.71,75.67C104,59,102.81,41.23,92.29,27.49c-7.49-9.78-24.22-20.27-36-10.87S53.79,44.5,60.21,54.28C69.08,67.79,81.07,79.09,87.9,93.92l3.93-3C71.29,69.79,36.09,56.74,10.5,77.56c-9.8,8-15.33,22.93-4.83,32.75s28.59,9.61,41.87,9.2A145.69,145.69,0,0,0,104.2,106c2.19-1,1.15-3.86-.6-4.57-7.19-3-14,4.09-18.76,8.61a100,100,0,0,0-15.36,18.66c-8.45,13.22-16,31-15.09,47,1,16.35,16.25,22.32,30.69,19,14.83-3.41,26.9-14.32,34.5-27.17,9-15.16,13.93-35.8,4.7-51.92a2.53,2.53,0,0,0-4.57.6c-2,7.75,1.64,14.64,5,21.43A213.93,213.93,0,0,0,137,159.78c7.74,11.82,19.05,25.38,33.92,27.53,13.27,1.92,23.43-8.17,25.16-20.83,2.08-15.22-8.36-28.41-19-37.93a120,120,0,0,0-48-26c-2.8-.77-4.26,3-1.93,4.57,13.28,8.73,32.39,5.24,46.27-.24,14.33-5.66,28.81-15.85,36.16-29.76s4.1-30.94-5.69-42.83c-4.49-5.45-10.78-9.46-18-9.24-7.42.22-14,4.34-19.54,8.94-13.51,11.2-25,25.62-34.47,40.32-2.92,4.55-10.54,13.38-7.86,19.31,3,6.77,10.8,1.13,14.2-2.08,11.32-10.72,16.76-28.07,19.61-43s2.34-33.75-10.61-44.06C141.68.22,134.54-1.5,128,1.53s-10.24,9.74-12.54,16.2c-3.23,9.1-4.22,19.2-5.1,28.76-1.06,11.46-1.3,23-1.55,34.47-.07,3.22,4.93,3.22,5,0,.32-15.08.61-30.25,2.81-45.2,1.47-10,3.69-27.55,15.71-30.49C147.7,1.51,154.15,23,154.22,34.17c.08,13.2-4,27.32-9.59,39.22a47.57,47.57,0,0,1-10,14.66c-.68.64-5,5.13-6,1.93-.17-.56,1.5-3.13,1.66-3.44,1.91-3.56,4.1-7,6.3-10.38A191.1,191.1,0,0,1,162.4,44.43c8.94-8.87,22.52-20.73,34.73-9.91,10.36,9.18,14.7,26.13,8.77,38.75-6.23,13.23-19.9,23.11-33.11,28.54-12.76,5.24-30.85,9.14-43.17,1l-1.93,4.57a114.33,114.33,0,0,1,45.18,24.11c11.56,10.15,24.55,26.59,15.53,42.47-10.67,18.78-32.12,2.51-41.31-8.76a127.19,127.19,0,0,1-13.58-21.39c-4-7.5-11.25-17.58-9-26.32l-4.57.59c8.92,15.57,2.68,36-6.64,50C104.7,181,88.42,193.63,71.89,190.2c-21-4.38-10.71-33.62-4.85-46.58a95.12,95.12,0,0,1,22.48-31.15c3.23-3,8-8.22,12.75-6.25l-.6-4.57a139.3,139.3,0,0,1-54.13,12.86c-12.06.37-40.74,1.24-42.6-16C4,89.58,11.62,82,18.73,78a46.67,46.67,0,0,1,24.68-5.83c17.47.54,33,10.08,44.88,22.31,2.09,2.15,5.06-.57,3.93-3C87,80.1,78.84,70.75,71.25,61c-7-8.94-18.82-23.69-14.89-35.93,2.4-7.48,11.19-7.84,17.48-5.65C80.64,21.81,86.18,27,90.07,33c8.23,12.59,9,28.15,9.64,42.72.14,3.2,5.14,3.22,5,0Z"/><path class="cls-3" d="M122.12,89.85h0c-6.36-3.31-11.37-5.94-17.71-2.56S94.2,98.74,96.76,105.44a15.17,15.17,0,0,0,6.07,7.2c6.5,4.16,16,3.39,21.17-2.37S128.46,94.27,122.12,89.85Z"/><path class="cls-4" d="M123.38,87.7c-5-2.6-10.48-5.5-16.29-4.1a18.09,18.09,0,0,0-10.71,7.89,16.52,16.52,0,0,0,5.78,23.65c7.79,4.52,19,3.2,24.57-4.3,5.09-6.92,4-17.42-2.84-22.75-2.51-2-6.07,1.55-3.54,3.53a11.88,11.88,0,0,1,2.92,15.44c-3.43,5.67-11.28,7-17,4.51-6.56-2.8-9.72-9.92-6.22-16.4a13.23,13.23,0,0,1,8.42-6.75c4.4-.93,8.71,1.66,12.44,3.59C123.71,93.49,126.24,89.18,123.38,87.7Z"/></g></g></svg>