<svg xmlns="http://www.w3.org/2000/svg" viewBox="0 0 216.35 190.97"><defs><style>.cls-1{fill:#feed76;}.cls-2{fill:#febc38;}.cls-3{fill:#fdb813;}</style></defs><title>yellow-f</title><g id="Layer_2" data-name="Layer 2"><g id="Layer_1-2" data-name="Layer 1"><path class="cls-1" d="M211.36,78.48a17.79,17.79,0,0,0-5-6.26c-12.28-10.58-41.8-4.66-56.3,2.26,14.76-11.78,28.45-40.87,15.31-54.56S128.46-3.83,113.28,7.26c-15,11-8.54,54.43-11.74,57.17-1.9-13.61-3.94-27.66-10.91-39.34S70.38,4.64,57.49,7.63C46.06,10.28,37.73,21.84,36.39,34S54.1,66.36,61.46,75.84c-8.2-1.32-31.08-10.16-38.93-7.37C8.76,73.34-.14,89.87,3.05,104.65S22.34,133,36.79,131.29c4.12-.49,30.6-11.22,30.6-11.22s-18.52,13-22.86,19.76C39.8,147.18,37.93,156,41.4,164c3.3,7.66,11.08,17,18.44,20.41,10.08,4.64,23.37,4.55,34.25,2.76s20.19-28.39,21.51-40.86c1.54,14.74,10.62,35.28,18.73,39.06,9.32,4.35,22.7,2.88,31.29-2.88a46.69,46.69,0,0,0,20-30.61c1.42-8.73-18.29-27.73-28-33.23,9,3.32,28.45,15.07,36.36,9.81,11.45-7.62,17.53-17.4,19.79-31.35C214.29,93.65,212.75,81.73,211.36,78.48Z"/><path class="cls-2" d="M213.52,77.22C207.89,66.15,195.06,63.63,183.7,64a90.3,90.3,0,0,0-34.9,8.33l3,3.92C162.52,67.44,170.7,53.7,172.72,40c.9-6.14.48-12.7-2.79-18.13-3.46-5.78-9.8-10.32-15.46-13.76C142.65.89,126.37-3.72,113.68,4,104.29,9.72,102.12,21.68,101,31.78c-.71,6.64-.8,13.32-.87,20,0,2.42,0,4.85-.13,7.27,0,.85-.31,3.68-.26,3.62L104,63.77c-3.24-23.13-10.59-57.63-40-59.19-11.46-.6-21.44,7-26.39,16.92-4.76,9.58-4.37,18.08.66,27.29C44,59.35,52.31,68.2,59.69,77.6l2.44-4.17C50.76,71.42,40,66.3,28.4,65.51c-12.1-.83-22,9.93-26.1,20.38C-2.83,99,.9,113.09,10.68,123c8,8,19.56,13.26,30.72,9.64,9-2.94,17.86-6.58,26.65-10.14l-1.92-4.57C59.2,122.8,52.18,128,46.21,134c-9.59,9.69-11.71,23.88-4.71,35.64,7.42,12.47,18.33,19.52,32.74,20.89,6.73.64,14.67.74,21.25-1.09,4.22-1.17,7.36-4.64,9.82-8.07,7.12-9.88,11.38-23,12.79-35h-5c1.4,11.88,5.52,24.45,12.58,34.22,6.63,9.16,17.48,11.15,28.26,9.18,12.52-2.28,22.8-11.45,28.85-22.38,2.63-4.75,5.38-10.91,5.37-16.43,0-3.84-2.15-7.55-4.23-10.63a80.51,80.51,0,0,0-25.1-23.78l-1.92,4.57c8.24,3.15,15.9,7.78,24.47,10.09,8.85,2.39,14.38,0,21-6.13,12.48-11.68,17.53-31,11.43-47.24-1.12-3-6-1.69-4.82,1.33,5.51,14.62,1.13,31.79-10.15,42.37-2.75,2.58-5.89,5.65-9.84,5.82-3.48.14-7.11-1.11-10.34-2.27-7-2.49-13.47-6.15-20.38-8.79-2.7-1-4.32,3.17-1.93,4.57a75,75,0,0,1,23.3,22c3,4.43,4,7.63,2.6,12.86a43.91,43.91,0,0,1-11,18.88c-5.16,5.3-11.3,9.05-18.65,10.36-6.08,1.08-14.45,1-19.4-3.28-4.22-3.63-6.94-9.26-9.16-14.25a73.85,73.85,0,0,1-6-21.05,2.5,2.5,0,0,0-5,0c-1.33,11.39-5.68,24.76-13,33.71-4.11,5-9.12,5.33-15.33,5.67-8.2.45-17.42,0-24.82-4C53.1,178,47.35,170.94,44.12,164c-3.72-8-1.81-17.56,3.64-24.32,5.58-6.91,13.68-12.37,20.89-17.45,2.12-1.5.9-5.72-1.93-4.57C60.84,120,54.92,122.37,49,124.6c-9.19,3.46-16.48,6.29-26,1.34C11.13,119.81,2.78,106.61,5.4,93.11c2-10.27,10.76-23.27,22.5-22.63,11.31.61,21.84,5.81,32.9,7.77a2.53,2.53,0,0,0,2.43-4.18C56.48,65.48,49,57.4,43.46,47.93c-2.45-4.18-5-9-4.57-14A29.53,29.53,0,0,1,48.3,15.33c11.9-10.71,28-4.65,37.07,6.56,9.69,12,11.7,28.48,13.76,43.2.26,1.88,3,2.38,4.18,1.11,1.5-1.63,1.53-4.11,1.67-6.2.26-4,.16-8.07.22-12.09.15-10.06.27-20.84,3.91-30.35C114,4.71,128.28,3.2,140.1,6.92s27.44,12.77,28,26.53c.65,14.61-8.9,30.25-19.84,39.26-2.35,1.92.64,5,3,3.92a85.6,85.6,0,0,1,29.73-7.51c10.28-.7,22.89.28,28.16,10.63C210.66,82.61,215,80.09,213.52,77.22Z"/><path class="cls-3" d="M131,92.05c-3.64-12.69-14.28-18.34-26.26-19.3-4.15-.34-10.65-1.1-18.59,4.63a31.76,31.76,0,0,0-5.48,6c-2.24,3-2.3,7.26-2.13,11.15.26,5.84,1,12.06,4.38,16.5a27.18,27.18,0,0,0,13.9,9.51c2.11.59,4.83,1.19,6.94,1.78,6.95,1.92,15.16,1.7,20.42-3.69,2.37-2.42,3.63-5.84,4.81-9.16a29.41,29.41,0,0,0,2-7.84C131.13,99.19,131.67,94.39,131,92.05Z"/></g></g></svg>