<svg xmlns="http://www.w3.org/2000/svg" viewBox="0 0 288.41 262.84"><defs><style>.cls-1{fill:#feed76;}.cls-2{fill:#febc38;}.cls-3{fill:#fdb813;}</style></defs><title>yellow-f1</title><g id="Layer_2" data-name="Layer 2"><g id="Layer_1-2" data-name="Layer 1"><path class="cls-1" d="M276.87,103.86c-7.32-14.09-22.68-22.7-38.35-25.26C225.09,76.41,211.39,78.1,198,81c7.05-9.18,11.66-20.46,11.26-32-.43-12.37-7.33-24.79-18.56-30-16.16-7.47-36.16,2-46.13,16.75-6,8.92-9.24,19.23-11.13,29.91a121.34,121.34,0,0,0-10.89-32.54c-5.46-10.86-13-21.25-23.77-26.86S73.47,1.1,64.94,9.77C57.78,17,56.29,28.46,58.59,38.41s7.83,18.78,13.27,27.41l25.48,40.45c-9.83-12.5-30-13.78-46.73-12-13,1.37-26.5,3.64-37,11.37S-3.5,128.07,2,139.93c6,13,22.67,16.83,37,16.83a141.25,141.25,0,0,0,45.88-7.65C67.6,157.89,50,168.42,40.53,185.32,29,206,33,234.18,49.87,250.78a34,34,0,0,0,13.24,8.51C81.2,265,98.79,248.94,108.45,232.6a154.23,154.23,0,0,0,19.69-55.22,463.5,463.5,0,0,0,22.11,54.43c2.35,4.89,4.94,9.91,9.24,13.21,5,3.88,11.82,4.83,18.18,4.32a46,46,0,0,0,36.13-68.71c-7.65-13.32-21.38-21.91-35.08-28.89a338.89,338.89,0,0,0,63.69,1.52c8.94-.62,18.26-1.75,25.68-6.77C281.24,137.6,284.19,118,276.87,103.86Z"/><path class="cls-2" d="M143,93.88a125.66,125.66,0,0,0-9.78-55c-6.15-14.46-15.45-29.63-30.51-36C90.41-2.4,74.4-.7,66,10.56c-9.57,12.89-5.8,30,1,43.17,4.9,9.47,11,18.35,16.73,27.36l19.39,30.79a2.5,2.5,0,0,0,4.32-2.53C101,97.05,87.67,92.4,74.55,91.28c-15.32-1.31-33,.58-47.21,6.56-13.53,5.7-25.52,18.41-24.65,34,.82,14.75,13.77,23.19,27.08,25.87,19.87,4,42,0,60.92-6.36l-1.92-4.57c-15.87,8.1-32,17.54-42.34,32.48-9.34,13.44-12,30.56-8.09,46.37,3.66,15,14.34,31.64,30,36.11,16.88,4.81,32.52-7.59,42.13-20.21,13.77-18.08,21.73-41.42,25.24-63.66h-4.83A478.54,478.54,0,0,0,152,230.37c3.33,7,6.86,14.55,14,18.38,6.19,3.3,13.6,3.59,20.4,2.52,31-4.85,49.3-38.41,37.07-67.17-7.06-16.59-23-26.74-38.38-34.66l-1.26,4.66c23.17,2.68,47.22,3.71,70.43.91,8.79-1.06,17.73-3.44,24.25-9.78A33.63,33.63,0,0,0,288,125.68C290.38,109,281.61,94,267.86,85c-16.92-11-37.71-11.46-57-8.17-16,2.73-42.51,7.5-45.51,27.36-.27,1.79,1.07,3.67,3.08,3.08C196.49,99,226.06,68.54,214.69,37c-4.68-13-15.93-22.8-30.07-23.2-13.77-.39-27.17,7.56-35.36,18.3-11.8,15.46-14.13,35.77-15.58,54.55-.25,3.21,4.75,3.19,5,0,1.38-18,3.5-38.15,15.39-52.63C164,22,182.48,13.7,197.14,22.41c16.29,9.68,17.78,31.33,10.24,47-7.83,16.27-23.19,28-40.3,33.07l3.07,3.07c2.34-15.51,21.72-19.67,34.5-22.41,18.28-3.93,38.31-5.46,55.52,3.24,13.73,6.94,24.22,20,23.2,36-.46,7.11-3.13,14.31-8.35,19.31-6.87,6.57-16.68,8.08-25.78,8.8a336,336,0,0,1-65.37-1.4c-2.49-.29-3.37,3.58-1.26,4.66,15.63,8,32.16,18.43,37.75,36.13a43.64,43.64,0,0,1-37.55,56.81c-11.08.92-18.71-3.6-23.8-13.35-9.43-18.08-16.82-37.46-23.31-56.77-.71-2.1-4.41-2.63-4.83,0a154.44,154.44,0,0,1-17.21,50.75C106.24,240.74,93.79,257,77,257.82c-16.64.8-28.86-16.47-33.09-30.74s-2.69-30,5.14-42.65c9.65-15.64,26.32-25.16,42.25-33.3,2.5-1.27.77-5.47-1.92-4.57-15.56,5.23-32.16,8.21-48.62,7.49-11.9-.52-27.07-4.05-31.82-16.51-5.36-14.06,5.9-28.24,18-34.06,12.27-5.91,27.34-7.57,40.85-7.5s28.63,3,35.38,15.9l4.32-2.53L79.69,65.26C71.8,52.73,62.55,38.43,65.93,22.9c3.31-15.29,18.91-21,32.83-16.23C113.13,11.61,122,26,127.9,39.17A120.53,120.53,0,0,1,138,93.88c-.15,3.22,4.85,3.21,5,0Z"/><path class="cls-3" d="M159.36,124.53c-2.77-10.24-10.88-14.79-20-15.57-3.16-.27-8.12-.89-14.17,3.73a25.47,25.47,0,0,0-4.18,4.84c-1.7,2.42-1.75,5.86-1.62,9,.2,4.7.73,9.72,3.34,13.3a20.7,20.7,0,0,0,10.59,7.67c1.61.47,3.69,1,5.29,1.43,5.3,1.55,11.56,1.38,15.57-3,1.8-2,2.77-4.71,3.67-7.39a25.22,25.22,0,0,0,1.5-6.32C159.46,130.28,159.87,126.41,159.36,124.53Z"/></g></g></svg>