<svg width="28" height="28" viewBox="0 0 28 28" fill="none" xmlns="http://www.w3.org/2000/svg">
<path fill-rule="evenodd" clip-rule="evenodd" d="M13.9998 27.3332C21.3636 27.3332 27.3332 21.3636 27.3332 13.9998C27.3332 6.63604 21.3636 0.666504 13.9998 0.666504C6.63604 0.666504 0.666504 6.63604 0.666504 13.9998C0.666504 21.3636 6.63604 27.3332 13.9998 27.3332ZM13.9998 4.6665C8.84481 4.6665 4.6665 8.52485 4.6665 13.282C4.6665 16.796 6.14046 18.4745 8.16238 20.0037L8.17253 20.0087V24.1329C8.17253 24.3279 8.39578 24.4393 8.55053 24.3228L12.0895 21.6999L12.1656 21.7329C12.7593 21.8417 13.3732 21.8999 13.9998 21.8999C19.1549 21.8999 23.3332 18.0416 23.3332 13.2845C23.3332 8.52485 19.1549 4.6665 13.9998 4.6665ZM10.8718 15.4643C11.7876 15.4643 12.569 14.9175 12.8049 14.0744H14.1571C13.8273 15.6998 12.5589 16.7631 10.8718 16.7631C8.91077 16.7631 7.35564 15.3023 7.35564 13.2718C7.35564 11.2389 8.91077 9.78059 10.8718 9.78059C12.5766 9.78059 13.8527 10.8667 14.1673 12.5199H12.8176C12.6121 11.6211 11.8029 11.0616 10.8718 11.0616C9.55261 11.0616 8.67484 12.0009 8.67484 13.2718C8.67484 14.5453 9.67185 15.4643 10.8718 15.4643ZM19.7891 16.6314H18.5485V13.8389C18.5485 13.1959 18.1731 12.8516 17.5972 12.8516C16.9528 12.8516 16.5393 13.244 16.5393 14.0415V16.6314H15.2987V9.80084H16.5393V12.3705C16.8361 11.9199 17.3181 11.6996 17.9701 11.6996C18.5003 11.6996 18.9316 11.8718 19.269 12.2262C19.6166 12.5807 19.7891 13.0617 19.7891 13.6845V16.6314Z" fill="#949494"/>
</svg>
