<svg width="28" height="28" viewBox="0 0 28 28" fill="none" xmlns="http://www.w3.org/2000/svg">
<path fill-rule="evenodd" clip-rule="evenodd" d="M13.9998 27.3332C21.3636 27.3332 27.3332 21.3636 27.3332 13.9998C27.3332 6.63604 21.3636 0.666504 13.9998 0.666504C6.63604 0.666504 0.666504 6.63604 0.666504 13.9998C0.666504 21.3636 6.63604 27.3332 13.9998 27.3332ZM21.5692 11.4632C21.5692 11.3026 21.5692 11.1435 21.5586 10.9844C22.2544 10.4601 22.8557 9.81114 23.3332 9.06612C22.6846 9.36603 21.9959 9.56256 21.2911 9.64908C22.0333 9.18638 22.5889 8.45822 22.8543 7.60101C22.1558 8.03219 21.3925 8.3365 20.596 8.50002C19.2496 7.00925 16.997 6.93739 15.5647 8.33943C14.6408 9.24358 14.2493 10.5914 14.5359 11.8775C11.6762 11.7287 9.01231 10.3222 7.2068 8.00872C6.2632 9.70115 6.74486 11.8658 8.30743 12.9533C7.74127 12.9357 7.18778 12.7766 6.69345 12.4898V12.5368C6.69345 14.2996 7.88703 15.8175 9.54608 16.1665C9.02287 16.3154 8.47361 16.3374 7.94055 16.2303C8.40672 17.7387 9.74113 18.7719 11.2629 18.802C10.0031 19.8322 8.44756 20.3917 6.84626 20.3903C6.56318 20.3895 6.2808 20.3719 5.99984 20.3367C7.62649 21.4235 9.51861 21.9998 11.4509 21.9969V21.9998C17.992 21.9998 21.5692 16.3565 21.5692 11.4632Z" fill="#949494"/>
</svg>
