<svg width="28" height="28" viewBox="0 0 28 28" fill="none" xmlns="http://www.w3.org/2000/svg">
<path fill-rule="evenodd" clip-rule="evenodd" d="M13.9998 27.3332C21.3636 27.3332 27.3332 21.3636 27.3332 13.9998C27.3332 6.63604 21.3636 0.666504 13.9998 0.666504C6.63604 0.666504 0.666504 6.63604 0.666504 13.9998C0.666504 21.3636 6.63604 27.3332 13.9998 27.3332ZM22.4035 8.34026C22.9649 8.92055 23.1472 10.2421 23.1472 10.2421C23.1472 10.2421 23.3332 11.7958 23.3332 13.3457V14.7983C23.3332 16.352 23.1472 17.902 23.1472 17.902C23.1472 17.902 22.9649 19.2235 22.4035 19.8038C21.7629 20.492 21.0542 20.5631 20.6535 20.6033C20.6095 20.6077 20.5692 20.6118 20.5332 20.6162C17.9228 20.8072 13.9998 20.8147 13.9998 20.8147C13.9998 20.8147 9.14723 20.7697 7.65244 20.6237C7.57974 20.6093 7.49119 20.5982 7.39076 20.5856C6.91709 20.5263 6.17912 20.434 5.59255 19.8038C5.03473 19.2235 4.85244 17.902 4.85244 17.902C4.85244 17.902 4.6665 16.3483 4.6665 14.7983V13.3457C4.6665 11.7958 4.85609 10.2421 4.85609 10.2421C4.85609 10.2421 5.03473 8.92055 5.59619 8.34026C6.23681 7.65206 6.94551 7.58095 7.34619 7.54075C7.39017 7.53633 7.43044 7.53229 7.4665 7.52785C10.0769 7.33317 13.9962 7.33317 13.9962 7.33317H14.0035C14.0035 7.33317 17.9228 7.33317 20.5332 7.52785C20.5692 7.53229 20.6095 7.53633 20.6535 7.54075C21.0542 7.58095 21.7629 7.65206 22.4035 8.34026ZM12.0712 11.1743V16.5617L17.1134 13.8774L12.0712 11.1743Z" fill="#949494"/>
</svg>
