<svg width="28" height="28" viewBox="0 0 28 28" fill="none" xmlns="http://www.w3.org/2000/svg">
<path fill-rule="evenodd" clip-rule="evenodd" d="M13.9998 27.3332C21.3636 27.3332 27.3332 21.3636 27.3332 13.9998C27.3332 6.63604 21.3636 0.666504 13.9998 0.666504C6.63604 0.666504 0.666504 6.63604 0.666504 13.9998C0.666504 21.3636 6.63604 27.3332 13.9998 27.3332ZM9.89652 9.99984V11.4086C9.89652 11.4086 10.5642 11.3774 10.5642 12.6193V16.2213H11.9718V12.2866C11.9718 12.2866 12.0308 9.99984 9.89652 9.99984ZM7.36942 11.8815C6.89934 11.9161 6.45792 12.1206 6.12757 12.4568V10.1367H4.6665V16.2213H6.14315V15.7451C6.14315 15.7451 6.49145 16.3727 7.3672 16.3727C7.3672 16.3727 9.42582 16.297 9.42582 14.1026C9.42804 14.1071 9.35238 11.8815 7.36942 11.8815ZM7.04783 15.093C6.86198 15.0932 6.68025 15.0383 6.52564 14.9352C6.37102 14.832 6.25047 14.6854 6.17925 14.5137C6.10803 14.3421 6.08933 14.1531 6.12553 13.9708C6.16173 13.7886 6.25121 13.6211 6.38262 13.4897C6.51403 13.3583 6.68148 13.2688 6.86377 13.2326C7.04605 13.1964 7.23498 13.2151 7.40664 13.2863C7.5783 13.3575 7.72497 13.4781 7.82808 13.6327C7.93119 13.7873 7.98611 13.9691 7.98589 14.1549C7.98443 14.4028 7.88498 14.6401 7.70925 14.815C7.53352 14.9899 7.29576 15.0882 7.04783 15.0885V15.093ZM13 14.1505C13 11.896 15.4136 11.896 15.4136 11.896C17.9619 11.896 17.8817 14.1505 17.8817 14.1505C17.8817 16.376 15.4136 16.376 15.4136 16.376C12.9221 16.376 13 14.1505 13 14.1505ZM14.8914 14.9307C15.046 15.0338 15.2278 15.0887 15.4136 15.0885C15.6623 15.0882 15.9007 14.9893 16.0766 14.8134C16.2525 14.6376 16.3514 14.3992 16.3517 14.1505C16.3519 13.9646 16.297 13.7829 16.1939 13.6283C16.0908 13.4736 15.9441 13.3531 15.7724 13.2819C15.6008 13.2107 15.4118 13.192 15.2296 13.2282C15.0473 13.2644 14.8798 13.3538 14.7484 13.4853C14.617 13.6167 14.5275 13.7841 14.4913 13.9664C14.4551 14.1487 14.4738 14.3376 14.545 14.5093C14.6163 14.6809 14.7368 14.8276 14.8914 14.9307ZM21.9122 12.044V12.4524C21.7608 12.2763 21.5728 12.1354 21.3615 12.0393C21.1501 11.9432 20.9203 11.8943 20.6881 11.896C20.6881 11.896 18.6217 11.8092 18.6217 14.1349C18.6217 14.1349 18.5994 16.3014 20.6314 16.3014C20.6314 16.3014 21.4604 16.3348 21.9144 15.7451V16.0856C21.9144 16.0856 22.0168 17.1527 20.983 17.1527H20.6314V18.4469H21.1989C21.1989 18.4469 23.3332 18.4691 23.3332 16.1646V12.0473L21.9122 12.044ZM21.0386 15.0885C20.8528 15.0885 20.6712 15.0334 20.5167 14.9302C20.3623 14.8269 20.2419 14.6802 20.1708 14.5085C20.0998 14.3368 20.0813 14.1479 20.1176 13.9657C20.1539 13.7835 20.2435 13.6162 20.3749 13.4849C20.5064 13.3536 20.6738 13.2642 20.8561 13.2281C21.0384 13.192 21.2272 13.2107 21.3988 13.282C21.5704 13.3532 21.717 13.4738 21.8201 13.6284C21.9231 13.783 21.978 13.9647 21.9778 14.1505C21.9778 14.2737 21.9535 14.3958 21.9063 14.5097C21.8591 14.6236 21.7899 14.727 21.7027 14.8142C21.6154 14.9013 21.5119 14.9704 21.398 15.0174C21.284 15.0645 21.1619 15.0887 21.0386 15.0885Z" fill="#949494"/>
</svg>
