<svg width="28" height="28" viewBox="0 0 28 28" fill="none" xmlns="http://www.w3.org/2000/svg">
<path fill-rule="evenodd" clip-rule="evenodd" d="M13.9998 27.3332C21.3636 27.3332 27.3332 21.3636 27.3332 13.9998C27.3332 6.63604 21.3636 0.666504 13.9998 0.666504C6.63604 0.666504 0.666504 6.63604 0.666504 13.9998C0.666504 21.3636 6.63604 27.3332 13.9998 27.3332ZM13.8653 23.3332L16.3751 21.1552H11.3555L13.8653 23.3332ZM11.0157 20.5199H17.1505L19.3332 18.3419H8.6665L11.0157 20.5199ZM19.3332 16.7991V5.99984H8.6665V16.7991H19.3332ZM11.3229 14.1344V8.97505H13.104L14.7372 11.8693V8.95975H16.4586V14.1344H14.7363L13.0888 11.6443V14.1344H11.3229Z" fill="#949494"/>
</svg>
