<?xml version="1.0" encoding="utf-8"?>
<!-- Generator: Adobe Illustrator 25.4.1, SVG Export Plug-In . SVG Version: 6.00 Build 0)  -->
<svg version="1.1" id="Layer_1" xmlns="http://www.w3.org/2000/svg" xmlns:xlink="http://www.w3.org/1999/xlink" x="0px" y="0px"
	 viewBox="0 0 100 140" style="enable-background:new 0 0 100 140;" xml:space="preserve">
<style type="text/css">
	.st0{fill:#B0F0FF;}
	.st1{fill:#9FBFFF;}
	.st2{fill:url(#SVGID_1_);}
	.st3{fill:#FF3B3B;}
	.st4{fill:#FFFFFF;stroke:#000000;stroke-width:1.5;stroke-miterlimit:10;}
	.st5{fill:#7C94D6;}
	.st6{fill:#FFFFFF;}
</style>
<g>
	<path class="st0" d="M63.59,33.92c0,17.05-13.82,26.15-30.87,26.15S1.86,50.97,1.86,33.92c0-9.68,4.45-18.31,11.42-23.97
		c5.31-4.31,12.08-4.09,19.45-4.09c7.68,0,14.7,0,20.1,4.64C59.42,16.16,63.59,24.55,63.59,33.92z"/>
</g>
<path class="st1" d="M3.37,40.18c0,0,12.14-8.84,22.71-6.37c24.36,5.69,36.47-5.19,36.47-5.19s1.85,12.36-3.95,18.9
	c-4.3,4.85-10.42,11.41-25.99,11.45C15.35,59.01,4.57,49.5,3.37,40.18z"/>
<g>
	<g>
		<radialGradient id="SVGID_1_" cx="25.1089" cy="30.2227" r="7.1505" fx="28.5823" fy="36.4729" gradientUnits="userSpaceOnUse">
			<stop  offset="0" style="stop-color:#FF661F"/>
			<stop  offset="1" style="stop-color:#FF3B3B"/>
		</radialGradient>
		<path class="st2" d="M25.9,34.81c-3.44,0-7.56-1.15-8.82-2.46c-0.65-0.67-0.97-1.39-0.97-2.13c0-0.69,0.29-1.37,0.85-2
			c1.23-1.38,5.41-2.59,8.95-2.59c4.46,0,8.22,2.1,8.22,4.59S30.35,34.81,25.9,34.81z"/>
		<path d="M25.89,26.38c4.4,0,7.47,2.02,7.47,3.84s-3.07,3.84-7.47,3.84c-3.21,0-7.16-1.06-8.28-2.23
			c-0.51-0.53-0.76-1.07-0.76-1.61c0-0.5,0.22-1.01,0.66-1.5C18.6,27.5,22.6,26.38,25.89,26.38 M25.89,24.88
			c-3.44,0-8,1.15-9.51,2.84c-0.66,0.75-1.04,1.6-1.04,2.5c0,0.97,0.43,1.87,1.18,2.65c1.55,1.61,6.03,2.69,9.36,2.69
			c4.96,0,8.97-2.39,8.97-5.34S30.85,24.88,25.89,24.88L25.89,24.88z"/>
	</g>
	<g>
		<path class="st3" d="M10.74,35.14c0.7-0.89,0.53-2.02,0.39-3c-0.07-0.47-0.14-0.95-0.14-1.43s0.07-0.96,0.14-1.43
			c0.15-0.98,0.31-2.11-0.39-3c3.2,0.49,5.1,2.1,5.1,4.43C15.84,33.05,13.94,34.65,10.74,35.14z"/>
		<path d="M11.96,27.32c1.99,0.61,3.13,1.8,3.13,3.39c0,1.6-1.14,2.79-3.13,3.39c0.11-0.74,0-1.48-0.09-2.07
			c-0.07-0.46-0.13-0.89-0.13-1.32s0.06-0.86,0.13-1.32C11.96,28.8,12.07,28.06,11.96,27.32 M8.52,25.37c0,0-1.25,0-0.65,0.31
			c3.84,0.72,2.37,2.69,2.37,5.03c0,2.34,1.46,4.31-2.37,5.03c-0.16,0.31,0.65,0.31,0.65,0.31c5.4,0,8.07-2.39,8.07-5.34
			S13.92,25.37,8.52,25.37L8.52,25.37z"/>
	</g>
	<path class="st4" d="M30.77,29.57"/>
	<path class="st4" d="M30.1,29.37"/>
	<g>
		<path d="M30.1,29.09c-0.46,0-0.84,0.4-0.84,0.89s0.38,0.89,0.84,0.89s0.84-0.4,0.84-0.89S30.56,29.09,30.1,29.09L30.1,29.09z"/>
	</g>
</g>
<path class="st5" d="M4.16,42.02c0,0,9.32-3.15,20.09-1.72c25.16,3.33,38.56-8.21,38.56-8.21s0,11.7-5.54,17
	c-4.3,4.11-9.69,9.97-23.9,9.93C18,58.96,5.36,51.34,4.16,42.02z"/>
<g>
	<g>
		<path d="M30.7,7.36l1,0l1.04,0c7.58,0,14.14,0,19.11,4.28c6.51,5.59,10.24,13.71,10.24,22.29c0,14.98-11.53,24.65-29.37,24.65
			S3.36,48.9,3.36,33.92c0-8.88,3.96-17.2,10.86-22.81C18.52,7.63,23.76,7.36,30.7,7.36 M30.7,5.86c-6.58,0-12.6,0.18-17.42,4.09
			C6.31,15.61,1.86,24.25,1.86,33.92c0,17.05,13.82,26.15,30.87,26.15s30.87-9.11,30.87-26.15c0-9.37-4.17-17.76-10.77-23.42
			c-5.4-4.64-12.42-4.64-20.09-4.64c0,0-0.01,0-0.01,0C32.05,5.86,31.37,5.86,30.7,5.86L30.7,5.86z"/>
	</g>
	<g>
		<path class="st0" d="M11.35,11.3c-1.6,0-2.9-1.3-2.9-2.9V7.59c0-1.6,1.3-2.9,2.9-2.9H54.1c1.6,0,2.9,1.3,2.9,2.9V8.4
			c0,1.6-1.3,2.9-2.9,2.9H11.35z"/>
		<g>
			<path d="M54.1,5.44c1.18,0,2.15,0.96,2.15,2.15V8.4c0,1.18-0.96,2.15-2.15,2.15H11.35c-1.18,0-2.15-0.96-2.15-2.15V7.59
				c0-1.18,0.96-2.15,2.15-2.15H54.1 M54.1,3.94H11.35c-2.01,0-3.65,1.64-3.65,3.65V8.4c0,2.01,1.64,3.65,3.65,3.65H54.1
				c2.01,0,3.65-1.64,3.65-3.65V7.59C57.75,5.58,56.11,3.94,54.1,3.94L54.1,3.94z"/>
		</g>
	</g>
</g>
<circle class="st6" cx="41.78" cy="20.96" r="2.32"/>
<circle class="st6" cx="46.84" cy="25.87" r="1.67"/>
</svg>
