<svg id="Layer_1" data-name="Layer 1" xmlns="http://www.w3.org/2000/svg" viewBox="0 0 61.73 56.14"><defs><style>.cls-1,.cls-3{fill:#fff;}.cls-2{fill:#ededed;}.cls-3{stroke:#000;stroke-miterlimit:10;stroke-width:1.5px;}.cls-4{fill:#d8d8d8;}</style></defs><path class="cls-1" d="M63.59,33.92c0,17-13.81,26.16-30.86,26.16S1.86,51,1.86,33.92A30.81,30.81,0,0,1,13.28,10c5.31-4.31,12.08-4.09,19.45-4.09,7.68,0,14.7,0,20.1,4.64A30.78,30.78,0,0,1,63.59,33.92Z" transform="translate(-1.86 -3.94)"/><path class="cls-2" d="M3.37,40.18s12.14-8.85,22.71-6.38c24.37,5.69,36.47-5.19,36.47-5.19S64.39,41,58.6,47.51c-4.3,4.86-10.42,11.42-26,11.45C15.35,59,4.57,49.5,3.37,40.18Z" transform="translate(-1.86 -3.94)"/><path class="cls-1" d="M25.89,34.81c-3.43,0-7.56-1.15-8.82-2.46a3.07,3.07,0,0,1-1-2.13,3,3,0,0,1,.85-2c1.23-1.38,5.41-2.59,8.94-2.59,4.46,0,8.23,2.1,8.23,4.59S30.35,34.81,25.89,34.81Z" transform="translate(-1.86 -3.94)"/><path d="M25.89,26.38c4.41,0,7.48,2,7.48,3.84s-3.07,3.84-7.48,3.84c-3.21,0-7.15-1.06-8.28-2.23a2.35,2.35,0,0,1-.76-1.61,2.26,2.26,0,0,1,.66-1.5c1.09-1.22,5.09-2.34,8.38-2.34m0-1.5c-3.43,0-8,1.15-9.5,2.84a3.55,3.55,0,0,0,.14,5.15c1.55,1.61,6,2.69,9.36,2.69,5,0,9-2.39,9-5.34s-4-5.34-9-5.34Z" transform="translate(-1.86 -3.94)"/><path class="cls-1" d="M10.74,35.14a3.77,3.77,0,0,0,.39-3A9.62,9.62,0,0,1,11,30.71a9.75,9.75,0,0,1,.14-1.43,3.77,3.77,0,0,0-.39-3c3.2.49,5.1,2.1,5.1,4.43S13.94,34.65,10.74,35.14Z" transform="translate(-1.86 -3.94)"/><path d="M12,27.32c2,.61,3.13,1.8,3.13,3.39S14,33.5,12,34.11A7,7,0,0,0,11.87,32a8.8,8.8,0,0,1-.13-1.32,8.93,8.93,0,0,1,.13-1.32A7,7,0,0,0,12,27.32M8.52,25.37s-1.25,0-.65.31c3.83.73,2.37,2.69,2.37,5s1.46,4.31-2.37,5c-.16.31.65.31.65.31,5.4,0,8.07-2.39,8.07-5.34s-2.67-5.34-8.07-5.34Z" transform="translate(-1.86 -3.94)"/><path class="cls-3" d="M30.77,29.57" transform="translate(-1.86 -3.94)"/><path class="cls-3" d="M30.1,29.37" transform="translate(-1.86 -3.94)"/><path d="M30.1,29.09a.89.89,0,1,0,.84.89.87.87,0,0,0-.84-.89Z" transform="translate(-1.86 -3.94)"/><path class="cls-4" d="M4.16,42A49.46,49.46,0,0,1,24.25,40.3c25.16,3.33,38.56-8.21,38.56-8.21s0,11.7-5.54,17c-4.3,4.11-9.7,10-23.9,9.93C18,59,5.36,51.34,4.16,42Z" transform="translate(-1.86 -3.94)"/><path d="M30.7,7.36h2c7.58,0,14.13,0,19.11,4.28A29.34,29.34,0,0,1,62.09,33.92c0,15-11.52,24.66-29.36,24.66S3.36,48.9,3.36,33.92a29.25,29.25,0,0,1,10.87-22.8c4.29-3.49,9.53-3.76,16.47-3.76m0-1.5C24.12,5.86,18.1,6,13.28,10a30.81,30.81,0,0,0-11.42,24c0,17,13.82,26.16,30.87,26.16S63.59,51,63.59,33.92A30.78,30.78,0,0,0,52.83,10.5c-5.4-4.64-12.42-4.64-20.09-4.64h-2Z" transform="translate(-1.86 -3.94)"/><rect class="cls-1" x="6.59" y="0.75" width="48.54" height="6.61" rx="2.9"/><path d="M54.1,5.44a2.15,2.15,0,0,1,2.15,2.15V8.4a2.15,2.15,0,0,1-2.15,2.15H11.35A2.15,2.15,0,0,1,9.21,8.4V7.59a2.14,2.14,0,0,1,2.14-2.15H54.1m0-1.5H11.35A3.66,3.66,0,0,0,7.71,7.59V8.4a3.66,3.66,0,0,0,3.64,3.65H54.1A3.66,3.66,0,0,0,57.75,8.4V7.59A3.66,3.66,0,0,0,54.1,3.94Z" transform="translate(-1.86 -3.94)"/><circle class="cls-2" cx="39.92" cy="17.02" r="2.32"/><circle class="cls-2" cx="44.98" cy="21.93" r="1.67"/></svg>