<svg xmlns="http://www.w3.org/2000/svg" viewBox="0 0 106.6 172.85"><defs><style>.cls-1{fill:#ef8e4c;}.cls-2{fill:#77bc43;}.cls-3{fill:#7bb242;}</style></defs><g id="Layer_2" data-name="Layer 2"><g id="Layer_1-2" data-name="Layer 1"><path class="cls-1" d="M11.4,24.57C12.32,20.51,16.83,5.28,20.54,4,25.26,2.43,29,10.08,32.16,14.29c1.16-4.93,7.74-10,12.4-8.74s6.82,4.16,10.28,7.79C55.58,9.81,58,2.42,61.39,2.46a6.58,6.58,0,0,1,3.8,1.74c6.74,5.38,10.22,14.45,11,23.31s-.75,17.68-2.29,26.35a27.24,27.24,0,0,1-2.77,8.88C67.28,69.46,59.15,73,56,73.83h0c-10.84,4.25-23.68,0-33-9.71C10,50.56,7.2,43.06,11.4,24.57Z"/><path class="cls-1" d="M13.81,25.23A80.85,80.85,0,0,1,18.1,12c.33-.77.93-2.07,1.44-3,.24-.45.5-.9.78-1.33.13-.21.27-.41.42-.62s-.08.09-.09.11A3.27,3.27,0,0,1,21,6.8c.11-.12.24-.24.36-.36.34-.39-.26.06,0,0s.12,0-.12,0c.17,0,.34-.11.52-.14-.27,0,0,0,.1,0,.38,0-.06-.09.45.07.35.11.25.08.36.14a5.25,5.25,0,0,1,1.44,1.07c2.39,2.29,4,5.32,5.92,8,1.21,1.63,4,1.67,4.57-.59.87-3.38,4.77-7,8.24-7.11a9.32,9.32,0,0,1,5,2.06,46.6,46.6,0,0,1,5.22,5.2A2.51,2.51,0,0,0,57.25,14a26.34,26.34,0,0,1,2.23-6.6A7.77,7.77,0,0,1,61,5.2c.53-.5-.35.18.23-.17s-.39,0,.19-.08c-.58.09,0,0,.1,0a4.74,4.74,0,0,1,1.33.62C68,8.82,71,15.18,72.49,20.78c1.89,7,1.66,14.31.78,21.44-.49,4-1.18,7.93-1.93,11.86-.62,3.28-1.46,6.52-3.54,9.21a22.75,22.75,0,0,1-6.57,5.54,22.37,22.37,0,0,1-5.93,2.59L57.23,76h0a2.52,2.52,0,0,0,1-3.12,2.48,2.48,0,0,0-2.95-1.45c-10.31,4-21.42-.34-29.11-7.61A63.11,63.11,0,0,1,16.22,52a29.11,29.11,0,0,1-2.65-5.21,26,26,0,0,1-.79-2.6,24.86,24.86,0,0,1-.51-2.72c-.59-5.48.34-10.94,1.54-16.27C14.52,22.1,9.7,20.76,9,23.9,7.8,29.22,6.78,34.75,7.16,40.22a30,30,0,0,0,4,13.07A66.19,66.19,0,0,0,21.48,66.18,40.58,40.58,0,0,0,37.35,76.34a28.71,28.71,0,0,0,19.29-.1l-1.93-4.57h0c-2.32,1.52-.9,5.34,1.92,4.57a29.94,29.94,0,0,0,14-8.55,22.7,22.7,0,0,0,5.16-10.3c1-4.28,1.64-8.69,2.23-13,1.15-8.4,1.53-17-.78-25.28A37,37,0,0,0,72.78,9,24.33,24.33,0,0,0,65,1C57.41-3.3,53.64,7,52.43,12.68l4.18-1.11c-3.74-3.93-8.33-9.3-14.41-8.68A15.22,15.22,0,0,0,29.75,13.63l4.57-.6c-2.1-2.83-3.82-6-6.27-8.54C25.8,2.14,22.25.23,19.05,2,17,3.08,15.69,5.46,14.68,7.5a68.31,68.31,0,0,0-3.46,8.73C10.38,18.75,9.59,21.31,9,23.9,8.27,27,13.09,28.37,13.81,25.23Z"/><path class="cls-2" d="M45.42,75.89c-.32,12.6.29,25.21.9,37.77q1.27,26.47,2.56,52.94"/><path class="cls-3" d="M42.92,75.89c-.29,11.86.22,23.7.79,35.54s1.13,23.42,1.7,35.13l1,20c.16,3.21,5.16,3.23,5,0-1.14-23.51-2.56-47-3.32-70.56-.22-6.72-.31-13.43-.14-20.15.08-3.21-4.92-3.21-5,0Z"/><path class="cls-3" d="M34.33,115.8c3.56,7.38,6.18,15.48,8.78,23.53,3,9.4,6.13,19.12,6.37,29.14L48,170.16c-6.75-1.19-13.09-6.66-18-13.66s-8.64-15.49-12-24.06A391.9,391.9,0,0,1,2.48,83.72C15.17,88.52,26.83,100.27,34.33,115.8Z"/><path class="cls-3" d="M32.17,117.07c3.84,8,6.48,16.52,9.18,25,2.76,8.6,5.37,17.36,5.63,26.45l.73-1.77-1.52,1.69,2.43-.65c-5.38-1-9.76-4.5-13.34-8.48a66,66,0,0,1-10-15.87c-5.75-12-10.11-24.9-14.07-37.64Q7.72,94.5,4.89,83.06L1.81,86.13c13.88,5.32,24,17.92,30.36,30.94a2.52,2.52,0,0,0,3.42.89,2.55,2.55,0,0,0,.9-3.42C29.55,100.25,18.28,87.11,3.14,81.31,1.28,80.6-.35,82.69.07,84.39q4.16,16.77,9.73,33.13c3.64,10.64,7.49,21.41,12.66,31.41,4.48,8.67,10.76,18,20,22.08,1.92.85,5.47,2.58,7.27.9.39-.36.72-.79,1.07-1.18A4,4,0,0,0,52,167.51a78.82,78.82,0,0,0-2.84-17c-1.63-6.09-3.64-12.08-5.63-18.06a152.78,152.78,0,0,0-7-17.87,2.52,2.52,0,0,0-3.42-.89A2.55,2.55,0,0,0,32.17,117.07Z"/><path class="cls-3" d="M60.06,127a44.85,44.85,0,0,1,5.41-9.13,45.09,45.09,0,0,1,7.25-6.63l29.22-23c.37-.29.82-.6,1.25-.42a1.47,1.47,0,0,1,.66,1.16c.84,4.37-.43,8.81-1.77,13-2.87,9-6.11,17.74-9.35,26.52-2.56,7-5.27,14.12-10.33,19.22A47.7,47.7,0,0,1,74,153.89L51.74,168.06l-2.62,2.33C47.87,155.16,53.55,140.43,60.06,127Z"/><path class="cls-3" d="M62.22,128.24c1.92-4,4-7.83,7.15-10.93,3.43-3.32,7.41-6.13,11.15-9.09q5.85-4.6,11.69-9.22l5.85-4.61,2.92-2.3,1.56-1.23c.27-.21.66-.66,1-.75h-1.34l-.89-.89c.67,1,.35,3.22.23,4.39A29,29,0,0,1,100.37,99c-1,3.55-2.26,7-3.47,10.55-2.38,6.9-4.89,13.76-7.46,20.59-2.16,5.75-4.64,11.71-9.12,16.06a48.65,48.65,0,0,1-8,5.83l-9.67,6.15L51.74,165.1a35.34,35.34,0,0,0-4.38,3.52l4.26,1.77c-1.15-14.84,4.26-29,10.6-42.15a2.57,2.57,0,0,0-.9-3.42,2.53,2.53,0,0,0-3.42.9c-6.7,13.9-12.5,29-11.28,44.67a2.54,2.54,0,0,0,4.27,1.77A32.49,32.49,0,0,1,53.38,170a1.27,1.27,0,0,1,.12-.1c-.35.24.36-.17.35-.16.72-.39,1.41-.9,2.1-1.34l3.78-2.41,15.54-9.89c4.64-3,8.92-6.06,12.15-10.58,3.08-4.31,5.07-9.3,6.92-14.23q3.07-8.22,6-16.51c2-5.56,4.17-11.2,5.5-17a23.41,23.41,0,0,0,.49-9,3.94,3.94,0,0,0-2.49-3.38c-1.74-.51-3,.52-4.27,1.52L85.17,98.23c-5.32,4.2-10.69,8.35-16,12.61a37.4,37.4,0,0,0-6.7,6.78,50.58,50.58,0,0,0-4.6,8.1,2.57,2.57,0,0,0,.9,3.42A2.53,2.53,0,0,0,62.22,128.24Z"/></g></g></svg>