<svg xmlns="http://www.w3.org/2000/svg" viewBox="0 0 117.65 170.4"><defs><style>.cls-1{fill:#facc37;}.cls-2{fill:#77bc43;}.cls-3{fill:#71ba44;}</style></defs><g id="Layer_2" data-name="Layer 2"><g id="Layer_1-2" data-name="Layer 1"><path class="cls-1" d="M22.86,24.17c.95-3.93.56-16.49,9.26-19.9,4.64-1.81,9.46,2.89,12.61,6.94,1.19-4.77,6.72-6.85,11.37-5.63s7.54.55,11,4c.76-3.42,2.46-7.14,5.86-7.12,1.38,0,7.26.79,8.38,1.65C88,9.29,86.82,18,87.56,26.55S86.69,43.62,85.08,52a25.7,25.7,0,0,1-2.82,8.59C78.35,67.1,70.21,70.56,67,71.4h0c-10.86,4.18-26.21,3.74-35.45-5.58C18.69,52.82,18.54,42,22.86,24.17Z"/><path class="cls-1" d="M25.27,24.83a31.52,31.52,0,0,0,.49-3.19c.07-.59.14-1.17.22-1.76,0-.29,0-.31,0,0,0-.17,0-.33.07-.49s.07-.5.11-.75a24.48,24.48,0,0,1,2.33-7.79c1.13-2.05,3.2-4.47,5.84-4.43C37.89,6.43,41,10.46,43,13c1.2,1.53,3.72.54,4.18-1.11.87-3.19,4.44-4.53,7.49-4,2,.31,4,.78,6,1.18a8.43,8.43,0,0,1,4.68,2.38,2.52,2.52,0,0,0,4.18-1.1,13.2,13.2,0,0,1,1.26-3.57,4.42,4.42,0,0,1,.94-1.24A1.73,1.73,0,0,1,72.6,5a9.78,9.78,0,0,1,2.59.19c.7.09,2.32.36,3.36.61a11.4,11.4,0,0,1,1.38.4c-.57-.22-.1-.07,0,0-.4-.36.52.45.47.4A10.93,10.93,0,0,1,82.92,10a21.28,21.28,0,0,1,1.65,7.68c.53,7.29,1,14.6.1,21.87-.47,3.78-1.19,7.54-1.91,11.28-.65,3.4-1.36,6.83-3.45,9.67-3.08,4.2-8.31,7.21-13,8.46l1.92,4.57h0A2.51,2.51,0,0,0,66.36,69c-9.45,3.59-21,3.6-29.64-2.14A34.91,34.91,0,0,1,26.37,55.15a27.46,27.46,0,0,1-3.54-12.72c-.19-6,1.05-11.84,2.44-17.6.75-3.13-4.07-4.46-4.82-1.33-2.6,10.78-4.37,22.13.71,32.48A40.87,40.87,0,0,0,32.24,69.73,32.61,32.61,0,0,0,48.7,76.16a40.67,40.67,0,0,0,19-2.35l-1.93-4.57h0c-2.35,1.5-.88,5.32,1.93,4.57A30.1,30.1,0,0,0,82.12,65a22.79,22.79,0,0,0,5-10.37c1-4.34,1.73-8.75,2.32-13.15a109.83,109.83,0,0,0,.08-24.65c-.53-6-2.64-14-9.36-15.75A39.32,39.32,0,0,0,75.33.21a10.54,10.54,0,0,0-4.15,0c-3.89,1-5.7,5.17-6.52,8.74l4.18-1.11A13.45,13.45,0,0,0,62,4.17c-1.15-.23-2.32-.38-3.48-.61a36.54,36.54,0,0,0-4.15-.78c-5.23-.41-10.57,2.54-12,7.76l4.17-1.1c-2.24-2.86-4.93-5.72-8.33-7.18a9.57,9.57,0,0,0-9.6,1.1C24,6.59,22.19,12,21.35,17.27c-.21,1.32-.37,2.63-.54,3.95,0,.27-.07.54-.1.82s.07-.43,0,.25c-.06.41-.13.81-.22,1.21C19.72,26.63,24.54,28,25.27,24.83Z"/><path class="cls-2" d="M56.47,73.44c-.32,12.6.29,25.21.9,37.77q1.27,26.46,2.56,52.94"/><path class="cls-3" d="M54,73.44c-.29,11.85.22,23.7.79,35.54s1.13,23.42,1.7,35.13l1,20c.16,3.2,5.16,3.22,5,0-1.14-23.51-2.56-47-3.32-70.57-.22-6.71-.31-13.43-.14-20.14.08-3.22-4.92-3.22-5,0Z"/><path class="cls-3" d="M42.7,114.15c4.36,7.22,7.46,15.19,10.55,23.11,3.6,9.25,7.26,18.81,7.21,28.78l-2,1.73c-8.73-.93-16.77-6.15-22.94-12.94s-10.66-15.11-14.7-23.52A306.79,306.79,0,0,1,2.51,83.36C18.81,87.68,33.53,99,42.7,114.15Z"/><path class="cls-3" d="M40.54,115.41c4.62,7.7,7.83,16.12,11.06,24.47S58,156.93,58,166l.73-1.77-2,1.73,1.77-.73c-12.48-1.43-22-11.65-28.23-21.72a164,164,0,0,1-9.45-18.18q-4.44-9.66-8.18-19.6Q8.29,94.39,4.92,82.7L1.84,85.77A65.1,65.1,0,0,1,34,106.33a67.12,67.12,0,0,1,6.56,9.08c1.67,2.75,6,.24,4.32-2.52A72.12,72.12,0,0,0,14.26,85,67.3,67.3,0,0,0,3.17,81,2.52,2.52,0,0,0,.1,84,308.43,308.43,0,0,0,12,117.82c4.42,10.56,9.12,21.32,15.54,30.84,5.93,8.8,13.84,16.68,24.08,20.16a29.16,29.16,0,0,0,3.41.93c1.36.29,3.36.93,4.64.18a11.58,11.58,0,0,0,1.44-1.18,6.66,6.66,0,0,0,1.5-1.45c.7-1.21.33-3.18.23-4.52-.12-1.61-.32-3.21-.58-4.81a66.72,66.72,0,0,0-2-8.6C58.36,143.12,55.88,137,53.45,131a125.78,125.78,0,0,0-8.59-18.09C43.21,110.13,38.88,112.64,40.54,115.41Z"/><path class="cls-3" d="M71.11,124.53a44.93,44.93,0,0,1,5.41-9.14,45,45,0,0,1,7.25-6.62L113,85.71c.37-.29.82-.59,1.25-.41s.58.7.66,1.16c.84,4.36-.43,8.81-1.77,13-2.87,8.94-6.11,17.73-9.35,26.52-2.56,6.94-5.27,14.12-10.33,19.21a47.27,47.27,0,0,1-8.39,6.27L62.79,165.61l-2.62,2.33C58.92,152.71,64.6,138,71.11,124.53Z"/><path class="cls-3" d="M73.27,125.79c1.92-4,4-7.83,7.15-10.93,3.43-3.32,7.41-6.13,11.15-9.09l11.69-9.22,5.85-4.61L112,89.63l1.56-1.23c.27-.21.66-.66,1-.74h-1.34l-.89-.9c.67,1,.35,3.23.23,4.4a29.23,29.23,0,0,1-1.16,5.37c-1,3.55-2.26,7-3.47,10.54-2.38,6.9-4.89,13.77-7.46,20.6-2.16,5.74-4.64,11.7-9.12,16.05a48.71,48.71,0,0,1-8,5.84l-9.67,6.15-10.92,7a34.44,34.44,0,0,0-4.38,3.52l4.26,1.77c-1.15-14.84,4.26-29,10.6-42.15a2.57,2.57,0,0,0-.9-3.42,2.51,2.51,0,0,0-3.42.9c-6.7,13.89-12.5,29-11.28,44.67a2.54,2.54,0,0,0,4.27,1.77,30.49,30.49,0,0,1,2.49-2.21,1.31,1.31,0,0,1,.12-.11c-.35.25.36-.16.35-.15.72-.39,1.41-.9,2.1-1.34l3.78-2.41,15.54-9.89c4.64-3,8.92-6.06,12.15-10.58,3.08-4.31,5.07-9.31,6.92-14.23q3.08-8.22,6-16.51c2-5.57,4.17-11.2,5.5-17a23.4,23.4,0,0,0,.49-9,3.94,3.94,0,0,0-2.49-3.37c-1.74-.52-3,.52-4.27,1.52L96.22,95.78c-5.32,4.2-10.69,8.35-16,12.61a37.08,37.08,0,0,0-6.7,6.78,50.15,50.15,0,0,0-4.6,8.1,2.57,2.57,0,0,0,.9,3.42A2.53,2.53,0,0,0,73.27,125.79Z"/></g></g></svg>