<svg xmlns="http://www.w3.org/2000/svg" viewBox="0 0 124.79 179.33"><defs><style>.cls-1{fill:#f48789;}.cls-2{fill:#7bb242;}.cls-3{fill:#77bc43;}</style></defs><g id="Layer_2" data-name="Layer 2"><g id="Layer_1-2" data-name="Layer 1"><path class="cls-1" d="M83.16,11.06c-1.81-3.8-4.44-8-8.62-8.48-5.32-.65-7.66,7.58-10.13,12.33C62.15,10.3,54.15,6.56,49.5,8.74s-6.33,9.4-9.24,13.63c-1.51-3.32-5.59-10.1-9.18-9.4a7.09,7.09,0,0,0-3.65,2.44c-6,6.59-7.78,16.16-6.78,25s4.49,17.2,7.93,25.41A26.51,26.51,0,0,0,33.35,74c5.49,5.84,14.81,7.72,18.35,7.93h0C64,84,76.7,77.35,84.52,66,95.42,50.19,91.46,28.39,83.16,11.06Z"/><path class="cls-1" d="M85.32,9.8c-2.49-5.15-7.8-12.11-14.39-9C66.08,3,64.49,9.29,62.25,13.65h4.32a15,15,0,0,0-7.15-6.39C56.43,5.88,52.84,5,49.61,6,43,8.11,41.54,16,38.1,21.11h4.32c-2.23-4.84-7.16-13-13.55-10-3.39,1.57-5.92,5.58-7.5,8.82a34.66,34.66,0,0,0-3.17,11c-1,8.2.76,16.45,3.47,24.17,1.46,4.19,3.18,8.29,4.92,12.37,1.55,3.66,3.47,7.16,6.55,9.76A32.56,32.56,0,0,0,51.7,84.43a2.48,2.48,0,0,0,2.45-2.16,2.53,2.53,0,0,0-1.79-2.75h0L51,84.34C64.16,86.45,76.86,80,84.87,69.71a40.35,40.35,0,0,0,8-18,57.69,57.69,0,0,0-.32-20.13A86.74,86.74,0,0,0,85.32,9.8a2.52,2.52,0,0,0-3.42-.9A2.55,2.55,0,0,0,81,12.32c5.2,10.93,8.64,23.31,7.43,35.5A36.57,36.57,0,0,1,70,76.06a27.57,27.57,0,0,1-17.65,3.46A2.5,2.5,0,0,0,51,84.34h0l.67-4.92c-.37,0-.73-.06-1.09-.09s.32,0-.19,0l-.83-.14a33.42,33.42,0,0,1-3.4-.78,28.38,28.38,0,0,1-7.58-3.29,17.2,17.2,0,0,1-6.15-6.79,102.83,102.83,0,0,1-4.36-10.2c-4.82-12.32-8.8-28,0-39.63a16.61,16.61,0,0,1,1.66-1.9,6.09,6.09,0,0,1,.92-.76,2.78,2.78,0,0,1,.53-.3c.12,0,.78-.25.43-.12s0,0,.12,0c-.26,0-.2,0,0,0s0-.07.43.18a5.65,5.65,0,0,1,1.3,1,23.2,23.2,0,0,1,4.59,7c.85,1.82,3.37,1.41,4.32,0a72.11,72.11,0,0,0,3.81-7.29c1.07-2.09,2.37-4.55,4.53-5.45a6.21,6.21,0,0,1,2.71-.26,12.2,12.2,0,0,1,3.43.93,10.77,10.77,0,0,1,5.35,4.6,2.52,2.52,0,0,0,4.32,0c1-2,1.86-4.1,2.87-6.12a24,24,0,0,1,1.61-2.83,5.75,5.75,0,0,1,.76-1c.15-.17.31-.32.47-.48a1.69,1.69,0,0,1,.3-.25c.82-.54.79-.57,1.69-.48a5.45,5.45,0,0,1,2.46,1.08c2,1.54,3.21,4,4.28,6.18a2.52,2.52,0,0,0,3.42.9A2.55,2.55,0,0,0,85.32,9.8Z"/><path class="cls-2" d="M61.69,83.36c-.58,11.8.42,23.58,1.53,35.32s2.26,23.57,3.39,35.35l1.92,20a2.55,2.55,0,0,0,2.5,2.5,2.53,2.53,0,0,0,2.5-2.5l-3.42-35.62C69,126.72,67.68,115,66.94,103.24a178.18,178.18,0,0,1-.25-19.88c.15-3.21-4.85-3.21-5,0Z"/><path class="cls-3" d="M83.27,121.35c-3.74,7.68-6,16-8.35,24.19-2.67,9.6-5.38,19.54-4.06,29.42l2.4,1.49c9.21-2,17.15-8.08,22.88-15.55s9.48-16.26,12.74-25.09a290.36,290.36,0,0,0,13.46-49.76A71.33,71.33,0,0,0,83.27,121.35Z"/><path class="cls-2" d="M81.11,120.08a113.36,113.36,0,0,0-6.29,16.72c-1.75,5.85-3.45,11.75-4.82,17.7a61.46,61.46,0,0,0-1.87,18.31c.12,1.57.06,3.35,1.49,4.33.55.37,1.13.69,1.69,1a3.38,3.38,0,0,0,2.62.68,25.9,25.9,0,0,0,3.76-1.05c21.72-7.52,30.52-31.34,37.06-51.27a291.91,291.91,0,0,0,10-39.83c.3-1.69-1.12-3.8-3.08-3.07a74.56,74.56,0,0,0-34.24,26,70.42,70.42,0,0,0-6.32,10.46,2.58,2.58,0,0,0,.9,3.43,2.53,2.53,0,0,0,3.42-.9,69.29,69.29,0,0,1,27.29-29.28A66.17,66.17,0,0,1,123,88.46l-3.07-3.08a290.66,290.66,0,0,1-11.22,43.46c-4.3,12.54-9.16,25.78-18.76,35.32A35.71,35.71,0,0,1,72.6,174l1.92.25-2.4-1.49L73.36,175c-1.17-9.24,1.08-18.28,3.52-27.13,2.37-8.55,4.68-17.21,8.55-25.22a2.56,2.56,0,0,0-.9-3.42A2.52,2.52,0,0,0,81.11,120.08Z"/><path class="cls-3" d="M54.22,135a45.7,45.7,0,0,0-6.93-8.43,49.61,49.61,0,0,0-8.59-5.73L4.55,101.38a1.52,1.52,0,0,0-1.4-.27,1.46,1.46,0,0,0-.56,1.23C2.26,106.77,4.18,111,6.13,115c4.2,8.55,8.78,16.89,13.35,25.24,3.62,6.59,7.42,13.4,13.48,17.86a52,52,0,0,0,9.76,5.24l25.59,11.46,3.09,2C70.82,161.55,62.88,147.59,54.22,135Z"/><path class="cls-2" d="M56.38,133.73a62.56,62.56,0,0,0-5.46-7.1,33.07,33.07,0,0,0-6.7-5.43c-5.3-3.38-10.91-6.31-16.36-9.42L11,102.17,7.1,100C5.59,99.09,4,98,2.19,98.83-.73,100.14,0,104.43.43,107a33.86,33.86,0,0,0,3,8.13c1.37,2.88,2.83,5.72,4.3,8.54,2.89,5.59,5.91,11.11,8.93,16.63a95.59,95.59,0,0,0,8.63,13.81,36,36,0,0,0,13.17,10.07c6.34,3,12.8,5.76,19.2,8.62,3.12,1.4,6.45,2.6,9.45,4.24,1.06.58,2.05,1.33,3.07,2a2.52,2.52,0,0,0,3.76-2.16c-.68-16-8.69-30.22-17.52-43.09a2.56,2.56,0,0,0-3.42-.89,2.53,2.53,0,0,0-.9,3.42c8.3,12.08,16.2,25.53,16.84,40.56l3.77-2.16a27.53,27.53,0,0,0-3.77-2.3l-10.78-4.83-11-4.92c-3.33-1.5-6.75-2.9-9.92-4.72-5.79-3.32-9.64-8.55-12.94-14.22-3.74-6.41-7.22-13-10.68-19.57-2-3.81-4-7.65-5.87-11.54a32.06,32.06,0,0,1-2-5.23,14.68,14.68,0,0,1-.56-2.79c0-.44,0-.88,0-1.31s0-.59,0-.89a.74.74,0,0,1-.17.54l-1.1.64c-.68-.07-.71,0-.1.26l.86.49,1.73,1,3.46,2,6.92,3.94,13.4,7.63c4.26,2.43,8.68,4.7,12.74,7.45,3.85,2.62,6.62,6.21,9.23,10a2.56,2.56,0,0,0,3.42.89A2.52,2.52,0,0,0,56.38,133.73Z"/></g></g></svg>