<svg xmlns="http://www.w3.org/2000/svg" viewBox="0 0 131.39 87.18"><defs><style>.cls-1{fill:#231f20;}.cls-2{fill:none;stroke:#231f20;stroke-linecap:round;stroke-linejoin:round;stroke-width:4px;}</style></defs><g id="Layer_2" data-name="Layer 2"><g id="Layer_1-2" data-name="Layer 1"><path class="cls-1" d="M27.41,16C24.72,29.43,22.94,43.1,21.6,56.73q-.53,5.24-.86,10.49c-.19,3.21,4.81,3.2,5,0a398.45,398.45,0,0,1,4.67-39.73q.82-5.1,1.82-10.17A2.5,2.5,0,1,0,27.41,16Z"/><path class="cls-1" d="M29.82,19.15c-1.08-.26-1.66-.82-1.75-1.68,0,.27,0,.26,0,0a4.62,4.62,0,0,0-.24,1,11.64,11.64,0,0,0-.4,2.26c-.1,2.07,1.15,4.09,1.92,6l5.71,13.74,11.4,27.49A2.54,2.54,0,0,0,50.65,69c2.85-2.53,2.18-7,2.17-10.44l0-12.62,0-25.49c0-3.22-5-3.22-5,0l0,24,0,11.88c0,2,0,4,0,5.94,0,1.07.16,2.42-.71,3.19l4.18,1.1L41.69,43.42,36.85,31.73,34.47,26l-1.14-2.74-.57-1.38c-.07-.16-.42-1.18-.34-.69a3.85,3.85,0,0,1,.27-1.56,9.68,9.68,0,0,0,.38-2.07,3.24,3.24,0,0,0-3.25-3.41c-3.21-.16-3.2,4.84,0,5Z"/><path class="cls-1" d="M59.55,60.82c2.83-.11,5.62.57,8.43,0A8,8,0,0,0,73.27,57c2-3.46,1.69-8.52-1.52-11.17a5.57,5.57,0,0,0-4.61-1.42,7,7,0,0,0-3.58,2.24,27.94,27.94,0,0,0-4.6,6c-2.39,4.29-3.51,10.58.83,14a13.68,13.68,0,0,0,6.53,2.82c2.3.33,5,.25,6.91-1.18a2.57,2.57,0,0,0,.89-3.42A2.52,2.52,0,0,0,70.7,64a4.88,4.88,0,0,1-.73.44c-.32.16.55-.12-.06,0-.13,0-.27.08-.4.11l-.42.08c.48-.09.13,0,0,0a10.78,10.78,0,0,1-1.27,0l-.48,0c-.46,0,.57.12-.18,0-.33-.06-.65-.13-1-.21s-.72-.21-1.08-.33c-.09,0-.59-.24-.21-.08a5.77,5.77,0,0,1-.56-.27,8,8,0,0,1-.95-.54c-.13-.09-.27-.18-.39-.28.32.24,0,0,0,0a2.48,2.48,0,0,1-1.05-1.68,8.57,8.57,0,0,1,.7-4.67,17.41,17.41,0,0,1,2.59-4.19c.6-.72,1.24-1.42,1.9-2.09a5.81,5.81,0,0,1,.88-.84c.39-.26.22,0,0-.06a1.52,1.52,0,0,1,.56.37c.13.12.57.71.31.31.08.12.16.24.23.36s.31.62.16.28.1.31.1.3c.05.18.09.35.13.53s.08.61,0,.09a3.11,3.11,0,0,1,0,.43,8.55,8.55,0,0,1,0,.88c0,.69.08-.31,0,.1,0,.17-.07.35-.12.53s-.09.28-.13.42c-.14.49.18-.27-.09.2a7.91,7.91,0,0,1-.56.93c.31-.41-.36.31-.49.43.34-.3.08-.06,0,0a6.38,6.38,0,0,1-.57.32c.27-.12-.23.07-.23.07a8,8,0,0,1-1,.22c-2.19.29-4.54-.31-6.78-.22a2.5,2.5,0,0,0,0,5Z"/><path class="cls-1" d="M78.06,52.19c.07,0,.69,0,.34,0s.27.07.32.08c.23.07.21.13,0,0,.16.1.33.18.49.29s.45.37.15.1l.35.31q.39.38.75.78c1.24,1.37,2.39,2.83,3.57,4.24l7.33,8.76a2.53,2.53,0,0,0,3.54,0,2.57,2.57,0,0,0,0-3.54L87,53.73c-2.26-2.71-4.88-6.84-8.94-6.54a2.5,2.5,0,0,0,0,5Z"/><path class="cls-1" d="M91.89,47.51c-6.16,4.1-10.35,10.5-15.5,15.67a2.5,2.5,0,1,0,3.53,3.54c2.51-2.51,4.76-5.27,7.14-7.9,1.26-1.4,2.54-2.79,3.9-4.1.6-.58,1.21-1.14,1.85-1.68l.47-.4.24-.19c-.22.17-.26.2-.11.09.33-.24.66-.48,1-.71a2.5,2.5,0,1,0-2.52-4.32Z"/><path class="cls-1" d="M100.44,24.41c.06.32.11.65.16,1-.06-.42,0,.37.05.49.08.71.14,1.43.2,2.16.1,1.51.15,3,.19,4.56.06,3.39,0,6.78,0,10.18,0,6.41.09,13.2,2.08,19.36A16.62,16.62,0,0,0,108,70a2.58,2.58,0,0,0,3.54,0,2.53,2.53,0,0,0,0-3.54,11.09,11.09,0,0,1-3.46-5.4,36,36,0,0,1-1.59-8.34c-.58-6.54-.32-13.11-.44-19.66a65.25,65.25,0,0,0-.77-10,2.52,2.52,0,0,0-3.08-1.74,2.56,2.56,0,0,0-1.75,3.07Z"/><path class="cls-1" d="M97.37,37.1h12.39a2.5,2.5,0,0,0,0-5H97.37a2.5,2.5,0,0,0,0,5Z"/><rect class="cls-2" x="2" y="2" width="127.39" height="83.18" rx="24.56"/></g></g></svg>