<svg xmlns="http://www.w3.org/2000/svg" viewBox="0 0 131.39 87.18"><defs><style>.cls-1{fill:#231f20;}.cls-2{fill:none;stroke:#231f20;stroke-linecap:round;stroke-linejoin:round;stroke-width:4px;}</style></defs><g id="Layer_2" data-name="Layer 2"><g id="Layer_1-2" data-name="Layer 1"><path class="cls-1" d="M18.31,13.39A326.91,326.91,0,0,1,25,72.15c.07,3.21,5.07,3.22,5,0a334.36,334.36,0,0,0-6.87-60.09,2.5,2.5,0,1,0-4.82,1.33Z"/><path class="cls-1" d="M20.24,18.77c6.24-1.42,15.21-3.58,19.9,2.3,1.44,1.8,3.2,5.06,2.55,7.45-.39,1.43-1.75,2.59-2.79,3.55a6.29,6.29,0,0,1-2.79,1.26A34.78,34.78,0,0,1,27.5,34c-3.22-.09-3.21,4.91,0,5a41,41,0,0,0,10.78-.78,13.25,13.25,0,0,0,8.66-6.9c1.83-3.75.33-8.4-1.76-11.73a15.05,15.05,0,0,0-10.07-6.89c-5.44-1.06-10.88.05-16.2,1.27-3.13.71-1.81,5.53,1.33,4.82Z"/><path class="cls-1" d="M40.88,45a34.49,34.49,0,0,1,5.84,22.74h5c.11-2.89-.18-5.78-.26-8.68-.07-2.66-.07-5.52,1-8a15.18,15.18,0,0,1,1.9-3.26,9.52,9.52,0,0,1,1.22-1.24,3.24,3.24,0,0,1,.57-.4c.33-.19,0,0,.24-.1a8.84,8.84,0,0,1,5.67.61c2.85,1.5,5.38-2.81,2.53-4.32a13.93,13.93,0,0,0-8.84-1.28c-3.18.61-5.43,3.45-6.92,6.14C45.26,53.72,47,60.76,46.72,67.77a2.53,2.53,0,0,0,2.5,2.5,2.55,2.55,0,0,0,2.5-2.5A38.92,38.92,0,0,0,45.2,42.5a2.56,2.56,0,0,0-3.42-.89,2.52,2.52,0,0,0-.9,3.42Z"/><path class="cls-1" d="M69.29,46.68a80.6,80.6,0,0,0,3,11.33,78.6,78.6,0,0,0,4.57,11c1,1.84,3.26,1.37,4.32,0C86,62.8,86.84,54.6,88.84,47.23c.84-3.1-4-4.43-4.82-1.32-1.89,7-2.58,14.71-7.11,20.6h4.32a69.76,69.76,0,0,1-4.18-10.16,79.27,79.27,0,0,1-2.93-11A2.54,2.54,0,0,0,71,43.6a2.57,2.57,0,0,0-1.75,3.08Z"/><path class="cls-1" d="M91.94,54.27a9.57,9.57,0,0,0,6.46,5.55,13.52,13.52,0,0,0,7.16-.44,8.56,8.56,0,0,0,6-5.75,7.44,7.44,0,0,0-3.35-8.45,10.9,10.9,0,0,0-9-.69,12.26,12.26,0,0,0-7.09,6.66A20.84,20.84,0,0,0,90.71,56a15.31,15.31,0,0,0-.38,4.37A12.73,12.73,0,0,0,95.52,69c3.9,2.78,9.27,2,13.2-.31,2.77-1.63.26-5.95-2.53-4.32-.44.26-.91.45-1.37.69-.12.07.57-.21.11,0l-.45.17c-.35.12-.7.23-1.06.33s-.73.13-1.08.22.26,0,.26,0l-.33,0-.66,0c-.36,0-.74-.06-1.1,0s.48.11.15,0c-.08,0-.17,0-.26-.05l-.68-.16-.6-.21c-.26-.07.15.06.17.07s-.23-.1-.33-.16l-.5-.29c-.14-.09-.69-.53-.31-.2a10.91,10.91,0,0,1-1.08-1.07s-.29-.36,0,0l-.22-.3c-.19-.29-.38-.58-.55-.88a9.28,9.28,0,0,1-.69-1.42,8.64,8.64,0,0,1-.26-1c-.08-.44,0,.3,0-.1,0-.16,0-.31,0-.47,0-.33.06-1,.08-1.16,0-.38.21-1.29.33-1.85C96.23,54,97,52,98.89,50.31a6.09,6.09,0,0,1,2.29-1.17c.27-.08.54-.13.81-.2.08,0,.49-.08,0,0,.12,0,.23,0,.35,0a9.41,9.41,0,0,1,1.76,0c-.44,0,.08,0,.24.06s.5.15.75.22-.32-.17,0,0l.3.14c.15.08.76.5.39.21a5.35,5.35,0,0,1,.55.51c.2.2,0,0,0-.08a3.41,3.41,0,0,1,.25.37c.06.1.11.2.16.3.18.33-.09-.34,0,0l.09.32c.16.44,0-.17,0,.1s0,.45,0,.67c0,.38.09-.38,0,0,0,.11,0,.22-.07.33s-.09.29-.13.43-.14.38,0,.13-.05.09-.07.11l-.28.5c-.15.23,0,0,0,0-.09.12-.2.24-.3.35l-.25.24c-.27.28.28-.18,0,0s-.47.28-.71.42c.38-.23.11,0-.13.06a14.19,14.19,0,0,1-2.45.69l-.36.07c-.33.09.46,0,.12,0s-.49.05-.74.06a12.69,12.69,0,0,1-1.51,0c-.36,0,.43.12.1,0-.12,0-.26,0-.38-.08s-.5-.13-.74-.21c-.08,0-.46-.19-.16,0s-.09-.06-.15-.09q-.34-.19-.69-.42c-.23-.15.07.06.1.08-.14-.11-.27-.23-.4-.35l-.24-.23s-.4-.48-.24-.27-.08-.11-.09-.13l-.33-.52a9.68,9.68,0,0,1-.53-1.07,2.53,2.53,0,0,0-3.42-.9,2.59,2.59,0,0,0-.9,3.43Z"/><rect class="cls-2" x="2" y="2" width="127.39" height="83.18" rx="24.56"/></g></g></svg>