<svg id="Layer_1" data-name="Layer 1" xmlns="http://www.w3.org/2000/svg" viewBox="0 0 83.68 78.95"><defs><style>.cls-1{fill:none;stroke:#231f20;stroke-linecap:round;stroke-linejoin:round;stroke-width:3px;}</style></defs><line class="cls-1" x1="19.8" y1="33.91" x2="44.95" y2="33.91"/><path class="cls-1" d="M193.91,82.75A6.46,6.46,0,1,1,199.73,92" transform="translate(-154.77 -58.1)"/><line class="cls-1" x1="19.8" y1="39.49" x2="61.6" y2="39.49"/><path class="cls-1" d="M210.56,88.33a6.46,6.46,0,1,1,5.81,9.26" transform="translate(-154.77 -58.1)"/><line class="cls-1" x1="19.8" y1="45.33" x2="44.95" y2="45.33"/><path class="cls-1" d="M193.91,112.69a6.46,6.46,0,1,0,5.82-9.26" transform="translate(-154.77 -58.1)"/><path class="cls-1" d="M163.35,81.52a38,38,0,0,0,34.42,54" transform="translate(-154.77 -58.1)"/><path class="cls-1" d="M237,117.22l-8,2A38,38,0,0,0,197.77,59.6" transform="translate(-154.77 -58.1)"/><path class="cls-1" d="M227.08,111.27l1.91,7.94" transform="translate(-154.77 -58.1)"/><path class="cls-1" d="M156.27,83.19l8-2" transform="translate(-154.77 -58.1)"/><path class="cls-1" d="M166.15,89.14l-1.91-7.94" transform="translate(-154.77 -58.1)"/></svg>